<svg version="1.1" xmlns="http://www.w3.org/2000/svg" viewBox="0 0 1595.9774061852781 521.7209602341577" width="1595.9774061852781" height="521.7209602341577">
  <!-- svg-source:excalidraw -->
  
  <defs>
    <style class="style-fonts">
      @font-face {
        font-family: "Virgil";
        src: url("https://excalidraw.com/Virgil.woff2");
      }
      @font-face {
        font-family: "Cascadia";
        src: url("https://excalidraw.com/Cascadia.woff2");
      }
    </style>
    
  </defs>
  <rect x="0" y="0" width="1595.9774061852781" height="521.7209602341577" fill="#ffffff"></rect><g stroke-linecap="round" transform="translate(300.48305247500537 136.3036018357202) rotate(0 7.8114013671875 122.70867919921875)"><path d="M0.12 -0.65 C4.79 0.76, 8.3 0.86, 15.46 1.26 M-0.28 -0.3 C4.04 0.01, 7.41 0.14, 15.75 0.26 M14.38 0.53 C14.07 66.68, 15.41 135.48, 15.33 243.87 M16.27 -0.06 C17.12 51.36, 17.41 102.7, 15.85 245.76 M14.94 244.36 C13.41 245.26, 7.85 244.07, -1.06 246.38 M15.06 245.93 C11.52 245.57, 6.74 245.18, 0.51 245.92 M0.74 244.35 C2.36 196.06, 2.39 144.8, -1.2 0.66 M0.55 244.64 C-0.88 166.84, 0.43 88.32, 0.35 -0.39" stroke="#000000" stroke-width="1" fill="none"></path></g><g stroke-linecap="round" transform="translate(553.4830524750054 133.3036018357202) rotate(0 9.8114013671875 189.20867919921878)"><path d="M1.29 0.9 C6.32 1.11, 10.49 1.67, 18.52 -1.17 M0.29 0.17 C7.22 0.41, 15.13 0.4, 19.39 -0.47 M19.2 -0.84 C18.46 147.61, 17.69 294.34, 18.54 379.5 M19.39 -0.22 C21.39 102.48, 21.58 206.13, 19.05 379 M20.85 378.03 C10.03 376.39, 2.6 379.49, -0.53 377.08 M19.83 378.65 C13.75 378.3, 9.42 379.17, -0.93 377.85 M0.87 379.07 C-0.13 245.34, -1.9 112.94, 0.23 0.15 M-0.47 378.15 C-1.02 291.71, -1.26 205.69, -0.46 0.04" stroke="#000000" stroke-width="1" fill="none"></path></g><g stroke-linecap="round" transform="translate(1143.4830524750053 260.3036018357202) rotate(0 8.3114013671875 44.70867919921875)"><path d="M0.83 0.87 C4.12 1.27, 7.65 -1.07, 17.98 -0.59 M-0.22 0.29 C4.49 0.25, 8.51 -0.43, 17.37 -0.63 M17.54 -0.21 C15.95 27.82, 14.52 61.17, 16.06 90.98 M16.59 -0.77 C16.56 26.55, 15.32 53.22, 17.62 88.98 M15.15 87.81 C11.64 90.41, 8.45 88.25, -0.39 88.22 M16.24 89.2 C11.09 89.99, 3.67 88.98, 0.43 89.79 M1.48 89.26 C-2.11 69.18, -0.27 47.59, -1.44 1.33 M0.81 88.61 C1.11 70.57, -0.08 52.76, 0.79 -0.84" stroke="#000000" stroke-width="1" fill="none"></path></g><g stroke-linecap="round" transform="translate(1543.4830524750053 437.3036018357202) rotate(0 7.3114013671875 20.20867919921875)"><path d="M0.55 1.02 C4.96 -0.54, 8.11 -0.92, 15.15 -1.23 M0.67 0.44 C3.61 -0.08, 5.42 -0.3, 14.67 -0.41 M12.97 1.96 C15.38 16.07, 13.16 30.15, 14.69 40.66 M14.67 -0.59 C14.13 16.5, 14.18 30.66, 15.47 40.36 M15.97 39.61 C10.19 39.32, 8.58 40.92, 0.16 39.74 M14.15 39.69 C11.26 39.96, 8.4 40.43, 0.32 41.1 M-1.13 41.85 C0.49 24.66, 1.21 8.58, 0.68 -0.62 M0.7 40.39 C0.46 32.08, -0.57 22.61, -0.18 0.83" stroke="#000000" stroke-width="1" fill="none"></path></g><g stroke-linecap="round" transform="translate(1337.4830524750053 322.3036018357202) rotate(0 10.8114013671875 63.70867919921875)"><path d="M-0.21 1.62 C6.36 -1.31, 16.59 -0.83, 20.86 0.58 M0.16 0.33 C6.63 -0.55, 14.63 -0.83, 21.94 -0.35 M21.26 -1.87 C20.42 31.17, 21.65 60.32, 21.47 126.65 M21.9 0.42 C20.63 34.46, 22.58 66.56, 20.94 128.04 M20.27 128.65 C15.02 125.84, 9.04 125.77, 1.32 127.84 M22.28 128.06 C13.67 126.79, 8.13 127.81, -0.65 128.14 M-1.46 128.22 C-0.57 82.56, -2.39 38.55, -1.89 -1.55 M0.42 126.94 C-1.81 94.85, -0.25 61.31, -0.79 0.72" stroke="#000000" stroke-width="1" fill="none"></path></g><g stroke-linecap="round" transform="translate(881.4830524750053 274.30360183572) rotate(0 10.8114013671875 70.20867919921885)"><path d="M-1.12 -1.19 C9.25 -0.89, 14.48 0.41, 21.97 -0.53 M-0.24 -0.48 C8.13 -0.82, 14.78 -0.42, 20.93 0.46 M19.83 1.79 C20.81 42.25, 21.21 80.6, 20.88 140.36 M20.67 0.96 C23.02 30.94, 21.34 63.39, 21.42 139.53 M21.08 139.05 C16.75 139.11, 14.14 140.97, 0.48 139.5 M20.67 139.84 C16.2 141, 9.11 141.28, 0.54 141.16 M0.37 140.66 C-0.42 100.73, -0.87 56.85, -0.88 1.63 M-0.77 140.49 C0.2 108.72, -1.39 79.42, -0.67 -0.93" stroke="#000000" stroke-width="1" fill="none"></path></g><g stroke-linecap="round"><g transform="translate(307.3929035492241 106.9808479294702) rotate(0 -1.5242381282150745 14.809595400840067)"><path d="M-0.72 0.98 C-1.27 5.86, -2.19 23.92, -2.33 28.64" stroke="#000000" stroke-width="1.5" fill="none" stroke-dasharray="8 9"></path></g></g><mask></mask><g stroke-linecap="round"><g transform="translate(560.3929035492241 103.9808479294702) rotate(0 -0.9922993607818853 14.425838167220377)"><path d="M-0.43 -0.46 C-0.57 4.26, -1.26 24.32, -1.56 29.31" stroke="#000000" stroke-width="1.5" fill="none" stroke-dasharray="8 9"></path></g></g><mask></mask><g stroke-linecap="round"><g transform="translate(1149.392903549224 124.9808479294702) rotate(0 1.0622765831649303 68.36122842505574)"><path d="M0.35 0.21 C0.72 23.04, 1.45 113.8, 1.78 136.51" stroke="#000000" stroke-width="1.5" fill="none" stroke-dasharray="8 9"></path></g></g><mask></mask><g stroke-linecap="round"><g transform="translate(1154.392903549224 351.9808479294702) rotate(0 -0.1164031691848777 52.210902745276684)"><path d="M-1.17 -0.13 C-0.9 17.17, 0.84 86.94, 0.94 104.55" stroke="#000000" stroke-width="1.5" fill="none" stroke-dasharray="8 9"></path></g></g><mask></mask><g stroke-linecap="round"><g transform="translate(1348.392903549224 126.9808479294702) rotate(0 1.4854125551879633 97.45773394778371)"><path d="M-0.32 0.41 C0.17 32.79, 2.77 162.32, 3.29 194.5" stroke="#000000" stroke-width="1.5" fill="none" stroke-dasharray="8 9"></path></g></g><mask></mask><g stroke-linecap="round"><g transform="translate(1549.392903549224 101.9808479294702) rotate(0 0.30297244265671 163.79106195494532)"><path d="M-0.53 0.98 C-0.15 55.56, 0.79 272.57, 1.13 326.61" stroke="#000000" stroke-width="1.5" fill="none" stroke-dasharray="8 9"></path></g></g><mask></mask><g stroke-linecap="round"><g transform="translate(888.392903549224 111.9808479294702) rotate(0 1.0035001568496682 68.96435375884175)"><path d="M0.2 0.4 C0.55 23.25, 1.31 114.73, 1.81 137.53" stroke="#000000" stroke-width="1.5" fill="none" stroke-dasharray="8 9"></path></g></g><mask></mask><g stroke-linecap="round"><g transform="translate(308.53603099063037 384.3396736130637) rotate(0 0.9516956381499995 17.081557828933)"><path d="M-0.28 -0.58 C0.05 5.15, 1.89 28.77, 2.19 34.74" stroke="#000000" stroke-width="1.5" fill="none" stroke-dasharray="8 9"></path></g></g><mask></mask><g stroke-linecap="round" transform="translate(242.92818186953662 60.7732063279077) rotate(0 70.220458984375 30)"><path d="M-1.5 0.64 C38.11 -2.66, 78.54 -1.48, 140.08 -1.87 M0.78 -0.08 C29.18 0.02, 59.1 -0.37, 140.72 0.42 M139.56 -1.36 C142.27 11.86, 139.24 22.58, 139.09 61.23 M139.72 0.66 C140.24 16.61, 139.57 32.48, 141.1 60.64 M141.34 58.71 C113.14 61.8, 84.42 60.56, -1.46 60.8 M141.1 59.05 C94.91 58.55, 51.73 58.18, 0.42 59.52 M-1.68 58.41 C1.39 45.28, -1.9 35.12, -0.45 1.87 M0.41 59.03 C1.27 39.07, 0.77 18.05, 0.22 -0.27" stroke="#000000" stroke-width="1" fill="none"></path></g><g transform="translate(248.1587192840874 65.7732063279077) rotate(0 64.98992156982422 25)"><text x="64.98992156982422" y="0" font-family="Virgil, Segoe UI Emoji" font-size="20px" fill="#1e1e1e" text-anchor="middle" style="white-space: pre;" direction="ltr" dominant-baseline="text-before-edge">Mobile App / </text><text x="64.98992156982422" y="25" font-family="Virgil, Segoe UI Emoji" font-size="20px" fill="#1e1e1e" text-anchor="middle" style="white-space: pre;" direction="ltr" dominant-baseline="text-before-edge">GUI</text></g><g stroke-linecap="round" transform="translate(495.9281818695366 57.7732063279077) rotate(0 70.22045898437494 30)"><path d="M0.92 -0.21 C46.27 -0.9, 91.47 2.76, 139.88 1.57 M-0.03 -0.77 C41.32 0.94, 81.11 1.49, 141.44 -0.44 M138.66 -1.93 C139.46 15.16, 140.27 26.5, 139.97 58.56 M139.98 -0.26 C141.22 22.59, 139.61 43.32, 140.95 60.45 M141.92 59.84 C105.94 61.56, 74.74 61, -1.44 61.33 M141.25 59.2 C112.02 58.91, 81.98 59.45, 0.79 59.16 M-1.86 61.87 C-0.88 48.63, 0.43 32.59, -1.04 0.83 M0.48 59.24 C-0.37 47.55, -0.83 35.66, -0.93 0.71" stroke="#000000" stroke-width="1" fill="none"></path></g><g transform="translate(504.50871012881396 62.7732063279077) rotate(0 61.6399307250976 25)"><text x="61.639930725097656" y="0" font-family="Virgil, Segoe UI Emoji" font-size="20px" fill="#1e1e1e" text-anchor="middle" style="white-space: pre;" direction="ltr" dominant-baseline="text-before-edge">User Facing </text><text x="61.639930725097656" y="25" font-family="Virgil, Segoe UI Emoji" font-size="20px" fill="#1e1e1e" text-anchor="middle" style="white-space: pre;" direction="ltr" dominant-baseline="text-before-edge">API</text></g><g stroke-linecap="round" transform="translate(821.9281818695365 57.7732063279077) rotate(0 70.220458984375 30)"><path d="M-1.79 1.79 C40.13 2.88, 81.22 0.55, 139.7 -0.06 M-0.96 0.96 C32.39 -1.03, 62.1 0.04, 140.24 -0.89 M139.9 -1.36 C139.56 10.78, 141.35 24.84, 140.92 59.09 M139.49 -0.58 C141.35 16.91, 140.19 33.66, 140.98 60.74 M140.82 60.24 C97.98 61.89, 56.51 59.01, -0.88 61.63 M139.67 60.07 C110.37 58.49, 77.92 60.05, -0.67 59.07 M0.86 59.05 C-0.9 37.21, -1.8 14.73, -0.68 0.96 M-0.24 60.02 C-1.07 47.28, 0.63 34.09, 0.25 -0.79" stroke="#000000" stroke-width="1" fill="none"></path></g><g transform="translate(829.7487156219779 62.7732063279077) rotate(0 62.399925231933594 25)"><text x="62.399925231933594" y="0" font-family="Virgil, Segoe UI Emoji" font-size="20px" fill="#1e1e1e" text-anchor="middle" style="white-space: pre;" direction="ltr" dominant-baseline="text-before-edge">Reservation </text><text x="62.399925231933594" y="25" font-family="Virgil, Segoe UI Emoji" font-size="20px" fill="#1e1e1e" text-anchor="middle" style="white-space: pre;" direction="ltr" dominant-baseline="text-before-edge">Manager</text></g><g stroke-linecap="round" transform="translate(1280.9281818695365 66.7732063279077) rotate(0 70.220458984375 30)"><path d="M-0.16 -0.76 C53.95 -1.16, 107.86 -0.54, 141.28 -1.91 M-0.68 0.62 C55.48 -0.27, 110.39 -0.06, 141.06 -0.27 M141.76 0.42 C140.78 12.99, 139.79 29.13, 141.72 58.09 M139.79 0.72 C141.29 15.28, 140.67 28.35, 140.84 60.19 M138.55 58.45 C95.74 62.56, 51.19 61.77, -0.96 58.46 M139.65 60.72 C96.66 57.89, 55.15 58.6, 0.93 60.43 M-1.94 61.96 C-0.37 45.81, -1.21 30.14, -0.54 -0.49 M0.76 60.94 C0.8 41.08, 0.49 23.9, -0.61 -0.58" stroke="#000000" stroke-width="1" fill="none"></path></g><g transform="translate(1287.2587024994193 71.7732063279077) rotate(0 63.88993835449219 25)"><text x="63.88993835449219" y="0" font-family="Virgil, Segoe UI Emoji" font-size="20px" fill="#1e1e1e" text-anchor="middle" style="white-space: pre;" direction="ltr" dominant-baseline="text-before-edge">Monolith DB </text><text x="63.88993835449219" y="25" font-family="Virgil, Segoe UI Emoji" font-size="20px" fill="#1e1e1e" text-anchor="middle" style="white-space: pre;" direction="ltr" dominant-baseline="text-before-edge">(sharded)</text></g><g stroke-linecap="round" transform="translate(1073.9281818695365 54.7732063279077) rotate(0 70.220458984375 30)"><path d="M-1.53 0.56 C37.6 -1.87, 75.46 2.04, 139.56 -1.36 M-0.96 -0.68 C51.52 0.98, 101.13 1.01, 139.72 0.66 M139.93 1.31 C141.86 17.35, 139.43 39.54, 141.34 58.71 M140.36 -0.73 C141.16 22.53, 140.89 43.96, 141.1 59.05 M138.84 60.84 C108.21 59.6, 78.04 62.72, -1.68 58.41 M141.38 59.78 C89.18 59.12, 35.59 58.17, 0.41 59.03 M-1.52 60.44 C-0.33 35.62, 0.25 10.35, 1.42 1.52 M-0.07 60.15 C-0.76 35.77, -0.56 13.11, -0.96 -0.86" stroke="#000000" stroke-width="1" fill="none"></path></g><g transform="translate(1090.0386936493217 59.7732063279077) rotate(0 54.109947204589844 25)"><text x="54.109947204589844" y="0" font-family="Virgil, Segoe UI Emoji" font-size="20px" fill="#1e1e1e" text-anchor="middle" style="white-space: pre;" direction="ltr" dominant-baseline="text-before-edge">In Memory </text><text x="54.109947204589844" y="25" font-family="Virgil, Segoe UI Emoji" font-size="20px" fill="#1e1e1e" text-anchor="middle" style="white-space: pre;" direction="ltr" dominant-baseline="text-before-edge">DB</text></g><g mask="url(#mask-XU3Tcl0MEUT9eCVSHzYkZ)" stroke-linecap="round"><g transform="translate(11.148640853911616 206.90656608404197) rotate(0 140.52531364485623 0.314950854331272)"><path d="M-1.15 1.16 C45.83 0.99, 235.31 -0.46, 282.2 -0.53 M0.45 0.72 C47.34 0.66, 234.85 1.05, 281.88 0.73" stroke="#1e1e1e" stroke-width="1" fill="none"></path></g><g transform="translate(11.148640853911616 206.90656608404197) rotate(0 140.52531364485623 0.314950854331272)"><path d="M255.64 13.04 C262.03 6.57, 273.4 4.15, 280.1 -1.2 M253.03 10.81 C259.47 9.38, 266.95 6.57, 281.42 0.48" stroke="#1e1e1e" stroke-width="1" fill="none"></path></g><g transform="translate(11.148640853911616 206.90656608404197) rotate(0 140.52531364485623 0.314950854331272)"><path d="M255.6 -7.48 C262.09 -7.22, 273.47 -2.91, 280.1 -1.2 M252.99 -9.71 C259.57 -6.37, 267.06 -4.42, 281.42 0.48" stroke="#1e1e1e" stroke-width="1" fill="none"></path></g></g><mask id="mask-XU3Tcl0MEUT9eCVSHzYkZ"><rect x="0" y="0" fill="#fff" width="392.1486408539116" height="306.90656608404197"></rect><rect x="94.24870799258349" y="181.90656608404197" fill="#000" width="114.79986572265625" height="50" opacity="1"></rect></mask><g transform="translate(94.24870799258349 181.90656608404197) rotate(0 57.42524650618435 25.314950854331272)"><text x="57.399932861328125" y="0" font-family="Virgil, Segoe UI Emoji" font-size="20px" fill="#1e1e1e" text-anchor="middle" style="white-space: pre;" direction="ltr" dominant-baseline="text-before-edge">CRUD </text><text x="57.399932861328125" y="25" font-family="Virgil, Segoe UI Emoji" font-size="20px" fill="#1e1e1e" text-anchor="middle" style="white-space: pre;" direction="ltr" dominant-baseline="text-before-edge">Reservation</text></g><g stroke-linecap="round"><g transform="translate(314.14864085391173 245.90656608404197) rotate(0 116.47371800467369 -0.4114387017343972)"><path d="M-0.81 0.75 C37.95 0.58, 194.82 -1.23, 233.76 -1.57 M0.96 0.1 C39.44 0.08, 193.66 -0.51, 232.69 -0.6" stroke="#1e1e1e" stroke-width="1" fill="none"></path></g><g transform="translate(314.14864085391173 245.90656608404197) rotate(0 116.47371800467369 -0.4114387017343972)"><path d="M205.78 9.35 C214.06 3.88, 225.75 2.9, 232.14 -1.96 M204.74 9.99 C211.93 6.45, 220.82 4.49, 231.74 -1.17" stroke="#1e1e1e" stroke-width="1" fill="none"></path></g><g transform="translate(314.14864085391173 245.90656608404197) rotate(0 116.47371800467369 -0.4114387017343972)"><path d="M205.72 -11.17 C213.93 -8.44, 225.64 -1.21, 232.14 -1.96 M204.67 -10.53 C211.73 -8.4, 220.65 -4.69, 231.74 -1.17" stroke="#1e1e1e" stroke-width="1" fill="none"></path></g></g><mask></mask><g stroke-linecap="round"><g transform="translate(584.1486408539116 289.8475048248813) rotate(0 146.06168681710028 -3.7487596061454838)"><path d="M-0.24 -1.07 C48.54 -2.61, 242.85 -7.33, 291.84 -8.49 M-1.82 0.99 C47.37 -0.48, 244.75 -6.07, 293.95 -7.37" stroke="#1e1e1e" stroke-width="1" fill="none"></path></g><g transform="translate(584.1486408539116 289.8475048248813) rotate(0 146.06168681710028 -3.7487596061454838)"><path d="M264.27 1.73 C271.11 2.39, 278.39 -2.77, 293.47 -8.81 M265.59 3.4 C276.89 0.2, 285.48 -5.06, 294.46 -6.93" stroke="#1e1e1e" stroke-width="1" fill="none"></path></g><g transform="translate(584.1486408539116 289.8475048248813) rotate(0 146.06168681710028 -3.7487596061454838)"><path d="M263.71 -18.78 C270.8 -13.36, 278.22 -13.76, 293.47 -8.81 M265.03 -17.11 C276.57 -12.82, 285.37 -10.56, 294.46 -6.93" stroke="#1e1e1e" stroke-width="1" fill="none"></path></g></g><mask></mask><g stroke-linecap="round"><g transform="translate(892.1486408539115 283.90656608404197) rotate(0 119.29089372679596 -1.7593257393315014)"><path d="M-1.16 -0.81 C38.84 -1.45, 199.85 -4.22, 239.74 -4.9 M0.44 1.38 C40.36 1.01, 199.14 -2.69, 239.18 -3.53" stroke="#1e1e1e" stroke-width="1" fill="none"></path></g><g transform="translate(892.1486408539115 283.90656608404197) rotate(0 119.29089372679596 -1.7593257393315014)"><path d="M209.87 8.58 C218.61 3.21, 226.51 0.09, 240.5 -3.11 M211.88 7.99 C219.37 3.32, 229.9 0.82, 238.53 -2.81" stroke="#1e1e1e" stroke-width="1" fill="none"></path></g><g transform="translate(892.1486408539115 283.90656608404197) rotate(0 119.29089372679596 -1.7593257393315014)"><path d="M209.42 -11.93 C218.1 -11.56, 226.13 -8.93, 240.5 -3.11 M211.43 -12.53 C218.97 -10.55, 229.64 -6.4, 238.53 -2.81" stroke="#1e1e1e" stroke-width="1" fill="none"></path></g></g><mask></mask><g stroke-linecap="round"><g transform="translate(892.1486408539115 367.33579670438985) rotate(0 222.56585445611745 -0.8287432418061798)"><path d="M0.74 -0.33 C74.8 -0.44, 369.45 -1.49, 443.18 -1.51 M-0.33 -1.54 C74.21 -1.41, 371.14 0.01, 445.46 -0.12" stroke="#1e1e1e" stroke-width="1" fill="none"></path></g><g transform="translate(892.1486408539115 367.33579670438985) rotate(0 222.56585445611745 -0.8287432418061798)"><path d="M416.71 8.72 C422.59 6.4, 430.12 6.17, 445.94 -1.04 M416.3 9.51 C425.44 7.55, 432.02 5.02, 446 0.62" stroke="#1e1e1e" stroke-width="1" fill="none"></path></g><g transform="translate(892.1486408539115 367.33579670438985) rotate(0 222.56585445611745 -0.8287432418061798)"><path d="M416.75 -11.8 C422.48 -9.95, 430.01 -5.99, 445.94 -1.04 M416.34 -11.01 C425.61 -7.34, 432.18 -4.23, 446 0.62" stroke="#1e1e1e" stroke-width="1" fill="none"></path></g></g><mask></mask><g stroke-linecap="round"><g transform="translate(579.1486408539115 474.33579670438985) rotate(0 482.846044396977 -3.2738788243623986)"><path d="M-0.82 -0.28 C159.77 -0.99, 803.22 -3.76, 964.25 -4.56 M0.95 -1.48 C161.85 -2.49, 805.88 -5.91, 966.51 -6.26" stroke="#1e1e1e" stroke-width="1" fill="none"></path></g><g transform="translate(579.1486408539115 474.33579670438985) rotate(0 482.846044396977 -3.2738788243623986)"><path d="M937.89 2.67 C949.89 0.97, 959.23 -4.12, 966 -4.95 M938.88 4.56 C948.06 1.22, 959.49 -2.54, 966.43 -6.99" stroke="#1e1e1e" stroke-width="1" fill="none"></path></g><g transform="translate(579.1486408539115 474.33579670438985) rotate(0 482.846044396977 -3.2738788243623986)"><path d="M937.81 -17.85 C949.78 -12.13, 959.15 -9.79, 966 -4.95 M938.79 -15.96 C947.81 -11.83, 959.27 -8.12, 966.43 -6.99" stroke="#1e1e1e" stroke-width="1" fill="none"></path></g></g><mask></mask><g stroke-linecap="round"><g transform="translate(1324.2762807606425 16.03481469474309) rotate(0 20.79114316969492 22.1964133643055)" fill-rule="evenodd"><path d="M1.87 0.86 L-1 44.48 L2.98 45.48 L11.59 48.44 L23.22 48.12 L34.77 48.26 L40.25 46.82 L39.91 46.9 L43.24 1.27 L37.07 -4.4 L20.09 -3.99 L4.1 -3.97 L-0.82 0.81" stroke="none" stroke-width="0" fill="#b2f2bb" fill-rule="evenodd"></path><path d="M-0.86 0.79 C-0.66 7.68, 0.34 33.67, 0.39 41.06 C0.44 48.44, -0.97 43.92, -0.54 45.11 C-0.12 46.29, 1.44 47.63, 2.94 48.18 C4.45 48.74, 5.16 48.09, 8.48 48.42 C11.81 48.76, 18.7 49.97, 22.88 50.18 C27.05 50.39, 30.47 50.09, 33.55 49.67 C36.64 49.25, 40.06 48.58, 41.39 47.67 C42.72 46.76, 41.41 45.22, 41.55 44.2 C41.7 43.19, 42.21 48.51, 42.25 41.57 C42.3 34.63, 41.82 9.7, 41.82 2.55 C41.82 -4.59, 42.91 -0.42, 42.25 -1.3 C41.58 -2.17, 39.2 -2.19, 37.84 -2.69 C36.48 -3.19, 36.94 -3.92, 34.09 -4.29 C31.24 -4.65, 24.92 -4.98, 20.74 -4.87 C16.56 -4.76, 11.99 -3.99, 8.99 -3.64 C5.98 -3.28, 4.4 -3.5, 2.74 -2.75 C1.08 -2.01, -0.39 0.56, -0.98 0.83 C-1.57 1.11, -1.16 -0.93, -0.81 -1.12 M0.89 0.16 C1.02 6.69, -0.01 31.4, -0.43 39.09 C-0.84 46.77, -2.27 45.1, -1.6 46.26 C-0.92 47.42, 1.66 45.67, 3.6 46.03 C5.55 46.4, 7.18 47.89, 10.07 48.45 C12.96 49.02, 17 49.37, 20.95 49.42 C24.9 49.48, 30.5 49.05, 33.79 48.78 C37.08 48.51, 39.7 48.25, 40.7 47.79 C41.71 47.34, 39.4 47.11, 39.83 46.02 C40.26 44.93, 42.87 48.39, 43.27 41.23 C43.67 34.08, 42.55 9.73, 42.21 3.09 C41.88 -3.56, 42.02 2.49, 41.25 1.34 C40.48 0.2, 38.81 -2.74, 37.58 -3.79 C36.35 -4.85, 36.6 -4.66, 33.9 -4.99 C31.19 -5.31, 25.39 -6.17, 21.33 -5.73 C17.27 -5.29, 12.76 -2.87, 9.53 -2.34 C6.31 -1.81, 3.42 -3.2, 1.98 -2.53 C0.54 -1.87, 1.05 1.47, 0.9 1.65 C0.74 1.83, 1.43 -1.42, 1.04 -1.45" stroke="#000000" stroke-width="1" fill="none"></path></g></g><mask></mask><g stroke-linecap="round" transform="translate(1324.4244578368 11.157679381146863) rotate(0 20.764001921640215 4.1993631746511255)"><path d="M19.42 -0.41 C23.67 -0.55, 30.46 -0.69, 33.92 -0.07 C37.39 0.55, 39.5 2.17, 40.21 3.32 C40.91 4.47, 40.14 6.14, 38.16 6.82 C36.18 7.49, 32.31 7.07, 28.34 7.39 C24.38 7.72, 18.53 9, 14.38 8.76 C10.23 8.53, 5.85 6.83, 3.45 5.98 C1.05 5.13, -0.44 4.37, 0 3.67 C0.44 2.97, 2.62 2.53, 6.09 1.8 C9.56 1.06, 17.94 -0.56, 20.8 -0.74 C23.66 -0.91, 23.36 0.68, 23.26 0.75 M29.41 1.27 C33.56 1.66, 37.24 3.26, 39.29 3.68 C41.34 4.11, 42.67 3.25, 41.72 3.81 C40.76 4.38, 37.19 6.12, 33.56 7.08 C29.93 8.03, 24.41 9.28, 19.94 9.53 C15.47 9.78, 9.92 9.44, 6.75 8.58 C3.58 7.73, 1.23 5.69, 0.93 4.41 C0.63 3.13, 2.49 1.58, 4.95 0.89 C7.41 0.2, 11.77 0.29, 15.7 0.28 C19.64 0.26, 26.2 0.58, 28.56 0.79 C30.92 1.01, 30.03 1.69, 29.85 1.57" stroke="none" stroke-width="0" fill="#b2f2bb"></path><path d="M16.69 -0.84 C20.7 -1.11, 25.64 0.51, 29.58 0.97 C33.52 1.43, 38.35 1.07, 40.31 1.9 C42.27 2.74, 42.6 5, 41.36 5.96 C40.11 6.91, 36.81 7.17, 32.84 7.64 C28.88 8.11, 22.05 8.84, 17.54 8.77 C13.03 8.69, 8.83 7.8, 5.79 7.19 C2.75 6.58, -0.26 6.14, -0.69 5.09 C-1.12 4.04, -0.12 1.62, 3.21 0.9 C6.54 0.19, 16.05 0.88, 19.28 0.82 C22.5 0.76, 22.54 0.73, 22.55 0.54 M20.3 1.08 C24.16 1.03, 29.91 -0.69, 33.65 -0.32 C37.39 0.05, 41.71 2.05, 42.73 3.28 C43.75 4.51, 42.48 6.38, 39.77 7.07 C37.06 7.76, 30.83 7.49, 26.47 7.42 C22.11 7.34, 17.37 6.93, 13.61 6.64 C9.85 6.35, 5.98 6.4, 3.9 5.66 C1.83 4.92, 0.44 3.05, 1.18 2.18 C1.91 1.32, 4.99 0.85, 8.31 0.49 C11.64 0.13, 19.16 -0.08, 21.12 0.03 C23.08 0.15, 19.84 0.85, 20.07 1.15" stroke="#000000" stroke-width="1" fill="none"></path></g><g stroke-linecap="round"><g transform="translate(1352.5360309906303 459.3396736130637) rotate(0 0.6709260039031051 18.05054310038686)"><path d="M-0.55 -0.31 C-0.28 5.71, 1.81 30.53, 1.89 36.41" stroke="#000000" stroke-width="1.5" fill="none" stroke-dasharray="8 9"></path></g></g><mask></mask><g stroke-linecap="round"><g transform="translate(1532.252830041741 63.83186741448469) rotate(89.99999999999994 11.201207839432868 27.548657153883454)"><path d="M0.79 0.77 C0.7 8.79, -1.04 38.86, -1.07 47.83 C-1.1 56.8, 0.38 53, 0.62 54.58 C0.86 56.16, -0.5 56.51, 0.34 57.3 C1.18 58.09, 3.8 59.19, 5.65 59.34 C7.51 59.49, 9.37 58.38, 11.48 58.2 C13.59 58.03, 16.69 58.87, 18.33 58.3 C19.97 57.74, 20.64 55.77, 21.33 54.81 C22.01 53.84, 22.54 53.54, 22.45 52.52 C22.36 51.49, 20.76 56.91, 20.79 48.68 C20.82 40.44, 22.43 11.35, 22.64 3.11 C22.85 -5.13, 22.62 0.17, 22.05 -0.77 C21.49 -1.7, 19.88 -1.79, 19.23 -2.49 C18.58 -3.19, 19.77 -4.67, 18.16 -4.96 C16.55 -5.26, 11.87 -4.16, 9.57 -4.26 C7.26 -4.36, 5.6 -5.86, 4.34 -5.54 C3.09 -5.22, 2.59 -3.35, 2.05 -2.35 C1.51 -1.34, 1.55 0.2, 1.11 0.49 C0.67 0.78, -0.47 -0.35, -0.57 -0.62 M-0.26 0.12 C0.06 8.32, 0.97 40.27, 1.04 49 C1.11 57.74, 0.32 51.49, 0.18 52.52 C0.04 53.55, -0.54 53.92, 0.18 55.2 C0.9 56.48, 2.41 59.34, 4.52 60.2 C6.63 61.06, 10.39 60.89, 12.84 60.36 C15.29 59.84, 17.96 58.13, 19.22 57.07 C20.48 56.02, 20.05 54.49, 20.38 54.01 C20.71 53.53, 21.08 55.21, 21.2 54.2 C21.31 53.18, 20.69 56.38, 21.07 47.95 C21.45 39.51, 23.5 11.83, 23.47 3.59 C23.45 -4.65, 21.66 -0.35, 20.91 -1.49 C20.16 -2.63, 19.47 -2.57, 18.97 -3.27 C18.48 -3.97, 19.55 -5.5, 17.96 -5.68 C16.36 -5.87, 11.56 -4.5, 9.39 -4.37 C7.23 -4.23, 6.29 -5.32, 4.96 -4.88 C3.62 -4.44, 2.15 -2.74, 1.39 -1.74 C0.63 -0.74, 0.41 0.95, 0.41 1.13 C0.41 1.3, 1.27 -0.52, 1.4 -0.69" stroke="#1e1e1e" stroke-width="1" fill="none"></path></g></g><mask></mask><g stroke-linecap="round"><g transform="translate(1522.0654113593262 88.38101176895441) rotate(89.99999999999994 10.361192042435846 2.226865153064466)"><path d="M-1.14 -0.69 C-1.08 -0.38, 0.62 1.73, 1.17 2.64 C1.72 3.54, 1.24 4.2, 2.17 4.73 C3.11 5.26, 5.3 5.92, 6.78 5.82 C8.26 5.73, 9.25 4.36, 11.03 4.16 C12.8 3.95, 15.85 5.1, 17.42 4.58 C19 4.05, 19.75 2, 20.49 1.01 C21.23 0.02, 21.92 -1.08, 21.86 -1.38 M0.46 1.56 C0.35 1.44, -0.15 0.58, 0.55 0.8 C1.25 1.01, 3.52 2.36, 4.66 2.85 C5.79 3.34, 6.56 3.53, 7.37 3.73 C8.18 3.94, 8.16 4.1, 9.51 4.09 C10.85 4.07, 13.48 3.86, 15.43 3.65 C17.38 3.45, 20.24 3.26, 21.21 2.87 C22.18 2.49, 21.18 1.62, 21.25 1.35" stroke="#1e1e1e" stroke-width="1" fill="none"></path></g></g><mask></mask><g stroke-linecap="round"><g transform="translate(1540.9329332014497 88.52185020564241) rotate(89.99999999999994 10.85291806974817 1.8430266471050913)"><path d="M0.62 0.54 C0.77 1.08, -0.72 1.98, -0.22 2.55 C0.27 3.13, 2.55 3.9, 3.59 3.99 C4.63 4.07, 4.69 3.03, 6.02 3.08 C7.35 3.12, 9.73 4.33, 11.57 4.26 C13.41 4.18, 15.46 3.27, 17.04 2.62 C18.63 1.97, 20.58 0.93, 21.08 0.37 C21.59 -0.19, 19.93 -0.47, 20.08 -0.72 M-0.52 -0.23 C0.12 0.04, 1.47 0.5, 2.08 0.89 C2.69 1.28, 2.47 1.64, 3.16 2.11 C3.85 2.58, 5.02 3.28, 6.22 3.72 C7.42 4.17, 8.3 4.59, 10.35 4.77 C12.4 4.94, 17.17 5.23, 18.53 4.79 C19.89 4.34, 17.87 3.11, 18.49 2.09 C19.1 1.07, 21.83 -1.09, 22.22 -1.34" stroke="#1e1e1e" stroke-width="1" fill="none"></path></g></g><mask></mask><g stroke-linecap="round" transform="translate(1560.290147382181 86.09073511875579) rotate(89.99999999999994 10.649142245960547 4.73437949947629)"><path d="M12.76 0.57 C14.79 0.8, 18.31 1.29, 19.61 2.17 C20.9 3.05, 20.93 4.99, 20.53 5.85 C20.12 6.71, 18.75 6.6, 17.17 7.34 C15.59 8.07, 13.3 9.99, 11.05 10.27 C8.8 10.55, 5.53 9.86, 3.67 9.01 C1.8 8.16, 0.29 6.07, -0.14 5.15 C-0.56 4.23, 0.18 4.41, 1.1 3.49 C2.02 2.57, 2.94 0.26, 5.39 -0.37 C7.83 -0.99, 14.09 -0.61, 15.77 -0.25 C17.45 0.11, 15.7 1.46, 15.47 1.8 M13.55 -1.34 C16.06 -1.15, 19.15 0.48, 20.56 1.33 C21.97 2.19, 22.3 2.76, 22.01 3.79 C21.73 4.82, 20.57 6.58, 18.85 7.52 C17.13 8.47, 14.25 9.08, 11.7 9.46 C9.15 9.84, 5.22 10.11, 3.55 9.8 C1.87 9.49, 2.04 8.92, 1.64 7.58 C1.24 6.24, 0.51 2.88, 1.17 1.74 C1.83 0.61, 3.79 1.19, 5.6 0.77 C7.41 0.35, 10.9 -0.77, 12.02 -0.77 C13.13 -0.76, 12.4 0.81, 12.27 0.81" stroke="#1e1e1e" stroke-width="1" fill="none"></path></g><g transform="translate(1506.2474791222899 10) rotate(0 36.219970703125 12.5)"><text x="0" y="0" font-family="Virgil, Segoe UI Emoji" font-size="20px" fill="#1e1e1e" text-anchor="start" style="white-space: pre;" direction="ltr" dominant-baseline="text-before-edge">TOPIC:</text></g><g transform="translate(1498.9574934655516 45) rotate(0 43.50995635986328 12.5)"><text x="0" y="0" font-family="Virgil, Segoe UI Emoji" font-size="20px" fill="#1e1e1e" text-anchor="start" style="white-space: pre;" direction="ltr" dominant-baseline="text-before-edge">Analytics</text></g></svg>