<svg version="1.1" xmlns="http://www.w3.org/2000/svg" viewBox="0 0 2050.44091796875 901.9835591813548" width="2050.44091796875" height="901.9835591813548">
  <!-- svg-source:excalidraw -->
  
  <defs>
    <style class="style-fonts">
      @font-face {
        font-family: "Virgil";
        src: url("https://excalidraw.com/Virgil.woff2");
      }
      @font-face {
        font-family: "Cascadia";
        src: url("https://excalidraw.com/Cascadia.woff2");
      }
    </style>
    
  </defs>
  <rect x="0" y="0" width="2050.44091796875" height="901.9835591813548" fill="#ffffff"></rect><g stroke-linecap="round" transform="translate(76.23963478437736 223.8193157585339) rotate(0 11.8234949450856 9.169014898596668)"><path d="M13.59 -0.81 C16.03 -0.64, 18.03 0.91, 19.76 2.56 C21.49 4.21, 23.69 7.08, 24 9.08 C24.3 11.07, 23.25 13.06, 21.61 14.53 C19.98 16.01, 16.57 17.34, 14.19 17.9 C11.8 18.46, 9.61 18.87, 7.31 17.91 C5 16.95, 1.41 14.1, 0.35 12.14 C-0.71 10.18, 0.19 8.03, 0.95 6.15 C1.71 4.26, 2.85 1.79, 4.91 0.82 C6.98 -0.15, 11.74 0.37, 13.33 0.34 C14.91 0.32, 14.22 0.53, 14.43 0.68 M5.9 0.21 C7.99 -0.7, 13.34 -0.69, 15.83 0 C18.32 0.69, 19.56 2.84, 20.83 4.36 C22.1 5.87, 23.7 7.4, 23.46 9.09 C23.22 10.78, 21.09 13.01, 19.4 14.49 C17.71 15.98, 15.72 17.54, 13.32 17.99 C10.93 18.45, 7.21 18.4, 5.04 17.23 C2.87 16.05, 0.81 12.74, 0.31 10.94 C-0.19 9.14, 0.98 8.13, 2.05 6.43 C3.13 4.74, 5.83 1.86, 6.76 0.75 C7.7 -0.35, 7.62 -0.6, 7.68 -0.2" stroke="#000000" stroke-width="1" fill="none"></path></g><g stroke-linecap="round"><g transform="translate(88.17158576790257 242.913985317428) rotate(0 0.7216690605912959 27.349169253474003)"><path d="M0.21 -0.7 C0.25 8.64, 0.38 46.28, 0.41 55.4 M-1.14 1.54 C-0.75 10.62, 1.92 44.82, 2.58 53.74" stroke="#000000" stroke-width="1" fill="none"></path></g></g><mask></mask><g stroke-linecap="round"><g transform="translate(62.73998597270838 253.75897020499463) rotate(0 26.55368263685415 -0.23959687874175373)"><path d="M-1.04 0.87 C7.59 0.76, 42.99 -1.14, 51.97 -1.35 M0.61 0.28 C9.58 0.39, 45.59 0.37, 54.15 -0.08" stroke="#000000" stroke-width="1" fill="none"></path></g></g><mask></mask><g stroke-linecap="round"><g transform="translate(67.4887136564007 317.3299807981889) rotate(0 10.10062601578602 -9.736546882230975)"><path d="M-1.02 -0.52 C2.69 -3.9, 17.35 -16.21, 21.22 -19.42 M0.65 1.82 C4.27 -2, 16.65 -17.93, 20.19 -21.29" stroke="#000000" stroke-width="1" fill="none"></path></g></g><mask></mask><g stroke-linecap="round"><g transform="translate(90.16177576958285 297.1711031213482) rotate(0 9.335292349007602 9.883689945676402)"><path d="M-0.16 0.47 C3.41 3.64, 17.07 15.64, 20.37 18.49 M-1.7 -0.33 C1.87 3.1, 16.42 16.97, 19.86 20.09" stroke="#000000" stroke-width="1" fill="none"></path></g></g><mask></mask><g stroke-linecap="round" transform="translate(414.55487060546875 213.397035751678) rotate(0 7.8114013671875 122.70867919921875)"><path d="M-1.35 -0.79 C6.3 1.37, 11.11 -1.33, 16.21 -0.3 M-0.75 -0.3 C3.34 0.78, 6.83 0.66, 15.79 0.27 M14.28 -1.46 C14.41 67.91, 15.22 136.74, 14.17 244.37 M16.35 -0.72 C14.3 90.23, 14.79 179.39, 14.99 244.81 M16.28 243.98 C10.32 246.38, 8.09 245.18, 1.38 245.17 M14.87 246.19 C9.65 245.12, 4.29 245.29, 0.63 246.18 M-0.9 246.72 C-2.23 179.87, -2.69 115.03, 0.46 0 M-0.07 244.79 C0.12 174.74, 1.16 106.27, 0.71 -0.51" stroke="#000000" stroke-width="1" fill="none"></path></g><g stroke-linecap="round" transform="translate(667.5548706054688 210.397035751678) rotate(0 9.3114013671875 165.20867919921875)"><path d="M0.88 1.83 C5.84 -0.01, 9.11 0.34, 18.56 0.03 M0.39 -0.22 C4.69 0.6, 9.99 0.75, 18.22 0.47 M18.27 1.32 C21.15 114.13, 20.35 229.02, 18.17 329.22 M18.4 -0.57 C16.23 74.4, 16.85 149.95, 18.29 330.88 M19.9 331.94 C11.6 329.58, 6.55 330.75, -0.13 330.54 M17.72 329.99 C15.6 330.22, 11.79 331.09, 0.91 330.81 M0.2 330.43 C1.75 260.16, 0.69 191.88, 0.52 -0.79 M-0.35 330.21 C0.37 241.94, 1 152.33, -0.52 -0.59" stroke="#000000" stroke-width="1" fill="none"></path></g><g stroke-linecap="round" transform="translate(1256.5548706054688 387.397035751678) rotate(0 8.3114013671875 44.708679199218736)"><path d="M1.61 -1.59 C3.16 -0.21, 7.1 0.57, 18.18 1.57 M-0.45 -0.77 C5.61 0.45, 12.26 0.42, 16.03 0.23 M15.43 1.04 C15.11 29.03, 17.29 60.13, 17.57 88.73 M15.94 0.21 C15.09 27.67, 14.9 53.52, 16 88.42 M15.82 88.13 C11.18 89.6, 8.37 90.44, 0.56 88.07 M16.12 88.8 C10.56 88.59, 5.33 88.99, 0.74 89.25 M-1.01 87.52 C0.01 65.27, -2.3 43.94, 1.32 -0.23 M-0.96 89.13 C-0.58 59.05, -0.19 30.5, -0.24 -0.07" stroke="#000000" stroke-width="1" fill="none"></path></g><g stroke-linecap="round" transform="translate(1454.5548706054688 407.397035751678) rotate(0 9.3114013671875 30.208679199218736)"><path d="M-1.3 -0.37 C6.43 -0.86, 8.57 -1.05, 18.55 0.4 M0.06 0.63 C6.64 -0.16, 12.98 0.02, 19.21 0.77 M20.5 1.6 C19.8 15.46, 19.15 27.1, 20.27 58.67 M17.84 -0.06 C19.34 22.52, 18.3 44.73, 18.06 61.26 M19.99 62.1 C13.15 59.65, 8.92 61.18, -0.86 61.81 M18.19 61.01 C14.5 60.09, 9.63 60.76, -0.12 60.82 M1.97 58.55 C1.07 47.32, -0.54 34.52, 1.13 -0.49 M-0.09 60.23 C0.96 44.6, 0.54 27.78, -0.35 0.63" stroke="#000000" stroke-width="1" fill="none"></path></g><g stroke-linecap="round" transform="translate(63.55487060546875 628.397035751678) rotate(0 7.8114013671875 99.20867919921875)"><path d="M-0.74 1.44 C6.75 -0.38, 10.53 0.93, 17.04 -1.34 M-0.68 0.36 C4.37 -0.33, 7.67 -0.12, 16.31 0.17 M14.67 -1.86 C15.35 53.05, 13.26 108.42, 16.12 199.27 M15.83 -0.5 C16.7 51.07, 16.48 103.6, 16.03 197.83 M16.75 197.47 C12.12 199.07, 7.33 198.74, 1.42 199.59 M15.64 198.99 C11.94 198.87, 6.65 198.36, 0.19 198.61 M1.63 197.74 C-0.25 134.06, -0.05 69.44, -1.14 -1.16 M-0.68 198.05 C-1.32 129.58, -0.47 59.66, -0.02 0.22" stroke="#000000" stroke-width="1" fill="none"></path></g><g stroke-linecap="round" transform="translate(1674.5548706054688 380.397035751678) rotate(0 8.3114013671875 44.708679199218736)"><path d="M-1.15 -0.83 C3.38 1.55, 7.56 1.58, 16.22 -0.36 M-0.28 -0.14 C3.31 0.04, 7.37 0.89, 16.17 0.41 M15.6 0.67 C14.97 25.01, 17.6 46.24, 14.84 90.16 M16.26 0.65 C16.16 32.55, 15.42 65.41, 16.39 89.49 M16.46 90.11 C9.7 90.59, 3.79 90.22, -1.45 90.44 M16.58 90.04 C10.98 89.54, 4.45 88.73, -0.46 89.07 M-1.34 90.5 C-0.67 64.93, 0.86 39.57, -1.22 -0.25 M0.8 90 C-0.37 58.17, -0.44 28.94, 0.6 -0.56" stroke="#000000" stroke-width="1" fill="none"></path></g><g stroke-linecap="round" transform="translate(1963.5548706054688 738.397035751678) rotate(0 8.3114013671875 44.70867919921875)"><path d="M-0.84 0.91 C6.1 -1.18, 8.76 0.5, 16.05 0.91 M0.6 -0.57 C6.92 -0.21, 11.99 -0.63, 15.94 -0.34 M15.25 0.84 C14.93 24.96, 14.46 54.03, 16.94 88.22 M16.09 -0.64 C15.82 31.43, 17.38 61.16, 16.87 89.91 M15.42 90.22 C13.63 88.42, 8.73 90.73, 0.96 88.77 M17.36 88.76 C12.23 89.55, 7.83 89.9, 0.19 88.62 M-0.73 90.21 C-0.54 55, -0.22 20.73, 0.76 -0.06 M-0.99 89.06 C0.56 56.15, -0.27 23.17, -0.38 0.45" stroke="#000000" stroke-width="1" fill="none"></path></g><g stroke-linecap="round" transform="translate(1681.5548706054688 590.397035751678) rotate(0 8.3114013671875 44.70867919921875)"><path d="M0.45 -1.19 C4.34 -0.56, 9.59 -1.52, 15.6 -0.35 M-0.22 -0.52 C3.85 -0.25, 6.49 -0.34, 16.01 -0.1 M15.46 1.36 C14.8 22.83, 16.56 40.36, 16.89 90.82 M15.98 0.73 C17.68 23.47, 17.65 47.71, 15.74 90.11 M17.83 90.62 C9.5 90.47, 5.87 88.43, -1.64 89.1 M16.21 88.8 C12.78 89.61, 9.74 89.39, -0.37 89 M-1.8 87.91 C-1.22 63.71, 1.69 37.09, 1.58 -0.08 M0.09 89.42 C-0.25 54, -1.18 19, 0.68 0.97" stroke="#000000" stroke-width="1" fill="none"></path></g><g stroke-linecap="round" transform="translate(995.5548706054688 342.39703575167795) rotate(0 6.8114013671875 18.708679199218764)"><path d="M0.57 0.06 C4.03 1.29, 10.09 -0.88, 13.47 1.33 M0.44 -0.68 C4.32 0.47, 7.52 -0.33, 13.1 -0.51 M13.69 -1.82 C12.53 13.08, 13.74 26.11, 11.9 35.87 M13.97 0.64 C14.81 12.39, 13.7 25.98, 12.99 37.32 M14.72 37.39 C10.64 37.54, 6.93 36.41, -0.27 37.11 M13.06 36.89 C9.41 37.69, 4.11 36.99, 0.04 36.82 M1.25 37.19 C-1.7 21.92, -1.16 7.87, -0.23 1.04 M0.29 37.38 C1.04 24.15, 0.14 10.14, -0.47 -0.54" stroke="#000000" stroke-width="1" fill="none"></path></g><g stroke-linecap="round" transform="translate(1003.5548706054688 739.397035751678) rotate(0 6.8114013671875 18.70867919921875)"><path d="M-0.34 1.14 C5.3 -0.95, 8.06 0.86, 14.98 -0.76 M0.28 0.09 C2.97 0.27, 7.34 0.57, 13.2 0.46 M13.86 -0.55 C13.85 12.43, 14.18 29.51, 14.19 36.03 M13.08 0.46 C13.56 12.99, 13.17 28.23, 12.65 37.08 M14.06 38.42 C11.34 38.64, 6.97 38.17, 0.92 37.79 M13.12 37.49 C8.61 36.83, 4.72 37.22, 0.01 37.93 M0.35 37.72 C-0.5 23.19, -0.98 12.08, -0.12 -1.9 M-0.48 37.61 C0.26 23.76, 0.73 9, 0.63 0.83" stroke="#000000" stroke-width="1" fill="none"></path></g><g stroke-linecap="round"><g transform="translate(421.4647216796875 184.074281845428) rotate(0 -0.7346630852669591 15.186493549868464)"><path d="M-0.61 0.8 C-0.74 5.9, -0.47 24.78, -0.86 29.57" stroke="#000000" stroke-width="1.5" fill="none" stroke-dasharray="8 9"></path></g></g><mask></mask><g stroke-linecap="round"><g transform="translate(674.4647216796875 181.074281845428) rotate(0 -0.33139034695923897 15.164844401553273)"><path d="M0.57 1.18 C0.43 5.94, -0.77 24.45, -1.23 29.15" stroke="#000000" stroke-width="1.5" fill="none" stroke-dasharray="8 9"></path></g></g><mask></mask><g stroke-linecap="round"><g transform="translate(1263.4647216796875 202.074281845428) rotate(0 1.4170031767338571 84.86862659044566)"><path d="M1.16 -1.15 C1.31 27.44, 1.56 142.12, 1.68 170.89" stroke="#000000" stroke-width="1.5" fill="none" stroke-dasharray="8 9"></path></g></g><mask></mask><g stroke-linecap="round"><g transform="translate(1462.4647216796875 204.074281845428) rotate(0 1.2449453454464674 97.46505251713099)"><path d="M-0.39 0 C0.28 32.68, 2.12 162.5, 2.88 194.93" stroke="#000000" stroke-width="1.5" fill="none" stroke-dasharray="8 9"></path></g></g><mask></mask><g stroke-linecap="round"><g transform="translate(68.4647216796875 586.074281845428) rotate(0 -1.5089328083338955 153.50648110322652)"><path d="M-0.57 1.1 C-0.58 35.23, 1.04 154.93, 0.53 205.73 C0.01 256.53, -3.26 289.52, -3.65 305.91" stroke="#000000" stroke-width="1.5" fill="none" stroke-dasharray="8 9"></path></g></g><mask></mask><g stroke-linecap="round"><g transform="translate(1681.4647216796875 195.074281845428) rotate(0 0.19537058658897877 85.84186770729723)"><path d="M-0.83 -0.6 C-0.43 28.02, 0.93 143.46, 1.22 172.28" stroke="#000000" stroke-width="1.5" fill="none" stroke-dasharray="8 9"></path></g></g><mask></mask><g stroke-linecap="round"><g transform="translate(1969.4647216796875 598.074281845428) rotate(0 0.8914336163550729 128.50037754587828)"><path d="M-0.37 0.53 C-0.2 43.13, 1.58 213.65, 2.15 256.47" stroke="#000000" stroke-width="1.5" fill="none" stroke-dasharray="8 9"></path></g></g><mask></mask><g stroke-linecap="round"><g transform="translate(1002.4647216796875 189.074281845428) rotate(0 1.1492420393973575 69.6707662206143)"><path d="M0.51 0.05 C0.72 23.19, 1.33 116.4, 1.79 139.29" stroke="#000000" stroke-width="1.5" fill="none" stroke-dasharray="8 9"></path></g></g><mask></mask><g stroke-linecap="round"><g transform="translate(422.60784912109375 461.43310752902175) rotate(0 0.5659192673149391 18.2788447599858)"><path d="M1.04 0.47 C1.16 6.35, 0.11 30.43, 0.08 36.09" stroke="#000000" stroke-width="1.5" fill="none" stroke-dasharray="8 9"></path></g></g><mask></mask><g stroke-linecap="round"><g transform="translate(676.6078491210938 543.4331075290218) rotate(0 1.1785745610359584 18.004858110472554)"><path d="M1.18 0.68 C1.27 6.47, 1.12 29.51, 1.15 35.33" stroke="#000000" stroke-width="1.5" fill="none" stroke-dasharray="8 9"></path></g></g><mask></mask><g stroke-linecap="round"><g transform="translate(1264.6078491210938 479.43310752902175) rotate(0 -0.13128185682001003 17.474898133799428)"><path d="M-1.15 -0.42 C-0.89 5.28, 0.45 29.17, 0.89 35.37" stroke="#000000" stroke-width="1.5" fill="none" stroke-dasharray="8 9"></path></g></g><mask></mask><g stroke-linecap="round"><g transform="translate(1464.6078491210938 471.43310752902175) rotate(0 -0.23486858792603016 17.63980091400444)"><path d="M-0.6 -1.19 C-0.46 4.96, -0.08 30.14, 0.13 36.47" stroke="#000000" stroke-width="1.5" fill="none" stroke-dasharray="8 9"></path></g></g><mask></mask><g stroke-linecap="round"><g transform="translate(1682.6078491210938 472.43310752902175) rotate(0 0.8419592600315582 16.796849675849103)"><path d="M-0.6 -0.88 C-0.31 5.01, 1.8 28.43, 2.28 34.47" stroke="#000000" stroke-width="1.5" fill="none" stroke-dasharray="8 9"></path></g></g><mask></mask><g stroke-linecap="round"><g transform="translate(1004.6078491210938 387.43310752902175) rotate(0 2.67085777334869 228.25698600597678)"><path d="M0.05 -0.3 C0.86 75.75, 4.74 380.85, 5.29 456.82" stroke="#000000" stroke-width="1.5" fill="none" stroke-dasharray="8 9"></path></g></g><mask></mask><g stroke-linecap="round" transform="translate(357 137.8666402438655) rotate(0 70.220458984375 30)"><path d="M0.75 -0.39 C52.38 -0.72, 107.12 -0.73, 139.66 0.5 M0.21 0.35 C53.72 -1.34, 107.62 -1.78, 139.55 -0.28 M138.68 -1.27 C141.85 16.21, 140.35 36.99, 138.71 60.26 M139.67 -0.74 C140.34 23.69, 140.6 48.34, 139.52 59.07 M142.2 59.68 C90.91 58.84, 37.56 57.9, 1.98 60.05 M141.24 60.98 C102.64 60.54, 65.15 59.29, 0.79 59.51 M0.56 60 C0.16 44.19, 0.2 29.81, -1.53 -1.68 M0.87 59.38 C-0.18 47.84, -0.94 36.21, -0.22 0.14" stroke="#000000" stroke-width="1" fill="none"></path></g><g transform="translate(362.2305374145508 142.8666402438655) rotate(0 64.98992156982422 25)"><text x="64.98992156982422" y="0" font-family="Virgil, Segoe UI Emoji" font-size="20px" fill="#1e1e1e" text-anchor="middle" style="white-space: pre;" direction="ltr" dominant-baseline="text-before-edge">Mobile App / </text><text x="64.98992156982422" y="25" font-family="Virgil, Segoe UI Emoji" font-size="20px" fill="#1e1e1e" text-anchor="middle" style="white-space: pre;" direction="ltr" dominant-baseline="text-before-edge">GUI</text></g><g stroke-linecap="round" transform="translate(610 134.8666402438655) rotate(0 70.22045898437499 30)"><path d="M0.08 -0.51 C49.21 -0.86, 97.53 -1.76, 138.53 0.49 M0.69 0.66 C48.94 -0.45, 96.68 0.46, 140.98 -0.98 M139.5 0.76 C140.25 15.78, 139.27 31.42, 138.91 61.16 M139.46 -0.06 C139.65 15.58, 140.63 32.64, 140.86 59.61 M139.62 61.02 C89.11 59.48, 37.04 57.69, 1.75 60.48 M140.18 60.81 C112.67 62.14, 83.97 60.28, -0.5 60.07 M-0.55 59.36 C1.81 41.91, -1.16 21.66, -0.81 -1.01 M0.41 60.12 C-0.66 44.29, -0.68 30.5, 0.4 0.55" stroke="#000000" stroke-width="1" fill="none"></path></g><g transform="translate(618.5805282592773 139.8666402438655) rotate(0 61.639930725097656 25)"><text x="61.639930725097656" y="0" font-family="Virgil, Segoe UI Emoji" font-size="20px" fill="#1e1e1e" text-anchor="middle" style="white-space: pre;" direction="ltr" dominant-baseline="text-before-edge">User Facing </text><text x="61.639930725097656" y="25" font-family="Virgil, Segoe UI Emoji" font-size="20px" fill="#1e1e1e" text-anchor="middle" style="white-space: pre;" direction="ltr" dominant-baseline="text-before-edge">API</text></g><g stroke-linecap="round" transform="translate(1199 141.8666402438655) rotate(0 70.220458984375 30)"><path d="M-0.36 -0.45 C56.27 2.37, 113.28 1.44, 141.56 -0.61 M0.48 0.85 C34.94 -0.42, 69.28 0.75, 139.81 0.69 M138.49 1.23 C138.92 15.36, 140.06 28.92, 138.59 61.32 M140.86 -0.89 C139.6 13.29, 139.57 27.31, 141.23 60.83 M140.5 59.96 C106.17 59.54, 68.14 59.47, -0.15 59.34 M139.52 59.6 C106.3 59.9, 72.85 58.61, 0.76 60.31 M-0.93 58.39 C1.54 46.36, 0.34 30.73, 0.55 -0.09 M-0.63 60.05 C0.73 47.52, 0.11 35.84, -0.55 0.52" stroke="#000000" stroke-width="1" fill="none"></path></g><g transform="translate(1206.8205337524414 146.8666402438655) rotate(0 62.399925231933594 25)"><text x="62.399925231933594" y="0" font-family="Virgil, Segoe UI Emoji" font-size="20px" fill="#1e1e1e" text-anchor="middle" style="white-space: pre;" direction="ltr" dominant-baseline="text-before-edge">Reservation </text><text x="62.399925231933594" y="25" font-family="Virgil, Segoe UI Emoji" font-size="20px" fill="#1e1e1e" text-anchor="middle" style="white-space: pre;" direction="ltr" dominant-baseline="text-before-edge">Manager</text></g><g stroke-linecap="round" transform="translate(1395 143.8666402438655) rotate(0 70.220458984375 30)"><path d="M1.52 0.08 C31.07 -0.63, 57.37 -0.06, 140.69 -0.9 M-0.8 0.12 C32.55 -1.43, 67.95 -1.83, 140.85 0.4 M142.01 0.95 C142.04 17.52, 139.06 34.93, 140.26 60.76 M141.26 0.59 C141.49 19.26, 140.83 36.69, 139.55 60.73 M139.43 60.17 C98.15 60.08, 58.27 58.93, -0.14 58.57 M140.29 59.32 C95.97 61.37, 50.18 61.11, -0.99 60.46 M1.57 58.29 C-1.53 36.24, -1.23 14.2, 0.67 -1.65 M0.05 59.09 C-0.21 36.28, -0.85 11.7, -0.34 0.42" stroke="#000000" stroke-width="1" fill="none"></path></g><g transform="translate(1403.5005264282227 148.8666402438655) rotate(0 61.719932556152344 25)"><text x="61.719932556152344" y="0" font-family="Virgil, Segoe UI Emoji" font-size="20px" fill="#1e1e1e" text-anchor="middle" style="white-space: pre;" direction="ltr" dominant-baseline="text-before-edge">Ingestion </text><text x="61.719932556152344" y="25" font-family="Virgil, Segoe UI Emoji" font-size="20px" fill="#1e1e1e" text-anchor="middle" style="white-space: pre;" direction="ltr" dominant-baseline="text-before-edge">Efficient DB</text></g><g stroke-linecap="round" transform="translate(1900 530.8666402438655) rotate(0 70.220458984375 30)"><path d="M0.8 -1.56 C30.72 1.92, 63.66 0.25, 139 0.64 M0.85 -0.44 C32.85 -1.16, 68.29 -0.9, 139.98 0.24 M139.27 0.91 C141.36 20.39, 139.3 44.35, 139.62 60.2 M140.95 -0.62 C140.44 16.32, 140 32.96, 140.85 60.3 M140.56 61.9 C87.93 60.29, 39.38 61.36, 1.64 61.87 M141.03 60.13 C98.16 60.98, 56.77 61.2, 0.63 60.64 M1.82 59.86 C0.64 44.48, -1.47 29.84, 0.05 0.89 M0.03 59.73 C-0.24 36.01, 0.32 13.17, 0.7 -0.49" stroke="#000000" stroke-width="1" fill="none"></path></g><g transform="translate(1908.5005264282227 535.8666402438655) rotate(0 61.719932556152344 25)"><text x="61.719932556152344" y="0" font-family="Virgil, Segoe UI Emoji" font-size="20px" fill="#1e1e1e" text-anchor="middle" style="white-space: pre;" direction="ltr" dominant-baseline="text-before-edge">Read </text><text x="61.719932556152344" y="25" font-family="Virgil, Segoe UI Emoji" font-size="20px" fill="#1e1e1e" text-anchor="middle" style="white-space: pre;" direction="ltr" dominant-baseline="text-before-edge">Efficient DB</text></g><g stroke-linecap="round" transform="translate(10 518.8666402438655) rotate(0 70.220458984375 30)"><path d="M-0.33 -1.24 C36.84 0.91, 69.28 -2.29, 142 -0.21 M-0.44 0.58 C29.67 -0.49, 59.89 -1.67, 139.73 -1 M139.94 -0.95 C141.21 15.64, 140.73 29.51, 142.14 61.54 M139.88 -0.83 C140.48 19.63, 139.56 37.72, 140.02 59.46 M141.38 58.48 C88.69 61.87, 37.39 59.48, -0.95 61.48 M140.87 59.37 C97.83 61.24, 55.91 61.29, 0.14 60.42 M0.89 60.23 C1.73 35.97, -0.96 15.18, 0.49 -1.42 M0.35 60.02 C-0.16 46.06, 0.44 32.46, -0.14 -0.5" stroke="#000000" stroke-width="1" fill="none"></path></g><g transform="translate(17.820533752441406 523.8666402438655) rotate(0 62.399925231933594 25)"><text x="62.399925231933594" y="0" font-family="Virgil, Segoe UI Emoji" font-size="20px" fill="#1e1e1e" text-anchor="middle" style="white-space: pre;" direction="ltr" dominant-baseline="text-before-edge">Reservation </text><text x="62.399925231933594" y="25" font-family="Virgil, Segoe UI Emoji" font-size="20px" fill="#1e1e1e" text-anchor="middle" style="white-space: pre;" direction="ltr" dominant-baseline="text-before-edge">Collector</text></g><g stroke-linecap="round" transform="translate(1617 134.8666402438655) rotate(0 70.220458984375 80)"><path d="M1.96 -1.95 C34.44 0.55, 64.46 -0.93, 142.33 -1.99 M-0.15 0.78 C38.31 -0.45, 75.37 -0.22, 139.81 0.88 M141.38 1.54 C139.06 38.04, 141.72 80.87, 139.53 158.31 M140.73 -0.8 C142.35 41.98, 141.54 85.32, 141.11 160.9 M141.68 160.13 C100.47 157.87, 60.14 160.98, -1.37 160.64 M140.53 160.09 C98.13 160.25, 57.17 160.67, -0.51 160.09 M1.17 160.4 C0.6 121.47, -1.12 86.22, -1.06 -0.74 M-0.69 159.09 C-0.29 99.86, -1.49 38.89, 0.91 -0.01" stroke="#000000" stroke-width="1" fill="none"></path></g><g transform="translate(1622.670539855957 139.8666402438655) rotate(0 64.54991912841797 75)"><text x="64.54991912841797" y="0" font-family="Virgil, Segoe UI Emoji" font-size="20px" fill="#1e1e1e" text-anchor="middle" style="white-space: pre;" direction="ltr" dominant-baseline="text-before-edge">Kafka </text><text x="64.54991912841797" y="25" font-family="Virgil, Segoe UI Emoji" font-size="20px" fill="#1e1e1e" text-anchor="middle" style="white-space: pre;" direction="ltr" dominant-baseline="text-before-edge">Broker</text><text x="64.54991912841797" y="50" font-family="Virgil, Segoe UI Emoji" font-size="20px" fill="#1e1e1e" text-anchor="middle" style="white-space: pre;" direction="ltr" dominant-baseline="text-before-edge"></text><text x="64.54991912841797" y="75" font-family="Virgil, Segoe UI Emoji" font-size="20px" fill="#1e1e1e" text-anchor="middle" style="white-space: pre;" direction="ltr" dominant-baseline="text-before-edge">TOPIC:</text><text x="64.54991912841797" y="100" font-family="Virgil, Segoe UI Emoji" font-size="20px" fill="#1e1e1e" text-anchor="middle" style="white-space: pre;" direction="ltr" dominant-baseline="text-before-edge">Registration </text><text x="64.54991912841797" y="125" font-family="Virgil, Segoe UI Emoji" font-size="20px" fill="#1e1e1e" text-anchor="middle" style="white-space: pre;" direction="ltr" dominant-baseline="text-before-edge">Updates</text></g><g stroke-linecap="round" transform="translate(938 142.8666402438655) rotate(0 70.22045898437499 30)"><path d="M1.98 1.96 C46.83 0.13, 98.04 -0.22, 138.9 0.83 M0.77 0.19 C50.82 -2.07, 101.68 -0.61, 140.06 -0.71 M139.74 0.26 C138.44 16.48, 138.35 37.24, 142.38 61.3 M140.04 -0.29 C141.23 19.45, 140.73 39.58, 140.61 60.02 M140.62 59.9 C85.48 59.94, 33.04 60.95, -0.96 59.79 M140.86 59.26 C109.37 60.66, 78.63 61.52, -0.11 59.82 M-0.87 58.79 C-0.23 38.03, 1.1 18.08, -1.32 0.6 M0.87 59.89 C1.02 39.78, -0.52 21.22, -0.2 0.77" stroke="#000000" stroke-width="1" fill="none"></path></g><g transform="translate(954.1105117797852 147.8666402438655) rotate(0 54.109947204589844 25)"><text x="54.109947204589844" y="0" font-family="Virgil, Segoe UI Emoji" font-size="20px" fill="#1e1e1e" text-anchor="middle" style="white-space: pre;" direction="ltr" dominant-baseline="text-before-edge">In Memory </text><text x="54.109947204589844" y="25" font-family="Virgil, Segoe UI Emoji" font-size="20px" fill="#1e1e1e" text-anchor="middle" style="white-space: pre;" direction="ltr" dominant-baseline="text-before-edge">DB</text></g><g transform="translate(13.220458984375 345.99999999999994) rotate(0 64.4399185180664 12.5)"><text x="0" y="0" font-family="Virgil, Segoe UI Emoji" font-size="20px" fill="#1e1e1e" text-anchor="start" style="white-space: pre;" direction="ltr" dominant-baseline="text-before-edge">Road Warrior</text></g><g mask="url(#mask-5ZqRLAXBe5jdLpN_MaQ-K)" stroke-linecap="round"><g transform="translate(125.220458984375 283.99999999999994) rotate(0 140.2571771659795 0.45197598075996126)"><path d="M0.34 -0.64 C47.31 -0.82, 234.78 -0.7, 281.46 -0.49 M-0.94 1.63 C45.94 1.58, 234.03 1.29, 280.75 0.78" stroke="#1e1e1e" stroke-width="1" fill="none"></path></g><g transform="translate(125.220458984375 283.99999999999994) rotate(0 140.2571771659795 0.45197598075996126)"><path d="M251.54 11.96 C259.35 7.34, 268.8 6.97, 282 0.56 M252.69 10.67 C262.19 8.1, 271.67 5.06, 281.67 0.65" stroke="#1e1e1e" stroke-width="1" fill="none"></path></g><g transform="translate(125.220458984375 283.99999999999994) rotate(0 140.2571771659795 0.45197598075996126)"><path d="M251.43 -8.56 C259.36 -7.63, 268.83 -2.46, 282 0.56 M252.57 -9.85 C262.1 -5.69, 271.61 -2.01, 281.67 0.65" stroke="#1e1e1e" stroke-width="1" fill="none"></path></g></g><mask id="mask-5ZqRLAXBe5jdLpN_MaQ-K"><rect x="0" y="0" fill="#fff" width="506.220458984375" height="383.99999999999994"></rect><rect x="208.32052612304688" y="258.99999999999994" fill="#000" width="114.79986572265625" height="50" opacity="1"></rect></mask><g transform="translate(208.32052612304688 258.99999999999994) rotate(0 57.157110027307624 25.45197598075996)"><text x="57.399932861328125" y="0" font-family="Virgil, Segoe UI Emoji" font-size="20px" fill="#1e1e1e" text-anchor="middle" style="white-space: pre;" direction="ltr" dominant-baseline="text-before-edge">CRUD </text><text x="57.399932861328125" y="25" font-family="Virgil, Segoe UI Emoji" font-size="20px" fill="#1e1e1e" text-anchor="middle" style="white-space: pre;" direction="ltr" dominant-baseline="text-before-edge">Reservation</text></g><g stroke-linecap="round"><g transform="translate(428.2204589843751 322.99999999999994) rotate(0 112.54339025460183 3.1774996395364283)"><path d="M0.29 -0.85 C38.17 0.32, 188.51 5.98, 226.1 7.2 M-1.01 1.32 C36.91 2.1, 187.98 4.28, 225.73 5.34" stroke="#1e1e1e" stroke-width="1" fill="none"></path></g><g transform="translate(428.2204589843751 322.99999999999994) rotate(0 112.54339025460183 3.1774996395364283)"><path d="M195.93 16.86 C203.84 14.4, 208.34 12.64, 224.23 5.72 M197.45 15.81 C202.86 13.84, 208.77 12.05, 225.25 5.43" stroke="#1e1e1e" stroke-width="1" fill="none"></path></g><g transform="translate(428.2204589843751 322.99999999999994) rotate(0 112.54339025460183 3.1774996395364283)"><path d="M196.34 -3.66 C204.21 -2.01, 208.63 0.35, 224.23 5.72 M197.87 -4.71 C203.37 -2.23, 209.19 0.43, 225.25 5.43" stroke="#1e1e1e" stroke-width="1" fill="none"></path></g></g><mask></mask><g stroke-linecap="round"><g transform="translate(699.220458984375 367.8825836063404) rotate(0 143.40658278712064 -2.838843791963029)"><path d="M0.37 0.49 C48.19 -0.38, 239.87 -5.17, 287.71 -6.17 M-0.89 -0.29 C46.76 -0.91, 239.18 -3.52, 287.13 -4.75" stroke="#1e1e1e" stroke-width="1" fill="none"></path></g><g transform="translate(699.220458984375 367.8825836063404) rotate(0 143.40658278712064 -2.838843791963029)"><path d="M259.96 7.21 C269.14 2.62, 280.52 -0.76, 285.87 -6.44 M258.56 6.36 C269.82 1.4, 280.54 -3.27, 286.71 -4.67" stroke="#1e1e1e" stroke-width="1" fill="none"></path></g><g transform="translate(699.220458984375 367.8825836063404) rotate(0 143.40658278712064 -2.838843791963029)"><path d="M259.57 -13.3 C268.75 -10.36, 280.26 -6.21, 285.87 -6.44 M258.18 -14.15 C269.48 -11.33, 280.35 -8.22, 286.71 -4.67" stroke="#1e1e1e" stroke-width="1" fill="none"></path></g></g><mask></mask><g stroke-linecap="round"><g transform="translate(701.220458984375 420.1869261191208) rotate(0 261.55706138365895 -6.621591221479633)"><path d="M-0.2 -0.47 C87.17 -2.49, 437.28 -10.69, 524.88 -12.77 M-1.76 -1.76 C85.38 -3.52, 436.1 -9.57, 523.87 -11.24" stroke="#1e1e1e" stroke-width="1" fill="none"></path></g><g transform="translate(701.220458984375 420.1869261191208) rotate(0 261.55706138365895 -6.621591221479633)"><path d="M495.08 -0.68 C505.87 -3.6, 515.5 -7.01, 523.31 -13.14 M495.21 -0.66 C506.26 -4.63, 517.47 -8.83, 523.93 -11.62" stroke="#1e1e1e" stroke-width="1" fill="none"></path></g><g transform="translate(701.220458984375 420.1869261191208) rotate(0 261.55706138365895 -6.621591221479633)"><path d="M494.71 -21.2 C505.52 -16.81, 515.28 -12.92, 523.31 -13.14 M494.84 -21.18 C505.99 -17.03, 517.35 -13.11, 523.93 -11.62" stroke="#1e1e1e" stroke-width="1" fill="none"></path></g></g><mask></mask><g stroke-linecap="round"><g transform="translate(82.220458984375 777.8137229157749) rotate(0 458.07522120065977 -10.579636256997162)"><path d="M-0.55 -0.91 C152.21 -4.21, 763.86 -17.14, 916.7 -20.54 M1.36 1.23 C154.01 -2.36, 763.68 -18.84, 916.12 -22.39" stroke="#1e1e1e" stroke-width="1" fill="none"></path></g><g transform="translate(82.220458984375 777.8137229157749) rotate(0 458.07522120065977 -10.579636256997162)"><path d="M886.69 -10.25 C897.85 -13.9, 905.33 -19.55, 917.89 -20.56 M888.9 -11.27 C896.33 -14.55, 905.74 -18.84, 915.87 -22.47" stroke="#1e1e1e" stroke-width="1" fill="none"></path></g><g transform="translate(82.220458984375 777.8137229157749) rotate(0 458.07522120065977 -10.579636256997162)"><path d="M886.17 -30.76 C897.36 -28, 905.01 -27.25, 917.89 -20.56 M888.38 -31.79 C895.89 -28.93, 905.45 -27.09, 915.87 -22.47" stroke="#1e1e1e" stroke-width="1" fill="none"></path></g></g><mask></mask><g stroke-linecap="round"><g transform="translate(82.17767333984375 812.8516665772868) rotate(0 899.0573497339338 -15.033196426288043)"><path d="M1.19 -0.22 C300.73 -4.7, 1498.6 -23.31, 1797.75 -27.96 M0.36 -1.39 C299.75 -6.14, 1497.48 -25.63, 1797.18 -29.84" stroke="#1e1e1e" stroke-width="1" fill="none"></path></g><g transform="translate(82.17767333984375 812.8516665772868) rotate(0 899.0573497339338 -15.033196426288043)"><path d="M1768.78 -17.96 C1779.67 -24.61, 1789.03 -27.74, 1795.7 -28.31 M1768.81 -20.09 C1774.8 -20.5, 1780.25 -23.73, 1797.14 -29.22" stroke="#1e1e1e" stroke-width="1" fill="none"></path></g><g transform="translate(82.17767333984375 812.8516665772868) rotate(0 899.0573497339338 -15.033196426288043)"><path d="M1768.46 -38.48 C1779.28 -38.07, 1788.75 -34.12, 1795.7 -28.31 M1768.49 -40.61 C1774.61 -36.74, 1780.13 -35.68, 1797.14 -29.22" stroke="#1e1e1e" stroke-width="1" fill="none"></path></g></g><mask></mask><g stroke-linecap="round"><g transform="translate(1266.220458984375 426) rotate(0 91.336319050882 -1.5307399519778357)"><path d="M-0.09 -0.43 C30.44 -0.81, 151.51 -2.3, 182.05 -2.63 M-1.59 -1.7 C29.4 -1.94, 153.59 -1.7, 184.27 -1.68" stroke="#1e1e1e" stroke-width="1" fill="none"></path></g><g transform="translate(1266.220458984375 426) rotate(0 91.336319050882 -1.5307399519778357)"><path d="M155.35 6.97 C160.06 6.71, 166.25 3.04, 182.76 -1.11 M155.4 8.43 C161.59 7.21, 167.1 3.38, 183.67 -2.52" stroke="#1e1e1e" stroke-width="1" fill="none"></path></g><g transform="translate(1266.220458984375 426) rotate(0 91.336319050882 -1.5307399519778357)"><path d="M155.37 -13.55 C160.02 -9.57, 166.2 -9.01, 182.76 -1.11 M155.43 -12.09 C161.48 -8.99, 166.99 -8.49, 183.67 -2.52" stroke="#1e1e1e" stroke-width="1" fill="none"></path></g></g><mask></mask><g stroke-linecap="round"><g transform="translate(1274.220458984375 451) rotate(0 196.1279134745244 -3.544074762711631)"><path d="M0.33 -0.3 C66.03 -1.61, 327.73 -5.86, 393.22 -6.79 M-0.96 -1.51 C64.69 -2.12, 326.79 -4.34, 392.38 -5.39" stroke="#1e1e1e" stroke-width="1" fill="none"></path></g><g transform="translate(1274.220458984375 451) rotate(0 196.1279134745244 -3.544074762711631)"><path d="M363.81 5.56 C369.86 3.19, 377.53 1.52, 391.43 -4.28 M364.65 5.27 C372.41 2.15, 382.38 -1.81, 391.44 -5.62" stroke="#1e1e1e" stroke-width="1" fill="none"></path></g><g transform="translate(1274.220458984375 451) rotate(0 196.1279134745244 -3.544074762711631)"><path d="M363.57 -14.96 C369.85 -12.88, 377.58 -10.09, 391.43 -4.28 M364.41 -15.25 C372.3 -12.06, 382.35 -9.71, 391.44 -5.62" stroke="#1e1e1e" stroke-width="1" fill="none"></path></g></g><mask></mask><g mask="url(#mask-4IH98akriaj9uZYu9eVCg)" stroke-linecap="round"><g transform="translate(71.220458984375 665) rotate(0 802.1866025667638 -9.092155402046558)"><path d="M0.96 0.21 C268.19 -2.79, 1336.28 -15.31, 1603.41 -18.39" stroke="#1e1e1e" stroke-width="1.5" fill="none" stroke-dasharray="8 9"></path></g><g transform="translate(71.220458984375 665) rotate(0 802.1866025667638 -9.092155402046558)"><path d="M29.38 -9.69 C20.82 -5.71, 12.53 -5.73, 1.35 -0.72" stroke="#1e1e1e" stroke-width="1.5" fill="none"></path></g><g transform="translate(71.220458984375 665) rotate(0 802.1866025667638 -9.092155402046558)"><path d="M29.62 10.83 C21.06 8.62, 12.69 2.42, 1.35 -0.72" stroke="#1e1e1e" stroke-width="1.5" fill="none"></path></g><g transform="translate(71.220458984375 665) rotate(0 802.1866025667638 -9.092155402046558)"><path d="M1575.69 -7.12 C1584.13 -9.98, 1592.76 -16.37, 1603.81 -19.32" stroke="#1e1e1e" stroke-width="1.5" fill="none"></path></g><g transform="translate(71.220458984375 665) rotate(0 802.1866025667638 -9.092155402046558)"><path d="M1575.45 -27.64 C1583.89 -24.31, 1592.59 -24.52, 1603.81 -19.32" stroke="#1e1e1e" stroke-width="1.5" fill="none"></path></g></g><mask id="mask-4IH98akriaj9uZYu9eVCg"><rect x="0" y="0" fill="#fff" width="1774.220458984375" height="783.5693113108816"></rect><rect x="846.870475769043" y="643.2153443445591" fill="#000" width="51.69996643066406" height="25" opacity="1"></rect></mask><g transform="translate(846.870475769043 643.2153443445592) rotate(0 26.536585782095813 12.692500253394257)"><text x="25.84998321533203" y="0" font-family="Virgil, Segoe UI Emoji" font-size="20px" fill="#1e1e1e" text-anchor="middle" style="white-space: pre;" direction="ltr" dominant-baseline="text-before-edge">POLL</text></g><g stroke-linecap="round"><g transform="translate(1438.348098891106 93.12824861070101) rotate(0 20.703265919859263 22.67900767027978)" fill-rule="evenodd"><path d="M1.23 0.91 L-0.84 44.21 L1.92 46.61 L10.31 47.48 L20.35 48.03 L35.28 46.83 L40.39 47.88 L42.33 44.37 L40.32 -1.96 L36.35 -0.84 L22.02 -3.08 L5.88 -4.78 L-1.17 -0.31" stroke="none" stroke-width="0" fill="#b2f2bb" fill-rule="evenodd"></path><path d="M0.63 0.99 C0.75 7.43, 1.45 32.39, 1.18 39.62 C0.91 46.86, -1.23 43.23, -0.97 44.4 C-0.71 45.58, 1.11 45.76, 2.75 46.66 C4.38 47.56, 5.77 49.38, 8.84 49.8 C11.91 50.22, 16.88 49.44, 21.15 49.17 C25.42 48.89, 31.35 48.44, 34.47 48.13 C37.59 47.82, 38.68 47.72, 39.87 47.32 C41.07 46.92, 41.39 46.63, 41.64 45.74 C41.88 44.84, 41.37 48.98, 41.34 41.93 C41.31 34.89, 41.51 10.65, 41.44 3.47 C41.37 -3.7, 41.42 -0.26, 40.92 -1.1 C40.43 -1.94, 39.72 -1.21, 38.48 -1.58 C37.24 -1.95, 36.43 -2.83, 33.48 -3.32 C30.52 -3.8, 24.67 -4.27, 20.74 -4.51 C16.81 -4.75, 13.09 -5.32, 9.87 -4.78 C6.66 -4.24, 2.97 -2.22, 1.43 -1.29 C-0.11 -0.35, 0.89 0.62, 0.63 0.81 C0.37 1, -0.2 0.04, -0.13 -0.13 M-0.5 0.47 C-0.49 6.93, 0.46 33.1, 0.78 40.56 C1.1 48.01, 0.99 44.06, 1.41 45.19 C1.83 46.33, 1.78 46.47, 3.31 47.36 C4.84 48.26, 7.5 50.46, 10.62 50.55 C13.73 50.63, 17.88 47.95, 21.98 47.87 C26.07 47.8, 31.84 50.2, 35.19 50.09 C38.53 49.99, 41.26 48.16, 42.05 47.26 C42.85 46.36, 39.99 45.61, 39.96 44.7 C39.93 43.79, 41.6 48.49, 41.88 41.79 C42.16 35.09, 41.47 11.18, 41.64 4.49 C41.81 -2.2, 43.41 2.74, 42.9 1.65 C42.38 0.55, 40.21 -1.23, 38.56 -2.09 C36.9 -2.95, 35.83 -2.99, 32.96 -3.5 C30.09 -4.02, 25.01 -5.08, 21.33 -5.18 C17.66 -5.28, 14.45 -4.9, 10.89 -4.09 C7.33 -3.27, 1.86 -1.25, -0.01 -0.3 C-1.88 0.65, -0.05 1.56, -0.31 1.61 C-0.57 1.67, -1.38 0.07, -1.59 0.05" stroke="#000000" stroke-width="1" fill="none"></path></g></g><mask></mask><g stroke-linecap="round" transform="translate(1438.4962759672635 88.25111329710481) rotate(0 20.764001921640272 4.1993631746511255)"><path d="M28.75 -0.17 C32.55 0.15, 37.38 1.87, 39.52 2.79 C41.65 3.71, 42.76 4.57, 41.57 5.34 C40.38 6.1, 36.09 7.01, 32.37 7.38 C28.66 7.75, 23.69 7.61, 19.28 7.57 C14.86 7.54, 9.05 7.7, 5.89 7.16 C2.74 6.63, 0.55 5.32, 0.34 4.37 C0.12 3.41, 1.91 2.11, 4.61 1.44 C7.32 0.76, 11.84 0.25, 16.56 0.33 C21.29 0.4, 29.69 1.54, 32.97 1.9 C36.25 2.27, 36.37 2.77, 36.25 2.5 M16.32 1.04 C20.16 0.89, 23.87 0.01, 27.82 0.07 C31.77 0.14, 37.65 0.54, 40.03 1.42 C42.41 2.29, 43.43 4.23, 42.1 5.32 C40.77 6.41, 35.64 7.45, 32.03 7.97 C28.41 8.48, 24.64 8.41, 20.42 8.41 C16.19 8.41, 10.01 8.59, 6.68 7.96 C3.35 7.32, 1.11 5.82, 0.44 4.62 C-0.23 3.42, 0.46 1.56, 2.67 0.75 C4.87 -0.06, 11.49 -0.33, 13.66 -0.25 C15.83 -0.17, 15.24 1.23, 15.69 1.22" stroke="none" stroke-width="0" fill="#b2f2bb"></path><path d="M11.92 -0.31 C15.93 -0.94, 23 -1.14, 27.3 -0.75 C31.6 -0.36, 35.47 1.23, 37.72 2.01 C39.97 2.8, 41.21 3.09, 40.83 3.97 C40.45 4.84, 38.5 6.57, 35.45 7.25 C32.4 7.92, 26.94 8.01, 22.51 8.03 C18.07 8.05, 12.5 7.92, 8.85 7.37 C5.2 6.82, 1.84 5.61, 0.6 4.73 C-0.63 3.85, -0.77 2.77, 1.44 2.07 C3.64 1.38, 11.69 0.8, 13.84 0.58 C15.98 0.35, 14.28 0.71, 14.29 0.72 M12.68 1.45 C16.44 0.91, 21.46 -0.03, 25.84 -0.03 C30.22 -0.03, 36.23 0.58, 38.99 1.46 C41.74 2.34, 43.05 4.44, 42.38 5.22 C41.71 6.01, 38.26 5.75, 34.96 6.17 C31.65 6.6, 26.78 7.73, 22.53 7.77 C18.29 7.81, 13.35 7.04, 9.48 6.43 C5.61 5.82, 0.46 5.02, -0.69 4.11 C-1.83 3.2, 0.55 1.45, 2.6 0.97 C4.65 0.49, 9.96 1.45, 11.6 1.23 C13.25 1.01, 12.45 -0.1, 12.46 -0.35" stroke="#000000" stroke-width="1" fill="none"></path></g><g stroke-linecap="round"><g transform="translate(1944.348098891106 477.128248610701) rotate(0 21.03679788824195 22.335118351120883)" fill-rule="evenodd"><path d="M-1.55 -1.27 L0.56 43.9 L3.79 45.74 L11.52 47.23 L20.49 49.98 L34.88 47.77 L39.11 48.67 L43.12 44.71 L43.63 1.28 L36.32 -0.88 L20.65 -5.28 L5.23 -1.91 L-0.81 1.75" stroke="none" stroke-width="0" fill="#b2f2bb" fill-rule="evenodd"></path><path d="M-0.85 -0.43 C-0.85 6.26, -0.35 33.79, -0.09 41.27 C0.16 48.74, 0.31 43.45, 0.69 44.44 C1.06 45.43, 0.83 46.57, 2.15 47.22 C3.46 47.87, 5.25 47.91, 8.58 48.31 C11.91 48.72, 17.77 49.42, 22.15 49.65 C26.53 49.87, 31.9 50.32, 34.86 49.67 C37.83 49.02, 38.63 46.34, 39.93 45.75 C41.23 45.17, 42.49 46.93, 42.67 46.17 C42.85 45.41, 41.09 48.45, 41.03 41.19 C40.97 33.93, 42.34 9.46, 42.33 2.6 C42.32 -4.25, 41.43 0.8, 40.95 0.06 C40.47 -0.68, 40.61 -1.36, 39.46 -1.83 C38.31 -2.29, 37.28 -2.32, 34.05 -2.73 C30.82 -3.14, 24.05 -4.23, 20.07 -4.28 C16.09 -4.33, 13.16 -3.38, 10.15 -3.03 C7.13 -2.68, 3.6 -2.81, 1.99 -2.19 C0.37 -1.57, 0.97 0.32, 0.47 0.7 C-0.04 1.09, -1.04 0.23, -1.05 0.14 M0.9 -1.71 C0.73 5.14, -1.06 31.58, -1.16 39.4 C-1.27 47.23, -0.31 43.78, 0.28 45.25 C0.87 46.71, 0.73 47.71, 2.39 48.22 C4.05 48.73, 6.7 48.22, 10.22 48.28 C13.74 48.35, 19.24 48.53, 23.5 48.61 C27.76 48.69, 32.68 48.79, 35.79 48.78 C38.89 48.77, 41.18 49.1, 42.14 48.53 C43.09 47.96, 41.66 46.67, 41.54 45.36 C41.42 44.04, 41.17 47.69, 41.41 40.65 C41.65 33.62, 42.74 9.97, 43 3.16 C43.25 -3.66, 43.42 0.7, 42.93 -0.24 C42.44 -1.18, 41.57 -2.08, 40.06 -2.47 C38.54 -2.87, 37.13 -2.22, 33.84 -2.61 C30.55 -3.01, 24.07 -4.42, 20.31 -4.83 C16.56 -5.24, 14.55 -5.6, 11.31 -5.08 C8.06 -4.55, 2.82 -2.76, 0.84 -1.68 C-1.14 -0.59, -0.53 1.1, -0.56 1.46 C-0.59 1.81, 0.39 0.96, 0.67 0.47" stroke="#000000" stroke-width="1" fill="none"></path></g></g><mask></mask><g stroke-linecap="round" transform="translate(1944.4962759672635 472.2511132971048) rotate(0 20.764001921640272 4.1993631746511255)"><path d="M30.36 0.93 C34.12 1.5, 37.8 2.83, 39.56 3.48 C41.33 4.13, 42.28 4.27, 40.93 4.84 C39.59 5.41, 35.16 6.25, 31.49 6.91 C27.83 7.56, 23.36 8.85, 18.96 8.77 C14.55 8.69, 8.08 7.03, 5.07 6.4 C2.06 5.78, 0.85 5.76, 0.88 5.04 C0.91 4.31, 2.73 2.79, 5.24 2.07 C7.75 1.34, 11.34 0.89, 15.94 0.71 C20.54 0.52, 29.55 1.01, 32.85 0.98 C36.16 0.94, 36 0.44, 35.76 0.5 M15.1 1.1 C18.87 1.03, 25.37 -0.08, 29.35 0.26 C33.33 0.6, 37.28 2.07, 38.98 3.13 C40.68 4.18, 40.73 5.58, 39.57 6.57 C38.41 7.56, 35.79 8.96, 32.04 9.05 C28.3 9.15, 21.76 7.24, 17.09 7.14 C12.42 7.04, 7.03 9.02, 4.04 8.44 C1.06 7.85, -0.94 4.6, -0.81 3.64 C-0.68 2.67, 2.11 3.26, 4.83 2.64 C7.55 2.01, 13.68 0.18, 15.5 -0.12 C17.33 -0.42, 15.35 0.97, 15.77 0.85" stroke="none" stroke-width="0" fill="#b2f2bb"></path><path d="M25.01 -0.08 C28.96 0.07, 33.47 0.2, 36.21 0.94 C38.95 1.67, 41.34 3.2, 41.42 4.33 C41.5 5.47, 39.75 7.19, 36.69 7.72 C33.62 8.25, 27.38 7.34, 23.05 7.5 C18.71 7.66, 14.45 9.03, 10.67 8.67 C6.9 8.32, 1.86 6.5, 0.42 5.38 C-1.02 4.26, 0.35 2.74, 2.03 1.96 C3.72 1.18, 6.26 0.93, 10.54 0.69 C14.81 0.44, 24.48 0.44, 27.68 0.48 C30.88 0.52, 29.96 0.9, 29.74 0.93 M22.27 0.63 C26.51 0.4, 33.3 -0.68, 36.53 -0.05 C39.76 0.58, 41.42 3.48, 41.64 4.4 C41.87 5.32, 40.65 4.76, 37.87 5.49 C35.09 6.21, 29.5 8.11, 24.95 8.73 C20.39 9.35, 14.61 9.44, 10.55 9.21 C6.49 8.98, 2.45 8.59, 0.58 7.35 C-1.28 6.1, -2.1 2.77, -0.64 1.74 C0.81 0.7, 5.53 1.64, 9.31 1.15 C13.09 0.66, 19.57 -1.2, 22.05 -1.2 C24.53 -1.21, 24.2 0.6, 24.2 1.12" stroke="#000000" stroke-width="1" fill="none"></path></g><g transform="translate(913.220458984375 10) rotate(0 256.94970703125 12.5)"><text x="0" y="0" font-family="Virgil, Segoe UI Emoji" font-size="20px" fill="#1e1e1e" text-anchor="start" style="white-space: pre;" direction="ltr" dominant-baseline="text-before-edge">Road Warrior Initiated CRUD Reservation Sequence</text></g><g stroke-linecap="round"><g transform="translate(689.220458984375 526.1869261191208) rotate(0 575.9537118203333 -11.195973650677075)"><path d="M-0.87 -0.23 C190.88 -4.07, 958.3 -18.45, 1150.39 -22.17 M0.88 -1.39 C193.04 -5.14, 961.05 -17.47, 1152.78 -20.84" stroke="#1e1e1e" stroke-width="1" fill="none"></path></g><g transform="translate(689.220458984375 526.1869261191208) rotate(0 575.9537118203333 -11.195973650677075)"><path d="M1124.38 -11.13 C1132.09 -11.9, 1139.58 -17.11, 1152.44 -20.48 M1123.88 -10.68 C1135.55 -13.75, 1146.7 -18.66, 1152.85 -20.38" stroke="#1e1e1e" stroke-width="1" fill="none"></path></g><g transform="translate(689.220458984375 526.1869261191208) rotate(0 575.9537118203333 -11.195973650677075)"><path d="M1124.04 -31.65 C1131.99 -26.5, 1139.59 -25.78, 1152.44 -20.48 M1123.54 -31.2 C1135.16 -26.06, 1146.44 -22.76, 1152.85 -20.38" stroke="#1e1e1e" stroke-width="1" fill="none"></path></g></g><mask></mask><g stroke-linecap="round" transform="translate(1847.5548706054688 503.397035751678) rotate(0 8.3114013671875 25.70867919921875)"><path d="M-0.88 -0.63 C4.19 0, 7.45 0.44, 16.55 0.93 M-0.44 -0.49 C5.11 0.85, 11.51 0.15, 16.88 0.71 M18.05 0.02 C17.3 12.28, 17.05 24.9, 16.15 52.72 M16.75 0.68 C16.41 19.11, 17.16 38.7, 16.07 51.81 M16.36 50.5 C10.43 52.93, 5.09 50.21, -1.57 50.27 M16.59 50.86 C11.82 51.66, 7.4 51.52, -0.16 52.24 M-1.2 50.63 C-1.83 42.27, 0.21 31.82, -1.08 -1.57 M-0.2 51.46 C-0.43 35.46, -1.04 19.07, -0.36 0.28" stroke="#000000" stroke-width="1" fill="none"></path></g><g stroke-linecap="round"><g transform="translate(1849.4647216796875 226.074281845428) rotate(0 3.842182464152586 205.7980095796287)"><path d="M-0.64 -0.45 C0.67 68.31, 6.9 343.24, 8.32 412.05" stroke="#000000" stroke-width="1.5" fill="none" stroke-dasharray="8 9"></path></g></g><mask></mask><g stroke-linecap="round"><g transform="translate(1841.3246481722044 169.92530133044272) rotate(89.99999999999994 11.03785507623769 27.51576667510183)"><path d="M-0.45 0.23 C-0.36 8.38, -0.1 39.34, 0.02 48.3 C0.14 57.26, -0.03 52.55, 0.27 53.99 C0.56 55.43, 0.85 56.39, 1.79 56.94 C2.74 57.49, 4.4 57.05, 5.92 57.29 C7.45 57.53, 9.08 58.08, 10.93 58.37 C12.78 58.67, 15.28 59.52, 17.02 59.07 C18.76 58.62, 20.55 56.39, 21.38 55.66 C22.22 54.93, 22.05 55.66, 22.02 54.68 C21.99 53.69, 21.15 58.05, 21.21 49.76 C21.28 41.46, 22.35 13.21, 22.41 4.93 C22.47 -3.35, 22.04 1.31, 21.56 0.07 C21.09 -1.16, 20.45 -1.74, 19.56 -2.46 C18.68 -3.18, 17.62 -3.95, 16.24 -4.24 C14.86 -4.52, 13.1 -4.27, 11.3 -4.17 C9.5 -4.07, 7.13 -4.1, 5.42 -3.62 C3.72 -3.13, 2.06 -1.79, 1.08 -1.27 C0.11 -0.74, -0.31 -0.64, -0.41 -0.48 C-0.51 -0.32, 0.55 -0.48, 0.51 -0.32 M1.51 -0.7 C1.49 7.7, -0.65 40.39, -0.96 49.72 C-1.27 59.04, -0.92 54.46, -0.36 55.28 C0.2 56.1, 1.51 54.35, 2.39 54.65 C3.28 54.94, 3.33 56.07, 4.94 57.07 C6.54 58.06, 9.96 60.42, 12.01 60.62 C14.06 60.82, 15.82 59.13, 17.23 58.25 C18.64 57.36, 19.91 56.05, 20.47 55.31 C21.02 54.58, 20.33 54.79, 20.54 53.83 C20.75 52.88, 21.29 58.12, 21.72 49.59 C22.15 41.07, 23.38 11, 23.12 2.7 C22.86 -5.6, 20.76 0.78, 20.16 -0.21 C19.55 -1.2, 19.73 -2.5, 19.48 -3.22 C19.24 -3.95, 19.92 -4.41, 18.68 -4.58 C17.44 -4.75, 14.05 -4.06, 12.04 -4.23 C10.03 -4.4, 8.62 -5.68, 6.6 -5.6 C4.58 -5.52, 0.72 -4.63, -0.09 -3.75 C-0.9 -2.88, 1.84 -0.93, 1.75 -0.35 C1.67 0.24, -0.23 -0.12, -0.61 -0.24" stroke="#1e1e1e" stroke-width="1" fill="none"></path></g></g><mask></mask><g stroke-linecap="round"><g transform="translate(1831.1372294897897 194.47444568491244) rotate(89.99999999999994 10.248214088166208 2.36301149143513)"><path d="M0.23 -0.05 C0.39 0.42, -0.11 1.6, 0.33 2.37 C0.77 3.13, 1.84 3.96, 2.89 4.54 C3.94 5.12, 5.46 5.88, 6.64 5.85 C7.82 5.83, 8.36 4.78, 9.96 4.39 C11.56 4, 14.34 3.91, 16.24 3.52 C18.13 3.14, 20.54 2.65, 21.34 2.08 C22.14 1.51, 20.93 0.6, 21.05 0.13 M-1.11 -1.13 C-1.07 -1, -1.27 -0.23, -0.74 0.38 C-0.2 1, 0.78 1.98, 2.1 2.55 C3.41 3.12, 5.58 3.47, 7.15 3.78 C8.72 4.1, 9.85 4.12, 11.53 4.44 C13.22 4.77, 16.06 6.31, 17.28 5.71 C18.5 5.11, 18.39 1.8, 18.84 0.84 C19.3 -0.11, 19.67 -0.09, 20.02 -0.02" stroke="#1e1e1e" stroke-width="1" fill="none"></path></g></g><mask></mask><g stroke-linecap="round"><g transform="translate(1850.0047513319132 194.61528412160044) rotate(89.99999999999994 9.918170518430486 1.5710800025562746)"><path d="M-0.05 -0.23 C0.16 0.01, 0.21 0.99, 0.82 1.63 C1.43 2.27, 2.58 3.41, 3.61 3.6 C4.65 3.8, 5.9 2.84, 7.04 2.79 C8.17 2.74, 8.94 3.04, 10.45 3.33 C11.95 3.61, 14.4 4.79, 16.07 4.48 C17.74 4.18, 19.61 2.1, 20.49 1.49 C21.37 0.88, 21.37 1.02, 21.37 0.83 M-1.54 -1.39 C-1.43 -0.98, -0.78 2.65, 0.01 3.14 C0.8 3.62, 1.91 1.5, 3.2 1.53 C4.49 1.55, 6.25 2.98, 7.77 3.28 C9.28 3.58, 10.75 3.23, 12.3 3.34 C13.85 3.46, 15.56 4.5, 17.05 3.96 C18.54 3.43, 20.66 0.63, 21.24 0.14 C21.82 -0.35, 20.38 1.18, 20.54 1.03" stroke="#1e1e1e" stroke-width="1" fill="none"></path></g></g><mask></mask><g stroke-linecap="round" transform="translate(1869.3619655126445 192.18416903471382) rotate(89.99999999999994 10.649142245960547 4.734379499476303)"><path d="M11.17 -0.97 C13.15 -1.22, 15.23 -0.49, 16.77 0.45 C18.31 1.38, 19.84 3.54, 20.4 4.63 C20.97 5.72, 21.09 6.1, 20.16 6.99 C19.23 7.89, 17.05 9.55, 14.83 10 C12.61 10.45, 8.93 10.03, 6.82 9.68 C4.71 9.33, 3.28 8.82, 2.17 7.91 C1.06 7, -0.03 5.35, 0.13 4.24 C0.29 3.14, 1.28 2.02, 3.12 1.28 C4.97 0.54, 9.35 -0.16, 11.19 -0.2 C13.03 -0.23, 14.01 0.83, 14.17 1.06 M10.77 0.65 C12.71 0.6, 15.76 -0.22, 17.6 0.48 C19.44 1.19, 21.5 3.49, 21.82 4.86 C22.14 6.24, 20.94 8.13, 19.54 8.73 C18.14 9.33, 15.67 8.19, 13.4 8.45 C11.13 8.72, 8 10.77, 5.93 10.29 C3.87 9.82, 2.17 6.89, 1 5.61 C-0.18 4.32, -1.6 3.43, -1.12 2.58 C-0.63 1.73, 1.73 0.97, 3.91 0.53 C6.09 0.09, 10.87 0.12, 11.94 -0.04 C13.01 -0.2, 10.39 -0.46, 10.32 -0.44" stroke="#1e1e1e" stroke-width="1" fill="none"></path></g><g transform="translate(1788.5893396721867 76.09343391595803) rotate(0 65.9499282836914 12.5)"><text x="0" y="0" font-family="Virgil, Segoe UI Emoji" font-size="20px" fill="#1e1e1e" text-anchor="start" style="white-space: pre;" direction="ltr" dominant-baseline="text-before-edge">Kafka Broker</text></g><g transform="translate(1815.3192972527531 116.09343391595803) rotate(0 36.219970703125 12.5)"><text x="0" y="0" font-family="Virgil, Segoe UI Emoji" font-size="20px" fill="#1e1e1e" text-anchor="start" style="white-space: pre;" direction="ltr" dominant-baseline="text-before-edge">TOPIC:</text></g><g transform="translate(1808.0293115960148 151.09343391595803) rotate(0 43.50995635986328 12.5)"><text x="0" y="0" font-family="Virgil, Segoe UI Emoji" font-size="20px" fill="#1e1e1e" text-anchor="start" style="white-space: pre;" direction="ltr" dominant-baseline="text-before-edge">Analytics</text></g></svg>