<svg version="1.1" xmlns="http://www.w3.org/2000/svg" viewBox="0 0 2017.4500483245365 573.3831057805567" width="2017.4500483245365" height="573.3831057805567">
  <!-- svg-source:excalidraw -->
  
  <defs>
    <style class="style-fonts">
      @font-face {
        font-family: "Virgil";
        src: url("https://excalidraw.com/Virgil.woff2");
      }
      @font-face {
        font-family: "Cascadia";
        src: url("https://excalidraw.com/Cascadia.woff2");
      }
    </style>
    
  </defs>
  <rect x="0" y="0" width="2017.4500483245365" height="573.3831057805567" fill="#ffffff"></rect><g stroke-linecap="round" transform="translate(422.34454142756385 277.5303955078124) rotate(0 7.8114013671875 122.70867919921875)"><path d="M-1.35 -0.79 C6.3 1.37, 11.11 -1.33, 16.21 -0.3 M-0.75 -0.3 C3.34 0.78, 6.83 0.66, 15.79 0.27 M14.28 -1.46 C14.41 67.91, 15.22 136.74, 14.17 244.37 M16.35 -0.72 C14.3 90.23, 14.79 179.39, 14.99 244.81 M16.28 243.98 C10.32 246.38, 8.09 245.18, 1.38 245.17 M14.87 246.19 C9.65 245.12, 4.29 245.29, 0.63 246.18 M-0.9 246.72 C-2.23 179.87, -2.69 115.03, 0.46 0 M-0.07 244.79 C0.12 174.74, 1.16 106.27, 0.71 -0.51" stroke="#000000" stroke-width="1" fill="none"></path></g><g stroke-linecap="round" transform="translate(675.3445414275639 274.5303955078124) rotate(0 7.8114013671875 122.70867919921875)"><path d="M0.74 1.53 C4.9 -0.01, 7.64 0.28, 15.57 0.02 M0.33 -0.18 C3.94 0.5, 8.38 0.63, 15.28 0.39 M15.19 1.6 C18.3 84.47, 17.34 169.86, 15.08 243.97 M15.36 -0.68 C13.27 54.95, 14.02 111.29, 15.22 245.98 M16.69 246.69 C9.74 244.72, 5.5 245.69, -0.11 245.52 M14.86 245.06 C13.09 245.25, 9.89 245.98, 0.76 245.74 M0.24 245.43 C1.77 193.06, 0.48 143.1, 0.63 -0.95 M-0.42 245.17 C0.17 179.83, 0.93 112.88, -0.63 -0.71" stroke="#000000" stroke-width="1" fill="none"></path></g><g stroke-linecap="round" transform="translate(1264.3445414275639 424.5303955078124) rotate(0 10.3114013671875 53.70867919921875)"><path d="M1.93 -1.91 C3.94 -0.25, 8.82 0.69, 22.5 1.89 M-0.54 -0.93 C6.96 0.55, 15.18 0.5, 19.91 0.27 M19.43 1.04 C19 35.27, 21.18 72.61, 21.57 106.73 M19.94 0.21 C18.92 33.16, 18.74 64.49, 20 106.42 M19.66 105.86 C13.92 107.65, 10.38 108.65, 0.67 105.8 M20.02 106.68 C13.12 106.42, 6.63 106.91, 0.89 107.22 M-1.01 105.52 C-0.13 78.59, -2.43 52.59, 1.32 -0.23 M-0.96 107.13 C-0.63 71.07, -0.24 36.53, -0.24 -0.07" stroke="#000000" stroke-width="1" fill="none"></path></g><g stroke-linecap="round" transform="translate(1577.3445414275639 454.5303955078124) rotate(0 7.8114013671875 29.20867919921875)"><path d="M0.85 1.02 C3.72 0.78, 7.25 -0.98, 15.04 1.02 M0.66 -0.16 C4.25 -0.49, 9.61 0.57, 15.47 0.13 M14.83 -0.42 C15.99 21.3, 16.06 42.38, 15.7 58.86 M14.67 0.47 C16.16 14.79, 15.09 28.14, 15.51 58.93 M15.14 58.45 C9.27 59.14, 5.6 57.93, 1.49 59.64 M15.83 57.7 C9.51 58.59, 3.16 58.92, -0.23 58.67 M-1.43 57.73 C-1.42 39.26, -0.78 21.37, -0.96 -1.42 M0.59 59.01 C-0.57 42.12, 0.68 26.3, 0.1 -0.55" stroke="#000000" stroke-width="1" fill="none"></path></g><g stroke-linecap="round" transform="translate(1003.3445414275639 406.5303955078124) rotate(0 6.8114013671875 18.70867919921875)"><path d="M0.57 0.06 C4.03 1.29, 10.09 -0.88, 13.47 1.33 M0.44 -0.68 C4.32 0.47, 7.52 -0.33, 13.1 -0.51 M13.69 -1.82 C12.53 13.08, 13.74 26.11, 11.9 35.87 M13.97 0.64 C14.81 12.39, 13.7 25.98, 12.99 37.32 M14.72 37.39 C10.64 37.54, 6.93 36.41, -0.27 37.11 M13.06 36.89 C9.41 37.69, 4.11 36.99, 0.04 36.82 M1.25 37.19 C-1.7 21.92, -1.16 7.87, -0.23 1.04 M0.29 37.38 C1.04 24.15, 0.14 10.14, -0.47 -0.54" stroke="#000000" stroke-width="1" fill="none"></path></g><g stroke-linecap="round"><g transform="translate(429.2543925017826 248.2076416015624) rotate(0 -0.7346630852669591 15.186493549868459)"><path d="M-0.61 0.8 C-0.74 5.9, -0.47 24.78, -0.86 29.57" stroke="#000000" stroke-width="1.5" fill="none" stroke-dasharray="8 9"></path></g></g><mask></mask><g stroke-linecap="round"><g transform="translate(682.2543925017826 245.2076416015624) rotate(0 -0.33139034695921055 15.164844401553268)"><path d="M0.57 1.18 C0.43 5.94, -0.77 24.45, -1.23 29.15" stroke="#000000" stroke-width="1.5" fill="none" stroke-dasharray="8 9"></path></g></g><mask></mask><g stroke-linecap="round"><g transform="translate(1271.2543925017826 266.2076416015624) rotate(0 1.4170031767338287 84.86862659044561)"><path d="M1.16 -1.15 C1.31 27.44, 1.56 142.12, 1.68 170.89" stroke="#000000" stroke-width="1.5" fill="none" stroke-dasharray="8 9"></path></g></g><mask></mask><g stroke-linecap="round"><g transform="translate(1582.2543925017826 276.2076416015624) rotate(0 1.6431426271797136 85.64603905826806)"><path d="M0.2 -0.87 C0.64 27.91, 2.63 143.33, 3.09 172.16" stroke="#000000" stroke-width="1.5" fill="none" stroke-dasharray="8 9"></path></g></g><mask></mask><g stroke-linecap="round"><g transform="translate(1956.2543925017826 282.2076416015624) rotate(0 1.0952150091529802 127.4319892898202)"><path d="M-1.14 0.93 C-0.76 43.26, 2.52 211.77, 3.33 253.94" stroke="#000000" stroke-width="1.5" fill="none" stroke-dasharray="8 9"></path></g></g><mask></mask><g stroke-linecap="round"><g transform="translate(1009.2543925017826 323.2076416015624) rotate(0 1.6492420393973362 35.1707662206143)"><path d="M0.51 0.05 C0.89 11.69, 2.17 58.9, 2.79 70.29" stroke="#000000" stroke-width="1.5" fill="none" stroke-dasharray="8 9"></path></g></g><mask></mask><g stroke-linecap="round"><g transform="translate(430.39751994318885 525.5664672851561) rotate(0 0.5659192673149391 18.278844759985816)"><path d="M1.04 0.47 C1.16 6.35, 0.11 30.43, 0.08 36.09" stroke="#000000" stroke-width="1.5" fill="none" stroke-dasharray="8 9"></path></g></g><mask></mask><g stroke-linecap="round"><g transform="translate(683.3975199431889 522.5664672851561) rotate(0 1.17857456103593 18.004858110472583)"><path d="M1.18 0.68 C1.27 6.47, 1.12 29.51, 1.15 35.33" stroke="#000000" stroke-width="1.5" fill="none" stroke-dasharray="8 9"></path></g></g><mask></mask><g stroke-linecap="round"><g transform="translate(1012.3975199431889 451.56646728515614) rotate(0 1.6708577733487573 55.756986005976785)"><path d="M0.05 -0.3 C0.52 18.25, 3.07 93.35, 3.29 111.82" stroke="#000000" stroke-width="1.5" fill="none" stroke-dasharray="8 9"></path></g></g><mask></mask><g stroke-linecap="round" transform="translate(364.7896708220951 202) rotate(0 70.220458984375 30)"><path d="M0.75 -0.39 C52.38 -0.72, 107.12 -0.73, 139.66 0.5 M0.21 0.35 C53.72 -1.34, 107.62 -1.78, 139.55 -0.28 M138.68 -1.27 C141.85 16.21, 140.35 36.99, 138.71 60.26 M139.67 -0.74 C140.34 23.69, 140.6 48.34, 139.52 59.07 M142.2 59.68 C90.91 58.84, 37.56 57.9, 1.98 60.05 M141.24 60.98 C102.64 60.54, 65.15 59.29, 0.79 59.51 M0.56 60 C0.16 44.19, 0.2 29.81, -1.53 -1.68 M0.87 59.38 C-0.18 47.84, -0.94 36.21, -0.22 0.14" stroke="#000000" stroke-width="1" fill="none"></path></g><g transform="translate(385.470189926099 207) rotate(0 49.539939880371094 25)"><text x="49.539939880371094" y="0" font-family="Virgil, Segoe UI Emoji" font-size="20px" fill="#1e1e1e" text-anchor="middle" style="white-space: pre;" direction="ltr" dominant-baseline="text-before-edge">Reporting </text><text x="49.539939880371094" y="25" font-family="Virgil, Segoe UI Emoji" font-size="20px" fill="#1e1e1e" text-anchor="middle" style="white-space: pre;" direction="ltr" dominant-baseline="text-before-edge">API</text></g><g stroke-linecap="round" transform="translate(617.7896708220951 199) rotate(0 84.5 30)"><path d="M0.08 -0.51 C59.12 -1.02, 117.36 -1.92, 167.09 0.49 M0.69 0.66 C58.72 -0.45, 116.24 0.46, 169.54 -0.98 M168.06 0.76 C168.81 15.78, 167.83 31.42, 167.47 61.16 M168.02 -0.06 C168.21 15.58, 169.19 32.64, 169.42 59.61 M168.18 61.02 C107.14 59.4, 44.55 57.61, 1.75 60.48 M168.74 60.81 C135.45 62.38, 100.97 60.52, -0.5 60.07 M-0.55 59.36 C1.81 41.91, -1.16 21.66, -0.81 -1.01 M0.41 60.12 C-0.66 44.29, -0.68 30.5, 0.4 0.55" stroke="#000000" stroke-width="1" fill="none"></path></g><g transform="translate(631.2397440642826 216.5) rotate(0 71.0499267578125 12.5)"><text x="71.0499267578125" y="0" font-family="Virgil, Segoe UI Emoji" font-size="20px" fill="#1e1e1e" text-anchor="middle" style="white-space: pre;" direction="ltr" dominant-baseline="text-before-edge">(De)anonymizer</text></g><g stroke-linecap="round" transform="translate(1206.789670822095 206) rotate(0 70.220458984375 30)"><path d="M-0.36 -0.45 C56.27 2.37, 113.28 1.44, 141.56 -0.61 M0.48 0.85 C34.94 -0.42, 69.28 0.75, 139.81 0.69 M138.49 1.23 C138.92 15.36, 140.06 28.92, 138.59 61.32 M140.86 -0.89 C139.6 13.29, 139.57 27.31, 141.23 60.83 M140.5 59.96 C106.17 59.54, 68.14 59.47, -0.15 59.34 M139.52 59.6 C106.3 59.9, 72.85 58.61, 0.76 60.31 M-0.93 58.39 C1.54 46.36, 0.34 30.73, 0.55 -0.09 M-0.63 60.05 C0.73 47.52, 0.11 35.84, -0.55 0.52" stroke="#000000" stroke-width="1" fill="none"></path></g><g transform="translate(1215.4002054900639 211) rotate(0 61.60992431640625 25)"><text x="61.60992431640625" y="0" font-family="Virgil, Segoe UI Emoji" font-size="20px" fill="#1e1e1e" text-anchor="middle" style="white-space: pre;" direction="ltr" dominant-baseline="text-before-edge">Notification </text><text x="61.60992431640625" y="25" font-family="Virgil, Segoe UI Emoji" font-size="20px" fill="#1e1e1e" text-anchor="middle" style="white-space: pre;" direction="ltr" dominant-baseline="text-before-edge">Sender</text></g><g stroke-linecap="round" transform="translate(1520.789670822095 180) rotate(0 70.220458984375 42.5)"><path d="M-2 1.42 C53.66 -2.64, 108 -1.57, 140.29 -1.18 M-0.42 0.72 C44.83 0.77, 89.35 -0.02, 139.59 0.86 M140.59 -1.16 C141.32 26.75, 140.75 49.21, 141.7 83.58 M140.37 0.56 C140.94 20.63, 141.16 43.5, 140.46 85.54 M140.73 86.6 C91.54 86.45, 47.69 86.76, -0.04 86.08 M141.34 85.93 C96.81 85.17, 51.35 86.12, 0.09 85.72 M0.87 84.59 C-0.85 55.62, -2.06 25.48, -1.58 -0.45 M0.86 84.93 C0.47 67.29, -0.58 48.85, -0.71 -0.7" stroke="#000000" stroke-width="1" fill="none"></path></g><g transform="translate(1533.0901850432865 185) rotate(0 57.919944763183594 37.5)"><text x="57.919944763183594" y="0" font-family="Virgil, Segoe UI Emoji" font-size="20px" fill="#1e1e1e" text-anchor="middle" style="white-space: pre;" direction="ltr" dominant-baseline="text-before-edge">Customer </text><text x="57.919944763183594" y="25" font-family="Virgil, Segoe UI Emoji" font-size="20px" fill="#1e1e1e" text-anchor="middle" style="white-space: pre;" direction="ltr" dominant-baseline="text-before-edge">Facing API </text><text x="57.919944763183594" y="50" font-family="Virgil, Segoe UI Emoji" font-size="20px" fill="#1e1e1e" text-anchor="middle" style="white-space: pre;" direction="ltr" dominant-baseline="text-before-edge">Gateway</text></g><g stroke-linecap="round" transform="translate(1637.789670822095 87) rotate(0 70.220458984375 55)"><path d="M-0.42 0.15 L138.86 -0.73 L140.64 109.05 L-1.22 109.24" stroke="none" stroke-width="0" fill="#ffec99"></path><path d="M1.52 0.08 C31.07 -0.63, 57.37 -0.06, 140.69 -0.9 M-0.8 0.12 C32.55 -1.43, 67.95 -1.83, 140.85 0.4 M142.01 0.95 C142.2 32.51, 139.21 64.9, 140.26 110.76 M141.26 0.59 C141.78 34.57, 141.13 67.32, 139.55 110.73 M139.43 110.17 C98.15 110.08, 58.27 108.93, -0.14 108.57 M140.29 109.32 C95.97 111.37, 50.18 111.11, -0.99 110.46 M1.57 108.29 C-1.28 67.92, -0.98 27.56, 0.67 -1.65 M0.05 109.09 C-0.22 66.36, -0.86 21.87, -0.34 0.42" stroke="#000000" stroke-width="1" fill="none"></path></g><g transform="translate(1646.4002054900639 92) rotate(0 61.60992431640625 50)"><text x="61.60992431640625" y="0" font-family="Virgil, Segoe UI Emoji" font-size="20px" fill="#1e1e1e" text-anchor="middle" style="white-space: pre;" direction="ltr" dominant-baseline="text-before-edge">Mobile </text><text x="61.60992431640625" y="25" font-family="Virgil, Segoe UI Emoji" font-size="20px" fill="#1e1e1e" text-anchor="middle" style="white-space: pre;" direction="ltr" dominant-baseline="text-before-edge">Notification </text><text x="61.60992431640625" y="50" font-family="Virgil, Segoe UI Emoji" font-size="20px" fill="#1e1e1e" text-anchor="middle" style="white-space: pre;" direction="ltr" dominant-baseline="text-before-edge">Service </text><text x="61.60992431640625" y="75" font-family="Virgil, Segoe UI Emoji" font-size="20px" fill="#1e1e1e" text-anchor="middle" style="white-space: pre;" direction="ltr" dominant-baseline="text-before-edge">(External) *</text></g><g stroke-linecap="round" transform="translate(945.7896708220951 207) rotate(0 70.220458984375 55)"><path d="M1.98 1.96 C46.83 0.13, 98.04 -0.22, 138.9 0.83 M0.77 0.19 C50.82 -2.07, 101.68 -0.61, 140.06 -0.71 M139.74 0.26 C137.98 31.65, 137.9 67.58, 142.38 111.3 M140.04 -0.29 C141.56 36.17, 141.05 73.04, 140.61 110.02 M140.62 109.9 C85.48 109.94, 33.04 110.95, -0.96 109.79 M140.86 109.26 C109.37 110.66, 78.63 111.52, -0.11 109.82 M-0.87 108.79 C-0.18 69.91, 1.16 31.85, -1.32 0.6 M0.87 109.89 C1.04 73.32, -0.5 38.31, -0.2 0.77" stroke="#000000" stroke-width="1" fill="none"></path></g><g transform="translate(964.6401880950443 212) rotate(0 51.36994171142578 50)"><text x="51.36994171142578" y="0" font-family="Virgil, Segoe UI Emoji" font-size="20px" fill="#1e1e1e" text-anchor="middle" style="white-space: pre;" direction="ltr" dominant-baseline="text-before-edge">Reporting </text><text x="51.36994171142578" y="25" font-family="Virgil, Segoe UI Emoji" font-size="20px" fill="#1e1e1e" text-anchor="middle" style="white-space: pre;" direction="ltr" dominant-baseline="text-before-edge">Service </text><text x="51.36994171142578" y="50" font-family="Virgil, Segoe UI Emoji" font-size="20px" fill="#1e1e1e" text-anchor="middle" style="white-space: pre;" direction="ltr" dominant-baseline="text-before-edge">(Batch </text><text x="51.36994171142578" y="75" font-family="Virgil, Segoe UI Emoji" font-size="20px" fill="#1e1e1e" text-anchor="middle" style="white-space: pre;" direction="ltr" dominant-baseline="text-before-edge">processing)</text></g><g transform="translate(21.010129806470104 410.1333597561344) rotate(0 45.27995300292969 12.5)"><text x="0" y="0" font-family="Virgil, Segoe UI Emoji" font-size="20px" fill="#1e1e1e" text-anchor="start" style="white-space: pre;" direction="ltr" dominant-baseline="text-before-edge">Scheduler</text></g><g mask="url(#mask-5ZqRLAXBe5jdLpN_MaQ-K)" stroke-linecap="round"><g transform="translate(133.0101298064701 348.1333597561344) rotate(0 140.2571771659795 0.45197598075995415)"><path d="M0.34 -0.64 C47.31 -0.82, 234.78 -0.7, 281.46 -0.49 M-0.94 1.63 C45.94 1.58, 234.03 1.29, 280.75 0.78" stroke="#1e1e1e" stroke-width="1" fill="none"></path></g><g transform="translate(133.0101298064701 348.1333597561344) rotate(0 140.2571771659795 0.45197598075995415)"><path d="M251.54 11.96 C259.35 7.34, 268.8 6.97, 282 0.56 M252.69 10.67 C262.19 8.1, 271.67 5.06, 281.67 0.65" stroke="#1e1e1e" stroke-width="1" fill="none"></path></g><g transform="translate(133.0101298064701 348.1333597561344) rotate(0 140.2571771659795 0.45197598075995415)"><path d="M251.43 -8.56 C259.36 -7.63, 268.83 -2.46, 282 0.56 M252.57 -9.85 C262.1 -5.69, 271.61 -2.01, 281.67 0.65" stroke="#1e1e1e" stroke-width="1" fill="none"></path></g></g><mask id="mask-5ZqRLAXBe5jdLpN_MaQ-K"><rect x="0" y="0" fill="#fff" width="514.0101298064701" height="448.1333597561344"></rect><rect x="198.21021830744667" y="335.6333597561344" fill="#000" width="150.59982299804688" height="25" opacity="1"></rect></mask><g transform="translate(198.21021830744667 335.6333597561344) rotate(0 75.05708866500294 12.951975980759954)"><text x="75.29991149902344" y="0" font-family="Virgil, Segoe UI Emoji" font-size="20px" fill="#1e1e1e" text-anchor="middle" style="white-space: pre;" direction="ltr" dominant-baseline="text-before-edge">Execute(period)</text></g><g stroke-linecap="round"><g transform="translate(436.0101298064702 387.1333597561344) rotate(0 114.54339025460183 -0.804432438355775)"><path d="M0.29 -0.85 C38.84 -1.06, 191.84 -0.92, 230.1 -1.07 M-1.01 1.32 C37.58 0.73, 191.31 -2.62, 229.73 -2.93" stroke="#1e1e1e" stroke-width="1" fill="none"></path></g><g transform="translate(436.0101298064702 387.1333597561344) rotate(0 114.54339025460183 -0.804432438355775)"><path d="M200.3 9.61 C208.13 6.94, 212.56 4.98, 228.23 -2.55 M201.82 8.56 C207.14 6.37, 212.97 4.35, 229.25 -2.84" stroke="#1e1e1e" stroke-width="1" fill="none"></path></g><g transform="translate(436.0101298064702 387.1333597561344) rotate(0 114.54339025460183 -0.804432438355775)"><path d="M199.97 -10.91 C207.91 -9.46, 212.41 -7.31, 228.23 -2.55 M201.49 -11.96 C207.07 -9.7, 212.97 -7.27, 229.25 -2.84" stroke="#1e1e1e" stroke-width="1" fill="none"></path></g></g><mask></mask><g stroke-linecap="round"><g transform="translate(702.0101298064701 424.1333597561344) rotate(0 145.90658278712067 -0.03569006628822535)"><path d="M0.37 0.49 C49.02 0.51, 244.04 -0.68, 292.71 -0.78 M-0.89 -0.29 C47.59 -0.01, 243.34 0.97, 292.13 0.64" stroke="#1e1e1e" stroke-width="1" fill="none"></path></g><g transform="translate(702.0101298064701 424.1333597561344) rotate(0 145.90658278712067 -0.03569006628822535)"><path d="M264.76 12.08 C274.01 7.68, 285.46 4.49, 290.87 -1.05 M263.37 11.23 C274.69 6.46, 285.49 1.99, 291.71 0.72" stroke="#1e1e1e" stroke-width="1" fill="none"></path></g><g transform="translate(702.0101298064701 424.1333597561344) rotate(0 145.90658278712067 -0.03569006628822535)"><path d="M264.76 -8.44 C273.86 -5.31, 285.31 -0.96, 290.87 -1.05 M263.37 -9.29 C274.59 -6.27, 285.39 -2.96, 291.71 0.72" stroke="#1e1e1e" stroke-width="1" fill="none"></path></g></g><mask></mask><g stroke-linecap="round"><g transform="translate(1007.0101298064701 437.13335975613427) rotate(0 131.1675997399027 -1.9915367479295014)"><path d="M-1.1 -0.05 C42.3 -0.77, 217.16 -3.42, 261.17 -3.93 M0.52 -1.13 C44.23 -1.7, 219.75 -1.9, 263.44 -2.58" stroke="#1e1e1e" stroke-width="1" fill="none"></path></g><g transform="translate(1007.0101298064701 437.13335975613427) rotate(0 131.1675997399027 -1.9915367479295014)"><path d="M235.24 6.5 C244.88 5.89, 256.44 0.85, 262.36 -1.19 M234.85 7.7 C242.33 6.31, 249.31 3.36, 262.58 -3.16" stroke="#1e1e1e" stroke-width="1" fill="none"></path></g><g transform="translate(1007.0101298064701 437.13335975613427) rotate(0 131.1675997399027 -1.9915367479295014)"><path d="M235.08 -14.02 C244.85 -7.2, 256.46 -4.8, 262.36 -1.19 M234.7 -12.82 C242.14 -8.84, 249.16 -6.4, 262.58 -3.16" stroke="#1e1e1e" stroke-width="1" fill="none"></path></g></g><mask></mask><g stroke-linecap="round"><g transform="translate(1285.967344161939 465.9547796672937) rotate(0 140.5220876060297 -2.7084233411650303)"><path d="M0.33 -0.3 C47.49 -1.33, 235.06 -4.47, 282 -5.11 M-0.96 -1.51 C46.15 -1.84, 234.12 -2.95, 281.17 -3.72" stroke="#1e1e1e" stroke-width="1" fill="none"></path></g><g transform="translate(1285.967344161939 465.9547796672937) rotate(0 140.5220876060297 -2.7084233411650303)"><path d="M252.58 7.19 C258.64 4.83, 266.31 3.18, 280.22 -2.61 M253.42 6.9 C261.19 3.8, 271.17 -0.15, 280.23 -3.95" stroke="#1e1e1e" stroke-width="1" fill="none"></path></g><g transform="translate(1285.967344161939 465.9547796672937) rotate(0 140.5220876060297 -2.7084233411650303)"><path d="M252.37 -13.33 C258.65 -11.23, 266.38 -8.44, 280.22 -2.61 M253.21 -13.62 C261.1 -10.41, 271.14 -8.06, 280.23 -3.95" stroke="#1e1e1e" stroke-width="1" fill="none"></path></g></g><mask></mask><g stroke-linecap="round"><g transform="translate(1594.9673441619393 484.9547796672937) rotate(0 174.0784358573485 -3.0554303446148765)"><path d="M-1.08 0.1 C57.06 -0.75, 290.67 -3.69, 349.23 -4.35 M0.56 -0.89 C58.45 -2.17, 289.79 -5.41, 347.99 -6.21" stroke="#1e1e1e" stroke-width="1" fill="none"></path></g><g transform="translate(1594.9673441619393 484.9547796672937) rotate(0 174.0784358573485 -3.0554303446148765)"><path d="M320.11 3.52 C330.11 1.94, 340.3 -1.57, 348.6 -6.87 M320.8 5.21 C329.39 0.91, 338.28 -3.44, 348.08 -6.26" stroke="#1e1e1e" stroke-width="1" fill="none"></path></g><g transform="translate(1594.9673441619393 484.9547796672937) rotate(0 174.0784358573485 -3.0554303446148765)"><path d="M319.83 -17 C330.05 -11.7, 340.33 -8.33, 348.6 -6.87 M320.52 -15.31 C329.38 -12.59, 338.37 -9.92, 348.08 -6.26" stroke="#1e1e1e" stroke-width="1" fill="none"></path></g></g><mask></mask><g transform="translate(731.0604227752201 46.63335975613461) rotate(0 207.76974487304688 12.5)"><text x="0" y="0" font-family="Virgil, Segoe UI Emoji" font-size="20px" fill="#1e1e1e" text-anchor="start" style="white-space: pre;" direction="ltr" dominant-baseline="text-before-edge">End of Year* Report Generation Sequence</text></g><g stroke-linecap="round" transform="translate(1158.7896708220949 10) rotate(0 70.220458984375 55)"><path d="M-0.23 1.19 L142.4 1.55 L140.78 109.96 L1.93 109.26" stroke="none" stroke-width="0" fill="#ffec99"></path><path d="M-0.9 -0.91 C35.12 1.08, 66.44 -1.38, 138.96 0.64 M0.69 -0.8 C55.73 1.83, 110.39 0.99, 140.45 0.78 M140.52 -1.6 C137.75 26.2, 138.73 55.82, 140.19 108.12 M140.83 -0.75 C140.61 28.53, 141.36 54.19, 139.52 109.4 M138.82 111.62 C107 108.16, 74.58 109.19, -0.29 109.79 M140.42 110.49 C105.52 108.95, 68.12 109.46, 0.53 109.97 M0.1 109.54 C-1.29 74.06, -0.36 40.92, 1.59 1.39 M-0.74 110.38 C-0.96 85.71, -0.72 62.25, -0.52 -0.86" stroke="#000000" stroke-width="1" fill="none"></path></g><g transform="translate(1165.310209152173 15) rotate(0 63.699920654296875 50)"><text x="63.699920654296875" y="0" font-family="Virgil, Segoe UI Emoji" font-size="20px" fill="#1e1e1e" text-anchor="middle" style="white-space: pre;" direction="ltr" dominant-baseline="text-before-edge">* 'End of </text><text x="63.699920654296875" y="25" font-family="Virgil, Segoe UI Emoji" font-size="20px" fill="#1e1e1e" text-anchor="middle" style="white-space: pre;" direction="ltr" dominant-baseline="text-before-edge">year' should </text><text x="63.699920654296875" y="50" font-family="Virgil, Segoe UI Emoji" font-size="20px" fill="#1e1e1e" text-anchor="middle" style="white-space: pre;" direction="ltr" dominant-baseline="text-before-edge">be </text><text x="63.699920654296875" y="75" font-family="Virgil, Segoe UI Emoji" font-size="20px" fill="#1e1e1e" text-anchor="middle" style="white-space: pre;" direction="ltr" dominant-baseline="text-before-edge">configurable</text></g><g transform="translate(1759.01012980647 200.6333597561346) rotate(0 47.72010040283203 10)"><text x="0" y="0" font-family="Virgil, Segoe UI Emoji" font-size="16px" fill="#1e1e1e" text-anchor="start" style="white-space: pre;" direction="ltr" dominant-baseline="text-before-edge">*Alternative</text></g><g stroke-linecap="round"><g transform="translate(100.32746262536034 343.77184387752584) rotate(0 -16.62868747188196 17.779904296858376)" fill-rule="evenodd"><path d="M0 0 L-5.12 2.81 L-7.59 2.3 L-9.47 0.77 L-9.72 -4.6 L-13.33 -5.48 L-17.14 -5.12 L-18.93 -0.51 L-23.28 0.77 L-27.37 -2.3 L-30.8 -2.05 L-33.51 -0.51 L-31.98 6.65 L-34.28 10.23 L-40.16 9.98 L-40.79 14.76 L-40.16 19.44 L-36.07 18.42 L-33.99 20.48 L-33 23.28 L-37.61 28.14 L-36.57 32.22 L-34.28 35.3 L-28.91 32.23 L-26.29 32.7 L-24.3 34.28 L-24.05 40.16 L-20.55 41.09 L-16.88 40.68 L-15.35 35.82 L-12.87 34.74 L-9.98 34.79 L-5.12 38.89 L-2.41 37.67 L-0.51 35.3 L-2.05 30.19 L-1.55 27.81 L0 26.09 L6.91 26.35 L7.69 22.22 L6.91 17.91 L1.28 16.63 L0.51 11.51 L4.35 6.4 L0 0" stroke="none" stroke-width="0" fill="#1e1e1e" fill-rule="evenodd"></path><path d="M0 0 C-0.85 0.47, -3.54 2.69, -5.12 2.81 C-6.69 2.94, -8.7 2, -9.47 0.77 C-10.23 -0.47, -8.44 -3.62, -9.72 -4.6 C-11 -5.59, -15.61 -5.8, -17.14 -5.12 C-18.68 -4.43, -17.91 -1.49, -18.93 -0.51 C-19.95 0.47, -21.87 1.07, -23.28 0.77 C-24.69 0.47, -25.67 -2.09, -27.37 -2.3 C-29.08 -2.52, -32.75 -2, -33.51 -0.51 C-34.28 0.98, -31.85 4.86, -31.98 6.65 C-32.11 8.44, -32.92 9.68, -34.28 10.23 C-35.65 10.79, -39.18 8.44, -40.16 9.98 C-41.15 11.51, -40.85 18.04, -40.16 19.44 C-39.48 20.85, -37.27 17.78, -36.07 18.42 C-34.88 19.06, -32.75 21.66, -33 23.28 C-33.26 24.9, -37.39 26.14, -37.61 28.14 C-37.82 30.14, -35.73 34.62, -34.28 35.3 C-32.83 35.99, -30.57 32.4, -28.91 32.23 C-27.25 32.06, -25.11 32.96, -24.3 34.28 C-23.49 35.6, -25.28 39.1, -24.05 40.16 C-22.81 41.23, -18.33 41.4, -16.88 40.68 C-15.43 39.95, -16.5 36.8, -15.35 35.82 C-14.2 34.83, -11.68 34.28, -9.98 34.79 C-8.27 35.3, -6.69 38.8, -5.12 38.89 C-3.54 38.97, -1.02 36.75, -0.51 35.3 C0 33.85, -2.13 31.72, -2.05 30.19 C-1.96 28.65, -1.49 26.73, 0 26.09 C1.49 25.45, 5.76 27.71, 6.91 26.35 C8.06 24.99, 7.85 19.53, 6.91 17.91 C5.97 16.29, 2.35 17.69, 1.28 16.63 C0.21 15.56, 0 13.22, 0.51 11.51 C1.02 9.81, 4.43 8.31, 4.35 6.4 C4.26 4.48, 0.72 1.07, 0 0 M0 0 C-0.85 0.47, -3.54 2.69, -5.12 2.81 C-6.69 2.94, -8.7 2, -9.47 0.77 C-10.23 -0.47, -8.44 -3.62, -9.72 -4.6 C-11 -5.59, -15.61 -5.8, -17.14 -5.12 C-18.68 -4.43, -17.91 -1.49, -18.93 -0.51 C-19.95 0.47, -21.87 1.07, -23.28 0.77 C-24.69 0.47, -25.67 -2.09, -27.37 -2.3 C-29.08 -2.52, -32.75 -2, -33.51 -0.51 C-34.28 0.98, -31.85 4.86, -31.98 6.65 C-32.11 8.44, -32.92 9.68, -34.28 10.23 C-35.65 10.79, -39.18 8.44, -40.16 9.98 C-41.15 11.51, -40.85 18.04, -40.16 19.44 C-39.48 20.85, -37.27 17.78, -36.07 18.42 C-34.88 19.06, -32.75 21.66, -33 23.28 C-33.26 24.9, -37.39 26.14, -37.61 28.14 C-37.82 30.14, -35.73 34.62, -34.28 35.3 C-32.83 35.99, -30.57 32.4, -28.91 32.23 C-27.25 32.06, -25.11 32.96, -24.3 34.28 C-23.49 35.6, -25.28 39.1, -24.05 40.16 C-22.81 41.23, -18.33 41.4, -16.88 40.68 C-15.43 39.95, -16.5 36.8, -15.35 35.82 C-14.2 34.83, -11.68 34.28, -9.98 34.79 C-8.27 35.3, -6.69 38.8, -5.12 38.89 C-3.54 38.97, -1.02 36.75, -0.51 35.3 C0 33.85, -2.13 31.72, -2.05 30.19 C-1.96 28.65, -1.49 26.73, 0 26.09 C1.49 25.45, 5.76 27.71, 6.91 26.35 C8.06 24.99, 7.85 19.53, 6.91 17.91 C5.97 16.29, 2.35 17.69, 1.28 16.63 C0.21 15.56, 0 13.22, 0.51 11.51 C1.02 9.81, 4.43 8.31, 4.35 6.4 C4.26 4.48, 0.72 1.07, 0 0" stroke="#1e1e1e" stroke-width="4" fill="none"></path></g></g><mask></mask><g stroke-linecap="round"><g transform="translate(17.992680131584848 349.1414145579978) rotate(0 14.070427860823202 17.524078335752506)" fill-rule="evenodd"><path d="M0 0 L4.09 2.3 L8.19 1.53 L8.95 -3.84 L12.49 -4.89 L16.12 -4.6 L17.65 0.77 L21.49 2.05 L25.07 -0.26 L27.63 1.1 L29.42 3.33 L26.86 7.93 L29.42 12.28 L35.05 13.56 L36.02 16.34 L35.82 19.19 L31.98 20.98 L29.68 23.79 L31.98 29.68 L30.49 32.38 L28.14 34.02 L23.54 31.47 L19.7 33 L18.68 38.37 L15.81 39.65 L12.79 39.65 L10.49 34.79 L6.4 33 L1.53 35.82 L-1.34 33.96 L-3.33 31.21 L-1.02 26.86 L-2.3 23.28 L-7.16 21.75 L-7.96 18.69 L-7.67 15.61 L-3.84 13.81 L-2.56 11 L-4.35 6.4 L0 0" stroke="none" stroke-width="0" fill="#1e1e1e" fill-rule="evenodd"></path><path d="M0 0 C0.68 0.38, 2.73 2.05, 4.09 2.3 C5.46 2.56, 7.38 2.56, 8.19 1.53 C9 0.51, 7.63 -2.81, 8.95 -3.84 C10.28 -4.86, 14.67 -5.37, 16.12 -4.6 C17.57 -3.84, 16.76 -0.34, 17.65 0.77 C18.55 1.88, 20.25 2.22, 21.49 2.05 C22.73 1.88, 23.75 -0.47, 25.07 -0.26 C26.39 -0.04, 29.12 1.96, 29.42 3.33 C29.72 4.69, 26.86 6.44, 26.86 7.93 C26.86 9.42, 28.06 11.34, 29.42 12.28 C30.78 13.22, 33.98 12.41, 35.05 13.56 C36.11 14.71, 36.33 17.95, 35.82 19.19 C35.3 20.42, 33 20.21, 31.98 20.98 C30.95 21.75, 29.68 22.34, 29.68 23.79 C29.68 25.24, 32.23 27.97, 31.98 29.68 C31.72 31.38, 29.55 33.73, 28.14 34.02 C26.73 34.32, 24.94 31.64, 23.54 31.47 C22.13 31.3, 20.51 31.85, 19.7 33 C18.89 34.15, 19.83 37.27, 18.68 38.37 C17.52 39.48, 14.16 40.25, 12.79 39.65 C11.43 39.06, 11.55 35.9, 10.49 34.79 C9.42 33.68, 7.89 32.83, 6.4 33 C4.9 33.17, 3.16 36.11, 1.53 35.82 C-0.09 35.52, -2.9 32.7, -3.33 31.21 C-3.75 29.72, -1.19 28.18, -1.02 26.86 C-0.85 25.54, -1.28 24.13, -2.3 23.28 C-3.33 22.43, -6.27 23.02, -7.16 21.75 C-8.06 20.47, -8.23 16.93, -7.67 15.61 C-7.12 14.28, -4.69 14.58, -3.84 13.81 C-2.98 13.05, -2.47 12.24, -2.56 11 C-2.64 9.76, -4.78 8.23, -4.35 6.4 C-3.92 4.56, -0.72 1.07, 0 0 M0 0 C0.68 0.38, 2.73 2.05, 4.09 2.3 C5.46 2.56, 7.38 2.56, 8.19 1.53 C9 0.51, 7.63 -2.81, 8.95 -3.84 C10.28 -4.86, 14.67 -5.37, 16.12 -4.6 C17.57 -3.84, 16.76 -0.34, 17.65 0.77 C18.55 1.88, 20.25 2.22, 21.49 2.05 C22.73 1.88, 23.75 -0.47, 25.07 -0.26 C26.39 -0.04, 29.12 1.96, 29.42 3.33 C29.72 4.69, 26.86 6.44, 26.86 7.93 C26.86 9.42, 28.06 11.34, 29.42 12.28 C30.78 13.22, 33.98 12.41, 35.05 13.56 C36.11 14.71, 36.33 17.95, 35.82 19.19 C35.3 20.42, 33 20.21, 31.98 20.98 C30.95 21.75, 29.68 22.34, 29.68 23.79 C29.68 25.24, 32.23 27.97, 31.98 29.68 C31.72 31.38, 29.55 33.73, 28.14 34.02 C26.73 34.32, 24.94 31.64, 23.54 31.47 C22.13 31.3, 20.51 31.85, 19.7 33 C18.89 34.15, 19.83 37.27, 18.68 38.37 C17.52 39.48, 14.16 40.25, 12.79 39.65 C11.43 39.06, 11.55 35.9, 10.49 34.79 C9.42 33.68, 7.89 32.83, 6.4 33 C4.9 33.17, 3.16 36.11, 1.53 35.82 C-0.09 35.52, -2.9 32.7, -3.33 31.21 C-3.75 29.72, -1.19 28.18, -1.02 26.86 C-0.85 25.54, -1.28 24.13, -2.3 23.28 C-3.33 22.43, -6.27 23.02, -7.16 21.75 C-8.06 20.47, -8.23 16.93, -7.67 15.61 C-7.12 14.28, -4.69 14.58, -3.84 13.81 C-2.98 13.05, -2.47 12.24, -2.56 11 C-2.64 9.76, -4.78 8.23, -4.35 6.4 C-3.92 4.56, -0.72 1.07, 0 0" stroke="#1e1e1e" stroke-width="4" fill="none"></path></g></g><mask></mask><g stroke-linecap="round"><g transform="translate(63.89562616168291 331.8909761717581) rotate(0 -11.895907191423191 -8.058517774835053)" fill-rule="evenodd"><path d="M0 0 L2.81 0.77 L4.29 -0.94 L5.12 -3.07 L2.81 -5.63 L2.56 -11 L5.88 -12.54 L4.09 -17.4 L0.26 -17.4 L-2.05 -19.19 L-2.56 -24.3 L-5.16 -25.36 L-7.93 -25.33 L-9.72 -21.75 L-13.05 -22 L-16.63 -25.58 L-19.03 -25.1 L-20.98 -23.79 L-20.98 -20.72 L-22.77 -17.14 L-27.63 -18.42 L-29.18 -15.61 L-29.68 -12.28 L-26.09 -9.47 L-25.58 -6.65 L-29.68 -3.58 L-29.47 -0.66 L-28.14 1.79 L-23.28 1.02 L-20.47 2.3 L-20.98 7.42 L-18.95 8.84 L-16.37 9.21 L-12.54 5.88 L-9.72 5.88 L-7.42 9.47 L-4.51 9.18 L-2.05 7.93 L-3.33 3.84 L0 0" stroke="none" stroke-width="0" fill="#1e1e1e" fill-rule="evenodd"></path><path d="M0 0 C0.47 0.13, 1.96 1.28, 2.81 0.77 C3.67 0.26, 5.12 -2, 5.12 -3.07 C5.12 -4.14, 3.24 -4.31, 2.81 -5.63 C2.39 -6.95, 2.05 -9.85, 2.56 -11 C3.07 -12.15, 5.63 -11.47, 5.88 -12.54 C6.14 -13.6, 5.03 -16.59, 4.09 -17.4 C3.16 -18.21, 1.28 -17.1, 0.26 -17.4 C-0.77 -17.69, -1.58 -18.04, -2.05 -19.19 C-2.52 -20.34, -1.58 -23.28, -2.56 -24.3 C-3.54 -25.33, -6.74 -25.75, -7.93 -25.33 C-9.12 -24.9, -8.87 -22.3, -9.72 -21.75 C-10.57 -21.19, -11.9 -21.36, -13.05 -22 C-14.2 -22.64, -15.31 -25.28, -16.63 -25.58 C-17.95 -25.88, -20.25 -24.6, -20.98 -23.79 C-21.7 -22.98, -20.68 -21.83, -20.98 -20.72 C-21.28 -19.61, -21.66 -17.52, -22.77 -17.14 C-23.88 -16.76, -26.48 -19.23, -27.63 -18.42 C-28.78 -17.61, -29.93 -13.77, -29.68 -12.28 C-29.42 -10.79, -26.78 -10.4, -26.09 -9.47 C-25.41 -8.53, -24.99 -7.63, -25.58 -6.65 C-26.18 -5.67, -29.25 -4.99, -29.68 -3.58 C-30.1 -2.17, -29.21 1.02, -28.14 1.79 C-27.07 2.56, -24.56 0.94, -23.28 1.02 C-22 1.11, -20.85 1.24, -20.47 2.3 C-20.08 3.37, -21.66 6.27, -20.98 7.42 C-20.3 8.57, -17.78 9.47, -16.37 9.21 C-14.97 8.95, -13.64 6.44, -12.54 5.88 C-11.43 5.33, -10.57 5.29, -9.72 5.88 C-8.87 6.48, -8.7 9.12, -7.42 9.47 C-6.14 9.81, -2.73 8.87, -2.05 7.93 C-1.36 6.99, -3.67 5.16, -3.33 3.84 C-2.98 2.52, -0.55 0.64, 0 0 M0 0 C0.47 0.13, 1.96 1.28, 2.81 0.77 C3.67 0.26, 5.12 -2, 5.12 -3.07 C5.12 -4.14, 3.24 -4.31, 2.81 -5.63 C2.39 -6.95, 2.05 -9.85, 2.56 -11 C3.07 -12.15, 5.63 -11.47, 5.88 -12.54 C6.14 -13.6, 5.03 -16.59, 4.09 -17.4 C3.16 -18.21, 1.28 -17.1, 0.26 -17.4 C-0.77 -17.69, -1.58 -18.04, -2.05 -19.19 C-2.52 -20.34, -1.58 -23.28, -2.56 -24.3 C-3.54 -25.33, -6.74 -25.75, -7.93 -25.33 C-9.12 -24.9, -8.87 -22.3, -9.72 -21.75 C-10.57 -21.19, -11.9 -21.36, -13.05 -22 C-14.2 -22.64, -15.31 -25.28, -16.63 -25.58 C-17.95 -25.88, -20.25 -24.6, -20.98 -23.79 C-21.7 -22.98, -20.68 -21.83, -20.98 -20.72 C-21.28 -19.61, -21.66 -17.52, -22.77 -17.14 C-23.88 -16.76, -26.48 -19.23, -27.63 -18.42 C-28.78 -17.61, -29.93 -13.77, -29.68 -12.28 C-29.42 -10.79, -26.78 -10.4, -26.09 -9.47 C-25.41 -8.53, -24.99 -7.63, -25.58 -6.65 C-26.18 -5.67, -29.25 -4.99, -29.68 -3.58 C-30.1 -2.17, -29.21 1.02, -28.14 1.79 C-27.07 2.56, -24.56 0.94, -23.28 1.02 C-22 1.11, -20.85 1.24, -20.47 2.3 C-20.08 3.37, -21.66 6.27, -20.98 7.42 C-20.3 8.57, -17.78 9.47, -16.37 9.21 C-14.97 8.95, -13.64 6.44, -12.54 5.88 C-11.43 5.33, -10.57 5.29, -9.72 5.88 C-8.87 6.48, -8.7 9.12, -7.42 9.47 C-6.14 9.81, -2.73 8.87, -2.05 7.93 C-1.36 6.99, -3.67 5.16, -3.33 3.84 C-2.98 2.52, -0.55 0.64, 0 0" stroke="#1e1e1e" stroke-width="4" fill="none"></path></g></g><mask></mask><g stroke-linecap="round" transform="translate(21.164367148747942 356.81619339117185) rotate(0 9.977212483129108 9.59347354147036)"><path d="M19.95 9.59 C19.95 10.15, 19.9 10.71, 19.8 11.26 C19.7 11.81, 19.55 12.35, 19.35 12.87 C19.16 13.4, 18.91 13.91, 18.62 14.39 C18.33 14.87, 17.99 15.33, 17.62 15.76 C17.25 16.19, 16.83 16.59, 16.39 16.94 C15.95 17.3, 15.47 17.62, 14.97 17.9 C14.47 18.18, 13.93 18.42, 13.39 18.61 C12.85 18.8, 12.28 18.94, 11.71 19.04 C11.14 19.14, 10.55 19.19, 9.98 19.19 C9.4 19.19, 8.81 19.14, 8.24 19.04 C7.68 18.94, 7.11 18.8, 6.56 18.61 C6.02 18.42, 5.49 18.18, 4.99 17.9 C4.49 17.62, 4.01 17.3, 3.56 16.94 C3.12 16.59, 2.71 16.19, 2.33 15.76 C1.96 15.33, 1.63 14.87, 1.34 14.39 C1.05 13.91, 0.8 13.4, 0.6 12.87 C0.4 12.35, 0.25 11.81, 0.15 11.26 C0.05 10.71, 0 10.15, 0 9.59 C0 9.04, 0.05 8.47, 0.15 7.93 C0.25 7.38, 0.4 6.83, 0.6 6.31 C0.8 5.79, 1.05 5.28, 1.34 4.8 C1.63 4.32, 1.96 3.85, 2.33 3.43 C2.71 3, 3.12 2.6, 3.56 2.24 C4.01 1.89, 4.49 1.56, 4.99 1.29 C5.49 1.01, 6.02 0.77, 6.56 0.58 C7.11 0.39, 7.68 0.24, 8.24 0.15 C8.81 0.05, 9.4 0, 9.98 0 C10.55 0, 11.14 0.05, 11.71 0.15 C12.28 0.24, 12.85 0.39, 13.39 0.58 C13.93 0.77, 14.47 1.01, 14.97 1.29 C15.47 1.56, 15.95 1.89, 16.39 2.24 C16.83 2.6, 17.25 3, 17.62 3.43 C17.99 3.85, 18.33 4.32, 18.62 4.8 C18.91 5.28, 19.16 5.79, 19.35 6.31 C19.55 6.83, 19.7 7.38, 19.8 7.93 C19.9 8.47, 19.93 9.32, 19.95 9.59 C19.98 9.87, 19.98 9.32, 19.95 9.59" stroke="none" stroke-width="0" fill="#ffffff"></path><path d="M19.95 9.59 C19.95 10.15, 19.9 10.71, 19.8 11.26 C19.7 11.81, 19.55 12.35, 19.35 12.87 C19.16 13.4, 18.91 13.91, 18.62 14.39 C18.33 14.87, 17.99 15.33, 17.62 15.76 C17.25 16.19, 16.83 16.59, 16.39 16.94 C15.95 17.3, 15.47 17.62, 14.97 17.9 C14.47 18.18, 13.93 18.42, 13.39 18.61 C12.85 18.8, 12.28 18.94, 11.71 19.04 C11.14 19.14, 10.55 19.19, 9.98 19.19 C9.4 19.19, 8.81 19.14, 8.24 19.04 C7.68 18.94, 7.11 18.8, 6.56 18.61 C6.02 18.42, 5.49 18.18, 4.99 17.9 C4.49 17.62, 4.01 17.3, 3.56 16.94 C3.12 16.59, 2.71 16.19, 2.33 15.76 C1.96 15.33, 1.63 14.87, 1.34 14.39 C1.05 13.91, 0.8 13.4, 0.6 12.87 C0.4 12.35, 0.25 11.81, 0.15 11.26 C0.05 10.71, 0 10.15, 0 9.59 C0 9.04, 0.05 8.47, 0.15 7.93 C0.25 7.38, 0.4 6.83, 0.6 6.31 C0.8 5.79, 1.05 5.28, 1.34 4.8 C1.63 4.32, 1.96 3.85, 2.33 3.43 C2.71 3, 3.12 2.6, 3.56 2.24 C4.01 1.89, 4.49 1.56, 4.99 1.29 C5.49 1.01, 6.02 0.77, 6.56 0.58 C7.11 0.39, 7.68 0.24, 8.24 0.15 C8.81 0.05, 9.4 0, 9.98 0 C10.55 0, 11.14 0.05, 11.71 0.15 C12.28 0.24, 12.85 0.39, 13.39 0.58 C13.93 0.77, 14.47 1.01, 14.97 1.29 C15.47 1.56, 15.95 1.89, 16.39 2.24 C16.83 2.6, 17.25 3, 17.62 3.43 C17.99 3.85, 18.33 4.32, 18.62 4.8 C18.91 5.28, 19.16 5.79, 19.35 6.31 C19.55 6.83, 19.7 7.38, 19.8 7.93 C19.9 8.47, 19.93 9.32, 19.95 9.59 C19.98 9.87, 19.98 9.32, 19.95 9.59" stroke="#1e1e1e" stroke-width="4" fill="none"></path></g><g stroke-linecap="round" transform="translate(72.13433191039235 349.8855294474082) rotate(0 10.744690366446775 11.12842930810561)"><path d="M21.49 11.13 C21.49 11.77, 21.43 12.43, 21.33 13.06 C21.22 13.7, 21.05 14.33, 20.84 14.93 C20.63 15.54, 20.36 16.13, 20.05 16.69 C19.74 17.25, 19.38 17.79, 18.98 18.28 C18.58 18.78, 18.13 19.24, 17.65 19.65 C17.17 20.07, 16.66 20.44, 16.12 20.77 C15.58 21.09, 15 21.37, 14.42 21.59 C13.84 21.81, 13.22 21.98, 12.61 22.09 C12 22.2, 11.37 22.26, 10.74 22.26 C10.12 22.26, 9.49 22.2, 8.88 22.09 C8.27 21.98, 7.65 21.81, 7.07 21.59 C6.49 21.37, 5.91 21.09, 5.37 20.77 C4.83 20.44, 4.31 20.07, 3.84 19.65 C3.36 19.24, 2.91 18.78, 2.51 18.28 C2.11 17.79, 1.75 17.25, 1.44 16.69 C1.13 16.13, 0.86 15.54, 0.65 14.93 C0.44 14.33, 0.27 13.7, 0.16 13.06 C0.06 12.43, 0 11.77, 0 11.13 C0 10.48, 0.06 9.83, 0.16 9.2 C0.27 8.56, 0.44 7.93, 0.65 7.32 C0.86 6.72, 1.13 6.12, 1.44 5.56 C1.75 5.01, 2.11 4.47, 2.51 3.98 C2.91 3.48, 3.36 3.02, 3.84 2.6 C4.31 2.19, 4.83 1.81, 5.37 1.49 C5.91 1.17, 6.49 0.89, 7.07 0.67 C7.65 0.45, 8.27 0.28, 8.88 0.17 C9.49 0.06, 10.12 0, 10.74 0 C11.37 0, 12 0.06, 12.61 0.17 C13.22 0.28, 13.84 0.45, 14.42 0.67 C15 0.89, 15.58 1.17, 16.12 1.49 C16.66 1.81, 17.17 2.19, 17.65 2.6 C18.13 3.02, 18.58 3.48, 18.98 3.98 C19.38 4.47, 19.74 5.01, 20.05 5.56 C20.36 6.12, 20.63 6.72, 20.84 7.32 C21.05 7.93, 21.22 8.56, 21.33 9.2 C21.43 9.83, 21.46 10.81, 21.49 11.13 C21.52 11.45, 21.52 10.81, 21.49 11.13" stroke="none" stroke-width="0" fill="#ffffff"></path><path d="M21.49 11.13 C21.49 11.77, 21.43 12.43, 21.33 13.06 C21.22 13.7, 21.05 14.33, 20.84 14.93 C20.63 15.54, 20.36 16.13, 20.05 16.69 C19.74 17.25, 19.38 17.79, 18.98 18.28 C18.58 18.78, 18.13 19.24, 17.65 19.65 C17.17 20.07, 16.66 20.44, 16.12 20.77 C15.58 21.09, 15 21.37, 14.42 21.59 C13.84 21.81, 13.22 21.98, 12.61 22.09 C12 22.2, 11.37 22.26, 10.74 22.26 C10.12 22.26, 9.49 22.2, 8.88 22.09 C8.27 21.98, 7.65 21.81, 7.07 21.59 C6.49 21.37, 5.91 21.09, 5.37 20.77 C4.83 20.44, 4.31 20.07, 3.84 19.65 C3.36 19.24, 2.91 18.78, 2.51 18.28 C2.11 17.79, 1.75 17.25, 1.44 16.69 C1.13 16.13, 0.86 15.54, 0.65 14.93 C0.44 14.33, 0.27 13.7, 0.16 13.06 C0.06 12.43, 0 11.77, 0 11.13 C0 10.48, 0.06 9.83, 0.16 9.2 C0.27 8.56, 0.44 7.93, 0.65 7.32 C0.86 6.72, 1.13 6.12, 1.44 5.56 C1.75 5.01, 2.11 4.47, 2.51 3.98 C2.91 3.48, 3.36 3.02, 3.84 2.6 C4.31 2.19, 4.83 1.81, 5.37 1.49 C5.91 1.17, 6.49 0.89, 7.07 0.67 C7.65 0.45, 8.27 0.28, 8.88 0.17 C9.49 0.06, 10.12 0, 10.74 0 C11.37 0, 12 0.06, 12.61 0.17 C13.22 0.28, 13.84 0.45, 14.42 0.67 C15 0.89, 15.58 1.17, 16.12 1.49 C16.66 1.81, 17.17 2.19, 17.65 2.6 C18.13 3.02, 18.58 3.48, 18.98 3.98 C19.38 4.47, 19.74 5.01, 20.05 5.56 C20.36 6.12, 20.63 6.72, 20.84 7.32 C21.05 7.93, 21.22 8.56, 21.33 9.2 C21.43 9.83, 21.46 10.81, 21.49 11.13 C21.52 11.45, 21.52 10.81, 21.49 11.13" stroke="#1e1e1e" stroke-width="4" fill="none"></path></g><g stroke-linecap="round" transform="translate(43.01967283489262 314.00929639100593) rotate(0 8.698082677599814 9.33764758036449)"><path d="M17.4 9.34 C17.4 9.88, 17.35 10.43, 17.26 10.96 C17.18 11.49, 17.04 12.02, 16.87 12.53 C16.7 13.04, 16.48 13.54, 16.23 14.01 C15.98 14.47, 15.68 14.93, 15.36 15.34 C15.04 15.75, 14.67 16.14, 14.29 16.49 C13.9 16.84, 13.48 17.15, 13.05 17.42 C12.61 17.69, 12.15 17.93, 11.67 18.11 C11.2 18.3, 10.7 18.44, 10.21 18.53 C9.71 18.63, 9.2 18.68, 8.7 18.68 C8.19 18.68, 7.68 18.63, 7.19 18.53 C6.69 18.44, 6.2 18.3, 5.72 18.11 C5.25 17.93, 4.79 17.69, 4.35 17.42 C3.91 17.15, 3.49 16.84, 3.11 16.49 C2.72 16.14, 2.36 15.75, 2.03 15.34 C1.71 14.93, 1.42 14.47, 1.17 14.01 C0.91 13.54, 0.7 13.04, 0.52 12.53 C0.35 12.02, 0.22 11.49, 0.13 10.96 C0.04 10.43, 0 9.88, 0 9.34 C0 8.8, 0.04 8.25, 0.13 7.72 C0.22 7.18, 0.35 6.65, 0.52 6.14 C0.7 5.64, 0.91 5.14, 1.17 4.67 C1.42 4.2, 1.71 3.75, 2.03 3.34 C2.36 2.92, 2.72 2.53, 3.11 2.18 C3.49 1.84, 3.91 1.52, 4.35 1.25 C4.79 0.98, 5.25 0.75, 5.72 0.56 C6.2 0.38, 6.69 0.24, 7.19 0.14 C7.68 0.05, 8.19 0, 8.7 0 C9.2 0, 9.71 0.05, 10.21 0.14 C10.7 0.24, 11.2 0.38, 11.67 0.56 C12.15 0.75, 12.61 0.98, 13.05 1.25 C13.48 1.52, 13.9 1.84, 14.29 2.18 C14.67 2.53, 15.04 2.92, 15.36 3.34 C15.68 3.75, 15.98 4.2, 16.23 4.67 C16.48 5.14, 16.7 5.64, 16.87 6.14 C17.04 6.65, 17.18 7.18, 17.26 7.72 C17.35 8.25, 17.37 9.07, 17.4 9.34 C17.42 9.61, 17.42 9.07, 17.4 9.34" stroke="none" stroke-width="0" fill="#ffffff"></path><path d="M17.4 9.34 C17.4 9.88, 17.35 10.43, 17.26 10.96 C17.18 11.49, 17.04 12.02, 16.87 12.53 C16.7 13.04, 16.48 13.54, 16.23 14.01 C15.98 14.47, 15.68 14.93, 15.36 15.34 C15.04 15.75, 14.67 16.14, 14.29 16.49 C13.9 16.84, 13.48 17.15, 13.05 17.42 C12.61 17.69, 12.15 17.93, 11.67 18.11 C11.2 18.3, 10.7 18.44, 10.21 18.53 C9.71 18.63, 9.2 18.68, 8.7 18.68 C8.19 18.68, 7.68 18.63, 7.19 18.53 C6.69 18.44, 6.2 18.3, 5.72 18.11 C5.25 17.93, 4.79 17.69, 4.35 17.42 C3.91 17.15, 3.49 16.84, 3.11 16.49 C2.72 16.14, 2.36 15.75, 2.03 15.34 C1.71 14.93, 1.42 14.47, 1.17 14.01 C0.91 13.54, 0.7 13.04, 0.52 12.53 C0.35 12.02, 0.22 11.49, 0.13 10.96 C0.04 10.43, 0 9.88, 0 9.34 C0 8.8, 0.04 8.25, 0.13 7.72 C0.22 7.18, 0.35 6.65, 0.52 6.14 C0.7 5.64, 0.91 5.14, 1.17 4.67 C1.42 4.2, 1.71 3.75, 2.03 3.34 C2.36 2.92, 2.72 2.53, 3.11 2.18 C3.49 1.84, 3.91 1.52, 4.35 1.25 C4.79 0.98, 5.25 0.75, 5.72 0.56 C6.2 0.38, 6.69 0.24, 7.19 0.14 C7.68 0.05, 8.19 0, 8.7 0 C9.2 0, 9.71 0.05, 10.21 0.14 C10.7 0.24, 11.2 0.38, 11.67 0.56 C12.15 0.75, 12.61 0.98, 13.05 1.25 C13.48 1.52, 13.9 1.84, 14.29 2.18 C14.67 2.53, 15.04 2.92, 15.36 3.34 C15.68 3.75, 15.98 4.2, 16.23 4.67 C16.48 5.14, 16.7 5.64, 16.87 6.14 C17.04 6.65, 17.18 7.18, 17.26 7.72 C17.35 8.25, 17.37 9.07, 17.4 9.34 C17.42 9.61, 17.42 9.07, 17.4 9.34" stroke="#1e1e1e" stroke-width="4" fill="none"></path></g><g stroke-linecap="round" transform="translate(1941.589387088406 125.54301763540164) rotate(0 11.823494945085486 9.169014898596672)"><path d="M15.31 1.34 C17.62 2.09, 21.44 3.86, 22.76 5.55 C24.07 7.23, 23.76 9.74, 23.19 11.45 C22.61 13.15, 21.32 14.67, 19.31 15.77 C17.29 16.87, 13.72 18.14, 11.09 18.04 C8.46 17.95, 5.45 16.31, 3.54 15.19 C1.62 14.08, -0.01 13.09, -0.4 11.34 C-0.8 9.6, -0.03 6.64, 1.17 4.73 C2.38 2.83, 3.94 0.63, 6.84 -0.09 C9.75 -0.81, 16.43 0.13, 18.62 0.4 C20.81 0.67, 20.35 1.35, 19.99 1.54 M17.13 0.56 C19.18 1.16, 22.26 3.41, 23.35 5.45 C24.44 7.49, 24.38 10.83, 23.69 12.82 C23 14.82, 21.34 16.75, 19.23 17.42 C17.12 18.09, 13.55 16.98, 11 16.82 C8.46 16.66, 5.58 17.61, 3.99 16.45 C2.39 15.28, 1.7 12.09, 1.42 9.82 C1.14 7.55, 1.07 4.23, 2.31 2.83 C3.54 1.43, 6.39 1.52, 8.83 1.42 C11.26 1.32, 15.5 2.41, 16.91 2.21 C18.32 2, 17.15 0.19, 17.28 0.2" stroke="#000000" stroke-width="1" fill="none"></path></g><g stroke-linecap="round"><g transform="translate(1953.5213380719315 144.63768719429578) rotate(0 0.36844671799394746 27.60259265640741)"><path d="M0.85 0.83 C1.12 9.65, 0.77 44.74, 1.03 53.82 M-0.17 0.22 C-0.03 9.1, -0.52 46.12, -0.14 54.99" stroke="#000000" stroke-width="1" fill="none"></path></g></g><mask></mask><g stroke-linecap="round"><g transform="translate(1928.089738276737 155.4826720818624) rotate(0 26.750025835636052 -0.09372953159258657)"><path d="M-0.43 -0.71 C8.42 -0.85, 44.84 0.06, 53.93 -0.02 M1.55 1.53 C10.25 0.98, 44.74 -1.46, 53.47 -1.72" stroke="#000000" stroke-width="1" fill="none"></path></g></g><mask></mask><g stroke-linecap="round"><g transform="translate(1932.8384659604294 219.05368267505668) rotate(0 11.235476017666088 -9.704439863607462)"><path d="M0.93 0.81 C4.76 -2.44, 18.97 -16.75, 22.5 -20.22 M-0.03 0.19 C3.77 -2.83, 18.51 -15.7, 22.15 -18.85" stroke="#000000" stroke-width="1" fill="none"></path></g></g><mask></mask><g stroke-linecap="round"><g transform="translate(1955.5115280736118 198.894804998216) rotate(0 10.29043277704318 9.095320459092989)"><path d="M1.12 -0.33 C4.36 2.58, 17.35 15.28, 20.33 18.25 M0.26 -1.54 C3.32 1.49, 16.84 16.41, 19.79 19.73" stroke="#000000" stroke-width="1" fill="none"></path></g></g><mask></mask><g transform="translate(1878.5702112884037 247.72370187686778) rotate(0 64.4399185180664 12.5)"><text x="0" y="0" font-family="Virgil, Segoe UI Emoji" font-size="20px" fill="#1e1e1e" text-anchor="start" style="white-space: pre;" direction="ltr" dominant-baseline="text-before-edge">Road Warrior</text></g></svg>