<svg version="1.1" xmlns="http://www.w3.org/2000/svg" viewBox="0 0 1581.5198669433594 1252.4126160144806" width="1581.5198669433594" height="1252.4126160144806">
  <!-- svg-source:excalidraw -->
  
  <defs>
    <style class="style-fonts">
      @font-face {
        font-family: "Virgil";
        src: url("https://excalidraw.com/Virgil.woff2");
      }
      @font-face {
        font-family: "Cascadia";
        src: url("https://excalidraw.com/Cascadia.woff2");
      }
    </style>
    
  </defs>
  <rect x="0" y="0" width="1581.5198669433594" height="1252.4126160144806" fill="#ffffff"></rect><g stroke-linecap="round" transform="translate(196.77015096467653 222.81384330689912) rotate(0 10.417546326300766 8.078714281717083)"><path d="M10.35 0.74 C12.7 0.79, 16.61 0.89, 18.36 2.05 C20.12 3.22, 20.9 5.94, 20.88 7.71 C20.87 9.48, 19.45 11.43, 18.27 12.7 C17.09 13.97, 15.78 14.72, 13.8 15.34 C11.83 15.96, 8.63 17, 6.4 16.41 C4.17 15.83, 1.63 13.48, 0.44 11.82 C-0.75 10.17, -1.18 8.22, -0.73 6.49 C-0.29 4.76, 1.2 2.42, 3.1 1.45 C5.01 0.48, 9.18 0.93, 10.71 0.67 C12.23 0.41, 12.07 -0.27, 12.27 -0.12 M14.87 1.12 C16.97 1.2, 17.04 1.92, 18 3.08 C18.96 4.25, 20.78 6.4, 20.64 8.1 C20.5 9.8, 18.7 12.09, 17.14 13.28 C15.58 14.46, 13.57 14.81, 11.27 15.21 C8.98 15.62, 5.11 16.77, 3.37 15.7 C1.64 14.62, 1.15 10.39, 0.86 8.76 C0.56 7.13, 0.91 7.25, 1.61 5.92 C2.31 4.59, 3.29 1.86, 5.06 0.77 C6.83 -0.32, 11.07 -0.48, 12.25 -0.63 C13.43 -0.79, 11.97 -0.56, 12.14 -0.16" stroke="#000000" stroke-width="1" fill="none"></path></g><g stroke-linecap="round"><g transform="translate(207.2832566674611 239.6379385206299) rotate(0 0.8401266753756715 24.023532223955314)"><path d="M0.11 -0.56 C0.12 7.48, 0.27 39.13, 0.61 47.41 M-1.29 1.76 C-0.94 10.01, 2.45 41.01, 2.97 48.61" stroke="#000000" stroke-width="1" fill="none"></path></g></g><mask></mask><g stroke-linecap="round"><g transform="translate(184.87576461465687 249.1933308136013) rotate(0 23.450969873949248 0.21372764320916815)"><path d="M-0.67 -0.64 C7.24 -0.49, 39.69 0.34, 47.57 0.35 M1.18 1.64 C9 1.53, 39.65 -1.07, 47.08 -1.21" stroke="#000000" stroke-width="1" fill="none"></path></g></g><mask></mask><g stroke-linecap="round"><g transform="translate(189.05981432801286 305.20502202167535) rotate(0 9.314820515542976 -8.14327555653692)"><path d="M0.88 1.08 C4.12 -1.71, 15.62 -14.08, 18.75 -17.36 M-0.12 0.6 C3.01 -1.92, 14.51 -12.66, 17.75 -15.74" stroke="#000000" stroke-width="1" fill="none"></path></g></g><mask></mask><g stroke-linecap="round"><g transform="translate(209.03679034231266 287.44326519257413) rotate(0 8.214657401518878 7.606440328492582)"><path d="M-0.09 0.16 C2.77 2.49, 15.09 12.34, 18.03 15.06 M-1.6 -0.8 C1.1 2.15, 14.41 12.88, 17.5 16.01" stroke="#000000" stroke-width="1" fill="none"></path></g></g><mask></mask><g stroke-linecap="round" transform="translate(205.77015096467653 950.8138433068991) rotate(0 10.417546326300766 8.078714281717112)"><path d="M14.93 1.45 C17.01 1.96, 18.56 3.03, 19.46 4.28 C20.37 5.52, 20.76 7.39, 20.36 8.93 C19.95 10.48, 18.85 12.45, 17.04 13.54 C15.23 14.63, 11.92 15.34, 9.51 15.46 C7.1 15.58, 4.26 15.17, 2.59 14.26 C0.92 13.35, -0.32 11.58, -0.51 10 C-0.7 8.42, 0.03 6.52, 1.45 4.79 C2.88 3.05, 5.7 0.16, 8.03 -0.42 C10.36 -0.99, 14.02 0.98, 15.43 1.33 C16.85 1.67, 16.61 1.52, 16.54 1.65 M13.47 1.15 C15.87 1.47, 19.44 3.09, 20.43 4.28 C21.43 5.47, 19.92 6.88, 19.43 8.29 C18.94 9.7, 18.73 11.42, 17.5 12.75 C16.27 14.07, 14.12 15.68, 12.04 16.23 C9.96 16.78, 6.79 17.03, 5.03 16.03 C3.27 15.03, 2.01 12.07, 1.47 10.22 C0.94 8.36, 0.9 6.63, 1.83 4.88 C2.77 3.13, 5.26 0.46, 7.08 -0.28 C8.9 -1.01, 11.73 0.18, 12.76 0.45 C13.8 0.73, 13.32 1.32, 13.3 1.38" stroke="#000000" stroke-width="1" fill="none"></path></g><g stroke-linecap="round"><g transform="translate(216.2832566674611 967.6379385206299) rotate(0 0.6603111678817868 24.998767065142772)"><path d="M-0.15 0.91 C-0.17 9.05, 0.26 40.06, 0.63 48.09 M-1.68 0.34 C-1.38 8.76, 2.44 41.83, 3 49.66" stroke="#000000" stroke-width="1" fill="none"></path></g></g><mask></mask><g stroke-linecap="round"><g transform="translate(193.87576461465687 977.1933308136013) rotate(0 23.33158879140234 -0.01646282104900365)"><path d="M0.91 -0.65 C8.83 -0.62, 38.93 0.09, 46.73 0.05 M-0.07 1.62 C7.76 1.33, 37.88 -1.44, 45.81 -1.66" stroke="#000000" stroke-width="1" fill="none"></path></g></g><mask></mask><g stroke-linecap="round"><g transform="translate(198.05981432801286 1033.2050220216752) rotate(0 9.485596762222002 -8.997548541003425)"><path d="M-0.65 0.04 C2.65 -2.85, 16.4 -13.55, 19.62 -16.47 M1.21 -0.98 C4.43 -4.27, 16.31 -15.51, 19.08 -18.04" stroke="#000000" stroke-width="1" fill="none"></path></g></g><mask></mask><g stroke-linecap="round"><g transform="translate(218.03679034231266 1015.4432651925741) rotate(0 8.4388346741367 8.808254912628627)"><path d="M0.04 0.78 C2.94 3.56, 15.4 13.5, 18.27 16.01 M-1.39 0.15 C1.36 3.17, 14.89 14.66, 17.88 17.47" stroke="#000000" stroke-width="1" fill="none"></path></g></g><mask></mask><g stroke-linecap="round" transform="translate(142.7701509646766 489.8138433068991) rotate(0 10.417546326300766 8.078714281717083)"><path d="M10.21 -0.44 C12.51 -0.37, 15.58 0.89, 17.38 2.16 C19.18 3.44, 20.68 5.64, 21.03 7.19 C21.38 8.74, 20.55 10.1, 19.48 11.45 C18.42 12.8, 16.76 14.58, 14.65 15.29 C12.55 16, 9.18 16.08, 6.85 15.72 C4.52 15.36, 1.73 14.54, 0.69 13.14 C-0.36 11.74, 0.26 9.08, 0.57 7.32 C0.88 5.57, 0.66 3.72, 2.55 2.59 C4.45 1.47, 10.41 1.09, 11.94 0.58 C13.48 0.06, 11.83 -0.7, 11.76 -0.5" stroke="#000000" stroke-width="1.5" fill="none" stroke-dasharray="1.5 7"></path></g><g stroke-linecap="round"><g transform="translate(153.2832566674611 506.63793852062986) rotate(0 0.14525141054664914 23.459220741975628)"><path d="M-0.2 -0.05 C0.06 7.96, 0.24 39.05, 0.49 46.97" stroke="#000000" stroke-width="1.5" fill="none" stroke-dasharray="1.5 7"></path></g></g><mask></mask><g stroke-linecap="round"><g transform="translate(130.87576461465693 516.1933308136013) rotate(0 22.779051052614392 -0.7570956465607424)"><path d="M-0.05 -0.79 C7.73 -0.87, 37.91 -0.79, 45.61 -0.69" stroke="#000000" stroke-width="1.5" fill="none" stroke-dasharray="1.5 7"></path></g></g><mask></mask><g stroke-linecap="round"><g transform="translate(135.05981432801292 572.2050220216753) rotate(0 9.043116674941729 -9.569450109275579)"><path d="M-0.79 -1.08 C2.39 -4.08, 15.51 -15.4, 18.87 -18.06" stroke="#000000" stroke-width="1.5" fill="none" stroke-dasharray="1.5 7"></path></g></g><mask></mask><g stroke-linecap="round"><g transform="translate(155.0367903423126 554.4432651925741) rotate(0 7.800582365958917 8.373446568895872)"><path d="M-1.08 0.03 C1.71 2.95, 13.55 13.94, 16.68 16.71" stroke="#000000" stroke-width="1.5" fill="none" stroke-dasharray="1.5 7"></path></g></g><mask></mask><g stroke-linecap="round" transform="translate(1497.7701509646765 887.8138433068991) rotate(0 10.417546326300794 8.078714281717112)"><path d="M12.71 -0.66 C14.84 -0.55, 16.11 1.1, 17.48 2.38 C18.85 3.65, 20.78 5.23, 20.95 7 C21.12 8.77, 19.83 11.62, 18.49 13 C17.15 14.38, 15.02 14.77, 12.9 15.28 C10.79 15.79, 7.91 16.84, 5.81 16.04 C3.72 15.25, 1.06 12.21, 0.33 10.51 C-0.41 8.8, 0.66 7.36, 1.4 5.79 C2.14 4.22, 2.61 2.09, 4.76 1.07 C6.9 0.05, 12.74 -0.16, 14.26 -0.31 C15.79 -0.45, 14 -0.18, 13.91 0.2 M9.97 -0.58 C11.89 -0.85, 14.56 -0.28, 16.07 0.94 C17.57 2.16, 18.38 5.25, 19 6.74 C19.61 8.24, 20.09 8.48, 19.73 9.9 C19.37 11.32, 18.77 14.15, 16.83 15.26 C14.88 16.36, 10.36 17.05, 8.04 16.54 C5.72 16.03, 4.44 13.53, 2.9 12.19 C1.35 10.86, -1.1 9.89, -1.24 8.52 C-1.37 7.14, 0.47 5.39, 2.08 3.94 C3.69 2.49, 7.16 0.24, 8.43 -0.2 C9.69 -0.64, 9.67 1.03, 9.67 1.31" stroke="#000000" stroke-width="1" fill="none"></path></g><g stroke-linecap="round"><g transform="translate(1508.283256667461 904.6379385206299) rotate(0 0.9141879826867125 24.376494515908462)"><path d="M0.48 0.35 C0.64 8.41, 0.05 40.04, 0.34 47.84 M-0.73 -0.51 C-0.15 7.78, 2.11 41.18, 2.56 49.27" stroke="#000000" stroke-width="1" fill="none"></path></g></g><mask></mask><g stroke-linecap="round"><g transform="translate(1485.8757646146569 914.1933308136013) rotate(0 22.776033678015892 -0.11468691142403031)"><path d="M0.35 -0.94 C8.18 -0.98, 38.9 0.33, 46.48 0.22 M-0.93 1.18 C6.78 0.77, 37.23 -1.09, 45.42 -1.41" stroke="#000000" stroke-width="1" fill="none"></path></g></g><mask></mask><g stroke-linecap="round"><g transform="translate(1490.0598143280129 970.2050220216754) rotate(0 9.42118752263184 -9.311561260195958)"><path d="M-0.94 -0.21 C2.28 -3.34, 16.63 -15.46, 19.78 -18.41 M0.77 -1.37 C3.87 -4.4, 16.06 -14.77, 19.33 -17.34" stroke="#000000" stroke-width="1" fill="none"></path></g></g><mask></mask><g stroke-linecap="round"><g transform="translate(1510.0367903423125 952.4432651925742) rotate(0 8.396641286981207 8.393623238301643)"><path d="M-0.21 0.95 C2.45 3.65, 13.49 12.75, 16.33 15.31 M-1.78 0.4 C1.23 3.31, 15.64 13.51, 18.57 16.39" stroke="#000000" stroke-width="1" fill="none"></path></g></g><mask></mask><g stroke-linecap="round" transform="translate(1202.7701509646763 809.8138433068991) rotate(0 10.417546326300794 8.078714281717112)"><path d="M7.62 0.68 C9.65 0.05, 12.69 0.96, 14.72 1.43 C16.76 1.9, 18.83 2.27, 19.83 3.5 C20.83 4.73, 21.31 7.14, 20.72 8.81 C20.14 10.48, 18.1 12.14, 16.31 13.51 C14.52 14.88, 12.05 16.76, 9.96 17.03 C7.88 17.3, 5.41 16.26, 3.79 15.12 C2.17 13.97, 0.59 11.9, 0.24 10.16 C-0.12 8.43, 0.38 6.4, 1.67 4.73 C2.95 3.05, 6.74 0.86, 7.94 0.13 C9.14 -0.61, 8.73 0.23, 8.86 0.31 M9.84 -0.3 C12.06 -0.89, 14.08 0.27, 15.57 1.37 C17.05 2.47, 17.82 4.64, 18.73 6.28 C19.63 7.93, 21.69 9.71, 21 11.24 C20.3 12.77, 16.55 14.44, 14.56 15.45 C12.56 16.47, 10.89 17.57, 9.03 17.34 C7.17 17.12, 5.01 15.4, 3.41 14.08 C1.8 12.76, -0.53 11.32, -0.59 9.41 C-0.65 7.51, 1.45 4.03, 3.04 2.65 C4.63 1.28, 7.99 1.76, 8.95 1.17 C9.91 0.58, 8.62 -0.97, 8.81 -0.88" stroke="#000000" stroke-width="1" fill="none"></path></g><g stroke-linecap="round"><g transform="translate(1213.283256667461 826.6379385206299) rotate(0 0.01309706054689741 24.071582864511356)"><path d="M-0.03 -0.83 C0.07 7.38, 1.17 40.78, 1.53 48.97 M-1.5 1.36 C-1.62 9.25, 0.16 39.26, 0.72 47.33" stroke="#000000" stroke-width="1" fill="none"></path></g></g><mask></mask><g stroke-linecap="round"><g transform="translate(1190.8757646146569 836.1933308136013) rotate(0 23.39141317515009 -0.6415499111240024)"><path d="M-0.83 0.25 C7.15 0.28, 39.65 0.16, 47.61 0.13 M0.94 -0.66 C8.86 -0.96, 39.58 -1.35, 47.14 -1.54" stroke="#000000" stroke-width="1" fill="none"></path></g></g><mask></mask><g stroke-linecap="round"><g transform="translate(1195.0598143280126 892.2050220216754) rotate(0 9.311882949668757 -9.177307171696441)"><path d="M0.25 0.92 C3.54 -1.82, 16.46 -14.39, 19.7 -17.28 M-1.07 0.35 C2.13 -2.7, 15.8 -16.19, 19.2 -19.27" stroke="#000000" stroke-width="1" fill="none"></path></g></g><mask></mask><g stroke-linecap="round"><g transform="translate(1215.0367903423125 874.4432651925742) rotate(0 8.700662318544346 8.632837824092974)"><path d="M0.92 0.86 C3.97 3.65, 14.56 14.38, 17.46 17 M-0.06 0.27 C2.92 2.7, 13.61 12.94, 16.64 15.31" stroke="#000000" stroke-width="1" fill="none"></path></g></g><mask></mask><g transform="translate(139 331.4126160144806) rotate(0 64.4399185180664 12.5)"><text x="0" y="0" font-family="Virgil, Segoe UI Emoji" font-size="20px" fill="#1e1e1e" text-anchor="start" style="white-space: pre;" direction="ltr" dominant-baseline="text-before-edge">Road Warrior</text></g><g transform="translate(129 1067.4126160144806) rotate(0 92.36990356445312 12.5)"><text x="0" y="0" font-family="Virgil, Segoe UI Emoji" font-size="20px" fill="#1e1e1e" text-anchor="start" style="white-space: pre;" direction="ltr" dominant-baseline="text-before-edge">Analytics Consumer</text></g><g transform="translate(1116 914.4126160144806) rotate(0 76.41991424560547 12.5)"><text x="0" y="0" font-family="Virgil, Segoe UI Emoji" font-size="20px" fill="#1e1e1e" text-anchor="start" style="white-space: pre;" direction="ltr" dominant-baseline="text-before-edge">Travel Systems</text></g><g transform="translate(28 533.4126160144806) rotate(0 53.149940490722656 12.5)"><text x="0" y="0" font-family="Virgil, Segoe UI Emoji" font-size="20px" fill="#1e1e1e" text-anchor="start" style="white-space: pre;" direction="ltr" dominant-baseline="text-before-edge">Trip Viewer</text></g><g transform="translate(1434 987.4126160144806) rotate(0 68.75993347167969 12.5)"><text x="0" y="0" font-family="Virgil, Segoe UI Emoji" font-size="20px" fill="#1e1e1e" text-anchor="start" style="white-space: pre;" direction="ltr" dominant-baseline="text-before-edge">Travel Agency</text></g><g stroke-linecap="round" transform="translate(385 264.4126160144806) rotate(0 298 460.5)"><path d="M32 0 M32 0 C215.73 -0.3, 397.59 -0.41, 564 0 M32 0 C190.94 -0.75, 350.2 -0.88, 564 0 M564 0 C586.25 -0.96, 594.23 11.54, 596 32 M564 0 C585.29 2.17, 597.2 12.68, 596 32 M596 32 C595.1 340.81, 595.96 650.13, 596 889 M596 32 C594.44 272.93, 594.13 513.79, 596 889 M596 889 C595.27 910.54, 586.63 921.66, 564 921 M596 889 C595.01 909.98, 587.04 918.72, 564 921 M564 921 C370.83 921.96, 179.21 923.16, 32 921 M564 921 C434.22 920.22, 304.46 920.03, 32 921 M32 921 C12.37 920.43, -0.05 908.71, 0 889 M32 921 C8.91 920.01, 1.02 910.74, 0 889 M0 889 C-3.05 703.19, -2.03 515.54, 0 32 M0 889 C-2.59 690.2, -2.37 491.49, 0 32 M0 32 C0.19 9.82, 10.66 -1.12, 32 0 M0 32 C-2.27 11.99, 12.87 -0.71, 32 0" stroke="#1e1e1e" stroke-width="1" fill="none"></path></g><g transform="translate(546 224.4126160144806) rotate(0 83.159912109375 12.5)"><text x="0" y="0" font-family="Virgil, Segoe UI Emoji" font-size="20px" fill="#1e1e1e" text-anchor="start" style="white-space: pre;" direction="ltr" dominant-baseline="text-before-edge">System Boundary</text></g><g stroke-linecap="round" transform="translate(447 264.4126160144806) rotate(0 99 42.5)"><path d="M94.35 -0.22 C107.9 -0.79, 125.15 1.89, 138.47 4.41 C151.79 6.94, 164.81 10.57, 174.26 14.92 C183.71 19.27, 191.55 24.63, 195.17 30.49 C198.79 36.35, 198.58 43.81, 196 50.07 C193.42 56.33, 188.13 63.04, 179.68 68.04 C171.22 73.04, 158.01 77.28, 145.28 80.07 C132.54 82.87, 117.45 84.59, 103.25 84.83 C89.05 85.08, 73.2 83.81, 60.09 81.54 C46.98 79.28, 33.93 75.89, 24.59 71.26 C15.26 66.63, 8.02 59.94, 4.08 53.77 C0.14 47.61, -1.66 40.28, 0.97 34.27 C3.59 28.25, 11.44 22.55, 19.85 17.7 C28.25 12.84, 37.23 8.05, 51.39 5.13 C65.55 2.2, 94.41 0.79, 104.8 0.14 C115.18 -0.51, 113.73 0.41, 113.72 1.21 M131.28 2.01 C144.33 3.57, 156.62 9.16, 166.97 13.32 C177.32 17.48, 188.14 21.51, 193.39 26.97 C198.64 32.43, 200.25 39.57, 198.49 46.08 C196.73 52.59, 190.51 60.68, 182.83 66.04 C175.14 71.4, 164.42 74.97, 152.37 78.23 C140.33 81.49, 124.67 84.95, 110.54 85.58 C96.4 86.21, 81.23 84.01, 67.55 82.02 C53.87 80.03, 38.89 77.73, 28.45 73.65 C18.01 69.57, 9.59 63.27, 4.92 57.55 C0.25 51.82, -1.06 45.51, 0.45 39.29 C1.96 33.08, 6.67 25.85, 13.97 20.26 C21.28 14.67, 32.25 8.93, 44.27 5.77 C56.29 2.61, 71.8 1.78, 86.09 1.3 C100.38 0.82, 122.61 2.67, 130 2.89 C137.39 3.11, 131.05 2.02, 130.42 2.61" stroke="#1e1e1e" stroke-width="1" fill="none"></path></g><g transform="translate(483.5965034305982 281.8605778140523) rotate(0 62.399925231933594 25)"><text x="62.399925231933594" y="0" font-family="Virgil, Segoe UI Emoji" font-size="20px" fill="#1e1e1e" text-anchor="middle" style="white-space: pre;" direction="ltr" dominant-baseline="text-before-edge">CRUD </text><text x="62.399925231933594" y="25" font-family="Virgil, Segoe UI Emoji" font-size="20px" fill="#1e1e1e" text-anchor="middle" style="white-space: pre;" direction="ltr" dominant-baseline="text-before-edge">Reservation </text></g><g stroke-linecap="round" transform="translate(713 749.4126160144806) rotate(0 99 48)"><path d="M53.06 5.82 C63.59 2.32, 78.91 0.01, 92.2 -0.41 C105.49 -0.83, 120.34 0.9, 132.79 3.3 C145.24 5.7, 157.23 9.65, 166.92 13.99 C176.6 18.34, 185.82 23.36, 190.89 29.36 C195.97 35.36, 198.01 43.25, 197.37 49.99 C196.74 56.73, 192.96 64.05, 187.09 69.83 C181.22 75.61, 172.2 80.52, 162.15 84.67 C152.1 88.82, 139.54 93.01, 126.79 94.72 C114.04 96.43, 99.15 95.84, 85.65 94.93 C72.15 94.03, 57.32 92.66, 45.8 89.31 C34.28 85.96, 23.95 80.18, 16.54 74.81 C9.12 69.45, 3.42 63.57, 1.31 57.13 C-0.8 50.69, 0.61 42.78, 3.89 36.19 C7.17 29.59, 12 22.8, 20.97 17.54 C29.94 12.28, 50.66 6.9, 57.72 4.63 C64.78 2.36, 62.79 3.35, 63.34 3.9 M91.35 1.37 C104.05 0.21, 119.78 0.28, 132.67 2.19 C145.56 4.09, 158.86 8.09, 168.68 12.79 C178.51 17.5, 186.9 24.38, 191.62 30.39 C196.35 36.4, 197.75 42.28, 197.02 48.84 C196.29 55.39, 192.96 63.94, 187.24 69.74 C181.51 75.54, 172.66 79.73, 162.67 83.64 C152.67 87.55, 140.26 91.42, 127.28 93.18 C114.31 94.94, 98.27 94.79, 84.83 94.18 C71.39 93.56, 57.72 92.58, 46.63 89.49 C35.54 86.41, 25.82 81.2, 18.28 75.67 C10.73 70.15, 4.16 62.72, 1.37 56.34 C-1.43 49.95, -1.89 43.6, 1.52 37.37 C4.93 31.13, 13.61 24.25, 21.82 18.95 C30.03 13.64, 38.96 8.54, 50.77 5.55 C62.59 2.57, 85.84 1.61, 92.73 1.02 C99.61 0.43, 92.11 1.24, 92.07 2.02" stroke="#1e1e1e" stroke-width="1" fill="none"></path></g><g transform="translate(759.876486951106 772.4714905175263) rotate(0 52.11994171142578 25)"><text x="52.11994171142578" y="0" font-family="Virgil, Segoe UI Emoji" font-size="20px" fill="#1e1e1e" text-anchor="middle" style="white-space: pre;" direction="ltr" dominant-baseline="text-before-edge">View Trip </text><text x="52.11994171142578" y="25" font-family="Virgil, Segoe UI Emoji" font-size="20px" fill="#1e1e1e" text-anchor="middle" style="white-space: pre;" direction="ltr" dominant-baseline="text-before-edge">Dashboard</text></g><g stroke-linecap="round" transform="translate(664 846.4126160144806) rotate(0 99 60)"><path d="M109.28 1.08 C122.3 0.91, 136.78 3.67, 148.4 7.52 C160.02 11.37, 171.18 17.71, 179 24.2 C186.83 30.69, 192.62 38.59, 195.38 46.45 C198.15 54.31, 198.31 63.37, 195.59 71.34 C192.87 79.32, 186.72 87.56, 179.07 94.31 C171.41 101.06, 161.13 107.55, 149.65 111.84 C138.17 116.13, 123.69 119.16, 110.2 120.06 C96.71 120.96, 81.38 119.6, 68.73 117.24 C56.09 114.88, 44.29 111.32, 34.33 105.91 C24.36 100.49, 14.76 92.37, 8.94 84.75 C3.13 77.13, -0.38 68.37, -0.56 60.19 C-0.74 52.01, 2.4 43.22, 7.88 35.69 C13.36 28.15, 22.28 20.38, 32.33 14.99 C42.38 9.59, 55.08 5.66, 68.19 3.31 C81.29 0.96, 103.36 1.16, 110.94 0.88 C118.52 0.61, 113.66 0.73, 113.65 1.67 M61.92 2.96 C73.66 -0.82, 91.65 -0.07, 105.31 0.42 C118.97 0.91, 132.24 2.53, 143.89 5.91 C155.54 9.29, 166.76 14.1, 175.23 20.69 C183.69 27.27, 191.17 37.16, 194.67 45.4 C198.17 53.65, 198.34 62.44, 196.22 70.16 C194.11 77.88, 189.16 85.11, 181.98 91.75 C174.8 98.39, 164.23 105.61, 153.14 110 C142.05 114.39, 128.93 116.98, 115.44 118.09 C101.95 119.19, 85.09 118.55, 72.2 116.62 C59.31 114.7, 48.33 111.37, 38.1 106.54 C27.88 101.71, 17.21 94.93, 10.86 87.65 C4.5 80.37, 0.46 70.93, -0.02 62.87 C-0.49 54.82, 3 46.94, 7.99 39.3 C12.97 31.65, 20.83 22.73, 29.9 17 C38.98 11.28, 56.66 6.79, 62.42 4.96 C68.19 3.14, 63.9 5.04, 64.52 6.06" stroke="#1e1e1e" stroke-width="1" fill="none"></path></g><g transform="translate(712.4064857304029 868.9862091432877) rotate(0 50.589942932128906 37.5)"><text x="50.589942932128906" y="0" font-family="Virgil, Segoe UI Emoji" font-size="20px" fill="#1e1e1e" text-anchor="middle" style="white-space: pre;" direction="ltr" dominant-baseline="text-before-edge">Generate </text><text x="50.589942932128906" y="25" font-family="Virgil, Segoe UI Emoji" font-size="20px" fill="#1e1e1e" text-anchor="middle" style="white-space: pre;" direction="ltr" dominant-baseline="text-before-edge">Yearly </text><text x="50.589942932128906" y="50" font-family="Virgil, Segoe UI Emoji" font-size="20px" fill="#1e1e1e" text-anchor="middle" style="white-space: pre;" direction="ltr" dominant-baseline="text-before-edge">Report</text></g><g stroke-linecap="round" transform="translate(538 1039.4126160144806) rotate(0 99 60)"><path d="M75.48 1.95 C87.39 -0.81, 103.54 -1.13, 116.76 0.21 C129.99 1.54, 143.65 5.17, 154.85 9.95 C166.05 14.73, 176.77 21.78, 183.95 28.88 C191.12 35.98, 196.4 44.37, 197.9 52.57 C199.41 60.76, 196.93 70.21, 192.97 78.06 C189 85.9, 182.8 93.54, 174.13 99.64 C165.47 105.74, 153.18 111.4, 141 114.66 C128.82 117.92, 114.45 119.04, 101.07 119.22 C87.7 119.39, 73.26 118.56, 60.76 115.69 C48.26 112.82, 35.3 107.86, 26.08 101.98 C16.86 96.09, 9.69 88.34, 5.42 80.4 C1.15 72.46, -0.55 62.63, 0.44 54.34 C1.43 46.06, 4.98 37.73, 11.38 30.71 C17.78 23.68, 26.92 17.17, 38.85 12.19 C50.78 7.21, 74.33 2.7, 82.97 0.83 C91.6 -1.03, 90.39 0.13, 90.64 0.99 M52.38 7.26 C62.99 2.6, 80.19 0.25, 93.76 -0.4 C107.32 -1.06, 121.19 0.38, 133.76 3.34 C146.34 6.29, 159.63 11.76, 169.21 17.34 C178.79 22.93, 186.61 29.28, 191.24 36.85 C195.87 44.42, 197.39 54.37, 196.97 62.75 C196.56 71.13, 194.76 79.94, 188.76 87.13 C182.77 94.33, 171.56 101.03, 161 105.93 C150.44 110.83, 138.1 114.48, 125.39 116.54 C112.68 118.61, 98.06 119.44, 84.76 118.32 C71.46 117.2, 57.16 114.25, 45.59 109.82 C34.02 105.39, 22.95 98.45, 15.34 91.75 C7.73 85.04, 1.74 77.55, -0.08 69.6 C-1.9 61.65, 0.7 51.96, 4.41 44.05 C8.12 36.15, 13.82 28.25, 22.18 22.17 C30.55 16.08, 49.41 10.03, 54.59 7.53 C59.78 5.04, 52.56 6.28, 53.28 7.17" stroke="#1e1e1e" stroke-width="1" fill="none"></path></g><g transform="translate(588.486479932063 1061.9862091432879) rotate(0 48.50994873046875 37.50000000000006)"><text x="48.50994873046875" y="0" font-family="Virgil, Segoe UI Emoji" font-size="20px" fill="#1e1e1e" text-anchor="middle" style="white-space: pre;" direction="ltr" dominant-baseline="text-before-edge">Retrieve </text><text x="48.50994873046875" y="25" font-family="Virgil, Segoe UI Emoji" font-size="20px" fill="#1e1e1e" text-anchor="middle" style="white-space: pre;" direction="ltr" dominant-baseline="text-before-edge">Analytics </text><text x="48.50994873046875" y="50" font-family="Virgil, Segoe UI Emoji" font-size="20px" fill="#1e1e1e" text-anchor="middle" style="white-space: pre;" direction="ltr" dominant-baseline="text-before-edge">Data</text></g><g stroke-linecap="round"><g transform="translate(270.83602640713895 324.93514235303076) rotate(0 87.01580490529008 -7.991962893825459)"><path d="M-0.07 -0.04 C28.76 -2.51, 144.27 -11.86, 173.45 -14.44 M-1.57 -1.11 C27.58 -3.91, 146.25 -13.76, 175.6 -15.94" stroke="#1e1e1e" stroke-width="1" fill="none"></path></g><g transform="translate(270.83602640713895 324.93514235303076) rotate(0 87.01580490529008 -7.991962893825459)"><path d="M148.25 -5.27 C159.5 -6.83, 166.89 -12.49, 177.39 -16.08 M149.01 -4.37 C155.38 -6.38, 161.17 -9.25, 176.56 -16.51" stroke="#1e1e1e" stroke-width="1" fill="none"></path></g><g transform="translate(270.83602640713895 324.93514235303076) rotate(0 87.01580490529008 -7.991962893825459)"><path d="M146.62 -25.72 C158.49 -20.35, 166.43 -19.07, 177.39 -16.08 M147.38 -24.83 C153.97 -22.07, 160.14 -20.16, 176.56 -16.51" stroke="#1e1e1e" stroke-width="1" fill="none"></path></g></g><mask></mask><g stroke-linecap="round"><g transform="translate(297.83602640713895 345.93514235303076) rotate(0 109.81448516283123 33.36957627524484)"><path d="M0.71 0.53 C37.22 11.42, 183.66 54.43, 220.01 65.42 M-0.38 -0.24 C35.94 10.85, 182.37 56.16, 219.31 66.98" stroke="#1e1e1e" stroke-width="1" fill="none"></path></g><g transform="translate(297.83602640713895 345.93514235303076) rotate(0 109.81448516283123 33.36957627524484)"><path d="M190.24 69.44 C200.7 66.6, 213.68 66.25, 218.33 66.11 M189.13 68.81 C198.66 67.23, 207.38 68.29, 218.71 67.38" stroke="#1e1e1e" stroke-width="1" fill="none"></path></g><g transform="translate(297.83602640713895 345.93514235303076) rotate(0 109.81448516283123 33.36957627524484)"><path d="M196.18 49.8 C204.42 54.38, 215.17 61.42, 218.33 66.11 M195.07 49.16 C203.06 53.34, 210.06 60.1, 218.71 67.38" stroke="#1e1e1e" stroke-width="1" fill="none"></path></g></g><mask></mask><g stroke-linecap="round"><g transform="translate(275 336.9810868805735) rotate(0 212.07510284921156 18.66404055826922)"><path d="M0.76 0.4 C71.62 6.39, 354.04 30.56, 424.44 36.85 M-0.29 -0.44 C70.52 5.58, 353.46 31.11, 423.87 37.77" stroke="#1e1e1e" stroke-width="1" fill="none"></path></g><g transform="translate(275 336.9810868805735) rotate(0 212.07510284921156 18.66404055826922)"><path d="M395.52 46.58 C399.87 42.48, 409.09 41.25, 424.09 37.5 M394.72 45.09 C403.21 43.65, 411.47 41.13, 424.86 38.63" stroke="#1e1e1e" stroke-width="1" fill="none"></path></g><g transform="translate(275 336.9810868805735) rotate(0 212.07510284921156 18.66404055826922)"><path d="M397.4 26.15 C401.45 27.02, 410.2 30.76, 424.09 37.5 M396.6 24.65 C404.51 29.09, 412.23 32.45, 424.86 38.63" stroke="#1e1e1e" stroke-width="1" fill="none"></path></g></g><mask></mask><g stroke-linecap="round"><g transform="translate(281 355.9965219748831) rotate(0 224.4474105751792 198.71181464261815)"><path d="M-0.38 0.73 C74.67 67.04, 374.13 331.52, 449.27 397.36 M1.62 0.06 C76.6 66.07, 373.53 329.48, 448.31 395.56" stroke="#1e1e1e" stroke-width="1" fill="none"></path></g><g transform="translate(281 355.9965219748831) rotate(0 224.4474105751792 198.71181464261815)"><path d="M421.61 384.51 C427.34 388.94, 430.65 388.6, 449.95 397.24 M420.27 384.4 C431.93 389, 441.96 392.72, 448.94 395.76" stroke="#1e1e1e" stroke-width="1" fill="none"></path></g><g transform="translate(281 355.9965219748831) rotate(0 224.4474105751792 198.71181464261815)"><path d="M435.22 369.14 C437.97 376.81, 438.38 379.75, 449.95 397.24 M433.87 369.03 C440.08 379.61, 444.75 389.39, 448.94 395.76" stroke="#1e1e1e" stroke-width="1" fill="none"></path></g></g><mask></mask><g stroke-linecap="round" transform="translate(751 1000.4126160144806) rotate(0 102.5 42.5)"><path d="M124.46 1.72 C137.79 2.44, 152.03 5.28, 163.02 8.51 C174.02 11.73, 183.69 16.3, 190.45 21.08 C197.21 25.86, 202.15 31.51, 203.58 37.18 C205.02 42.84, 203.05 49.41, 199.06 55.06 C195.07 60.71, 188.81 66.71, 179.62 71.07 C170.43 75.42, 156.88 78.94, 143.92 81.2 C130.96 83.47, 115.6 84.67, 101.85 84.67 C88.1 84.67, 73.82 83.61, 61.42 81.22 C49.02 78.84, 36.98 74.52, 27.46 70.37 C17.94 66.21, 8.77 61.58, 4.31 56.29 C-0.14 51, -0.74 44.5, 0.75 38.63 C2.23 32.75, 6.4 26.19, 13.23 21.06 C20.07 15.93, 30.61 11.29, 41.76 7.86 C52.92 4.42, 65.13 1.58, 80.18 0.44 C95.22 -0.7, 122.01 0.35, 132.06 1.02 C142.11 1.7, 140.85 3.6, 140.48 4.49 M142.11 3.43 C154.74 4.89, 165.42 8.93, 174.98 12.97 C184.53 17.01, 194.42 22.23, 199.42 27.67 C204.43 33.11, 206.21 40.02, 205 45.63 C203.79 51.24, 198.83 56.43, 192.16 61.34 C185.5 66.24, 175.95 71.24, 165.01 75.07 C154.08 78.91, 139.81 82.83, 126.56 84.37 C113.3 85.9, 99.15 85.58, 85.49 84.27 C71.83 82.96, 56.16 79.99, 44.61 76.52 C33.05 73.05, 23.39 68.25, 16.16 63.44 C8.93 58.64, 3.52 52.97, 1.25 47.68 C-1.02 42.38, -1.48 37.27, 2.55 31.68 C6.58 26.1, 16.08 18.7, 25.45 14.16 C34.82 9.62, 46.69 6.65, 58.76 4.44 C70.84 2.23, 84.11 1.21, 97.9 0.89 C111.68 0.58, 134.44 2.24, 141.48 2.54 C148.52 2.84, 141.06 1.85, 140.13 2.7" stroke="#1e1e1e" stroke-width="1" fill="none"></path></g><g transform="translate(789.2716235929297 1017.8605778140522) rotate(0 64.24993133544922 25)"><text x="64.24993133544922" y="0" font-family="Virgil, Segoe UI Emoji" font-size="20px" fill="#1e1e1e" text-anchor="middle" style="white-space: pre;" direction="ltr" dominant-baseline="text-before-edge">Send Travel </text><text x="64.24993133544922" y="25" font-family="Virgil, Segoe UI Emoji" font-size="20px" fill="#1e1e1e" text-anchor="middle" style="white-space: pre;" direction="ltr" dominant-baseline="text-before-edge">Updates</text></g><g stroke-linecap="round" transform="translate(613 573.4126160144806) rotate(0 102.5 42.5)"><path d="M63.87 2.26 C75.49 -0.37, 92.01 0.34, 105.93 0.83 C119.85 1.32, 134.73 2.84, 147.39 5.2 C160.04 7.56, 173.01 10.57, 181.88 14.98 C190.75 19.39, 196.85 26.02, 200.6 31.66 C204.35 37.3, 206.26 43.34, 204.39 48.83 C202.52 54.33, 196.75 59.75, 189.37 64.64 C181.99 69.54, 171.63 74.97, 160.09 78.21 C148.56 81.46, 133.78 83.03, 120.18 84.09 C106.59 85.16, 92.03 85.96, 78.5 84.58 C64.98 83.21, 50.01 79.64, 39.03 75.86 C28.06 72.07, 18.98 66.84, 12.66 61.88 C6.34 56.93, 2.02 51.93, 1.1 46.14 C0.19 40.35, 2.44 32.52, 7.15 27.14 C11.86 21.76, 19.52 17.93, 29.38 13.85 C39.23 9.76, 59.5 4.61, 66.27 2.65 C73.04 0.7, 69.36 1.32, 70 2.13 M68.17 2.58 C80.25 -0.16, 97.99 -1.53, 111.84 -0.93 C125.69 -0.32, 139.34 3.45, 151.28 6.2 C163.22 8.96, 174.76 11.3, 183.49 15.59 C192.22 19.88, 200.4 26.03, 203.67 31.93 C206.93 37.83, 205.77 45.04, 203.07 50.97 C200.37 56.9, 195.3 63.07, 187.47 67.51 C179.64 71.95, 168 74.93, 156.09 77.61 C144.18 80.29, 130 82.52, 116.02 83.6 C102.05 84.67, 85.7 85.39, 72.22 84.06 C58.75 82.72, 45.45 79.54, 35.18 75.6 C24.9 71.66, 16.26 65.58, 10.58 60.41 C4.9 55.24, 1.44 50.1, 1.09 44.59 C0.75 39.08, 3.13 32.93, 8.5 27.33 C13.86 21.73, 23.23 15.18, 33.29 10.98 C43.34 6.79, 62.81 3.33, 68.82 2.15 C74.83 0.98, 68.61 3.28, 69.35 3.92" stroke="#1e1e1e" stroke-width="1" fill="none"></path></g><g transform="translate(653.4816303067969 590.8605778140522) rotate(0 62.03992462158203 25)"><text x="62.03992462158203" y="0" font-family="Virgil, Segoe UI Emoji" font-size="20px" fill="#1e1e1e" text-anchor="middle" style="white-space: pre;" direction="ltr" dominant-baseline="text-before-edge">Send </text><text x="62.03992462158203" y="25" font-family="Virgil, Segoe UI Emoji" font-size="20px" fill="#1e1e1e" text-anchor="middle" style="white-space: pre;" direction="ltr" dominant-baseline="text-before-edge">Notifications</text></g><g stroke-linecap="round" transform="translate(701 300.4126160144806) rotate(0 116 49)"><path d="M139.75 1.2 C153.74 1.55, 167.87 5.05, 180.07 8.68 C192.26 12.3, 204.75 17.93, 212.91 22.97 C221.07 28.01, 226.08 32.95, 229.04 38.93 C231.99 44.91, 233.53 52.68, 230.64 58.86 C227.76 65.04, 220.16 70.81, 211.7 76.01 C203.23 81.22, 192.13 86.64, 179.85 90.09 C167.56 93.54, 152.39 95.59, 137.99 96.69 C123.59 97.8, 107.95 97.91, 93.43 96.73 C78.91 95.55, 63.23 93.01, 50.87 89.61 C38.51 86.22, 27.27 81.55, 19.27 76.34 C11.27 71.14, 5.69 64.71, 2.87 58.39 C0.04 52.07, -0.59 44.66, 2.31 38.44 C5.22 32.21, 12.1 26.24, 20.27 21.04 C28.43 15.84, 38.97 10.55, 51.31 7.25 C63.65 3.95, 77.9 2.08, 94.3 1.25 C110.7 0.42, 138.83 1.82, 149.72 2.27 C160.62 2.72, 160.1 3.23, 159.67 3.96 M114.06 -1.29 C128.34 -2.03, 146.52 1.01, 160.2 3.45 C173.89 5.89, 185.68 9.1, 196.17 13.36 C206.66 17.62, 217.31 22.91, 223.15 29.02 C228.98 35.13, 231.31 43.83, 231.2 50.04 C231.09 56.25, 228.01 60.92, 222.48 66.3 C216.96 71.67, 208.09 77.76, 198.04 82.29 C188 86.81, 175.62 90.76, 162.22 93.47 C148.82 96.17, 132.68 98.51, 117.64 98.53 C102.6 98.54, 85.66 95.98, 71.97 93.56 C58.28 91.14, 45.88 88.02, 35.48 84.03 C25.09 80.05, 15.58 75.32, 9.6 69.64 C3.63 63.95, -0.39 56.55, -0.36 49.93 C-0.33 43.3, 4.3 35.98, 9.77 29.89 C15.24 23.79, 22.22 17.92, 32.46 13.37 C42.69 8.83, 57.31 4.72, 71.19 2.62 C85.06 0.51, 108.4 1.2, 115.69 0.73 C122.98 0.26, 115.25 -0.99, 114.91 -0.21" stroke="#1e1e1e" stroke-width="1" fill="none"></path></g><g transform="translate(753.2656829624386 324.2643837363397) rotate(0 63.709930419921875 25)"><text x="63.709930419921875" y="0" font-family="Virgil, Segoe UI Emoji" font-size="20px" fill="#1e1e1e" text-anchor="middle" style="white-space: pre;" direction="ltr" dominant-baseline="text-before-edge">Give Access </text><text x="63.709930419921875" y="25" font-family="Virgil, Segoe UI Emoji" font-size="20px" fill="#1e1e1e" text-anchor="middle" style="white-space: pre;" direction="ltr" dominant-baseline="text-before-edge">To Email*</text></g><g stroke-linecap="round" transform="translate(524 390.4126160144806) rotate(0 116 60)"><path d="M138.62 1.08 C152.79 1.61, 168.97 5.53, 181.25 9.92 C193.52 14.31, 204.28 20.88, 212.26 27.43 C220.23 33.98, 226.14 42, 229.11 49.22 C232.08 56.44, 232.98 63.32, 230.09 70.74 C227.21 78.17, 220.12 87.09, 211.79 93.76 C203.46 100.44, 192.25 106.49, 180.13 110.79 C168.01 115.1, 153.61 118.14, 139.07 119.58 C124.53 121.01, 107.35 121.12, 92.89 119.38 C78.44 117.64, 64.38 113.47, 52.32 109.15 C40.25 104.83, 28.69 99.62, 20.49 93.46 C12.29 87.3, 6.08 79.75, 3.12 72.21 C0.17 64.67, 0.04 55.81, 2.76 48.21 C5.49 40.61, 11.28 32.93, 19.47 26.61 C27.66 20.29, 39.69 14.51, 51.91 10.29 C64.12 6.07, 76.5 2.7, 92.76 1.28 C109.03 -0.13, 138.53 0.95, 149.5 1.78 C160.47 2.61, 159.1 5.28, 158.6 6.27 M124.82 1.49 C138.98 1.36, 156.33 3.97, 169.83 7.49 C183.34 11.01, 196.54 16.94, 205.85 22.59 C215.15 28.24, 221.27 34.32, 225.67 41.38 C230.07 48.44, 233.52 57.19, 232.25 64.93 C230.98 72.67, 225.24 80.93, 218.05 87.84 C210.87 94.75, 200.52 101.42, 189.12 106.37 C177.72 111.33, 163.8 115.59, 149.66 117.57 C135.52 119.55, 118.72 119.04, 104.28 118.28 C89.84 117.52, 75.7 116.46, 63 112.99 C50.31 109.53, 37.77 103.28, 28.11 97.52 C18.46 91.75, 9.49 85.28, 5.07 78.39 C0.64 71.49, 0.41 63.8, 1.56 56.15 C2.71 48.5, 5.38 39.47, 11.97 32.47 C18.56 25.48, 29.69 19.2, 41.09 14.18 C52.5 9.16, 66.16 4.81, 80.4 2.36 C94.65 -0.09, 118.86 -0.53, 126.57 -0.51 C134.28 -0.5, 126.66 1.25, 126.67 2.43" stroke="#1e1e1e" stroke-width="1" fill="none"></path></g><g transform="translate(575.925686624548 412.98620914328774) rotate(0 64.0499267578125 37.5)"><text x="64.0499267578125" y="0" font-family="Virgil, Segoe UI Emoji" font-size="20px" fill="#1e1e1e" text-anchor="middle" style="white-space: pre;" direction="ltr" dominant-baseline="text-before-edge">Forward </text><text x="64.0499267578125" y="25" font-family="Virgil, Segoe UI Emoji" font-size="20px" fill="#1e1e1e" text-anchor="middle" style="white-space: pre;" direction="ltr" dominant-baseline="text-before-edge">Confirmation </text><text x="64.0499267578125" y="50" font-family="Virgil, Segoe UI Emoji" font-size="20px" fill="#1e1e1e" text-anchor="middle" style="white-space: pre;" direction="ltr" dominant-baseline="text-before-edge">Email</text></g><g stroke-linecap="round" transform="translate(425 925.4126160144806) rotate(0 89.5 49)"><path d="M78.16 0.55 C90.24 -0.75, 106.18 0.96, 118.43 3.23 C130.67 5.5, 142.39 9.4, 151.62 14.17 C160.85 18.94, 169.29 25.3, 173.81 31.84 C178.33 38.38, 179.95 46.3, 178.73 53.43 C177.52 60.55, 173.34 68.6, 166.54 74.61 C159.75 80.62, 149.1 85.52, 137.95 89.49 C126.81 93.47, 112.46 97.4, 99.67 98.47 C86.89 99.53, 73.27 98.39, 61.24 95.88 C49.22 93.36, 36.88 88.54, 27.5 83.39 C18.13 78.23, 9.48 71.61, 4.98 64.94 C0.48 58.28, -1.05 50.41, 0.49 43.4 C2.03 36.38, 7.39 28.94, 14.23 22.84 C21.07 16.74, 30.25 10.55, 41.55 6.81 C52.84 3.08, 74.78 1.22, 82.03 0.43 C89.27 -0.37, 84.94 1.23, 85.01 2.02 M119.29 1.8 C131.35 3.4, 145.17 9.85, 154.62 15.02 C164.07 20.19, 172.14 26.07, 176 32.82 C179.87 39.58, 179.55 48.2, 177.8 55.57 C176.05 62.93, 172.38 71.09, 165.5 77.01 C158.62 82.94, 147.57 87.5, 136.52 91.09 C125.47 94.69, 112.23 97.82, 99.2 98.59 C86.16 99.35, 70.82 98.26, 58.31 95.66 C45.81 93.07, 33.28 88.01, 24.16 83.02 C15.05 78.02, 7.58 72.28, 3.62 65.69 C-0.34 59.1, -1.64 50.74, 0.4 43.49 C2.45 36.24, 8.54 28.35, 15.91 22.19 C23.27 16.03, 33.55 10.33, 44.59 6.53 C55.63 2.73, 69.71 -0.2, 82.16 -0.61 C94.6 -1.02, 113.01 3.32, 119.26 4.06 C125.51 4.8, 119.85 3.48, 119.64 3.85" stroke="#1e1e1e" stroke-width="1" fill="none"></path></g><g transform="translate(472.27398641876493 949.2643837363397) rotate(0 42.43995666503906 25)"><text x="42.43995666503906" y="0" font-family="Virgil, Segoe UI Emoji" font-size="20px" fill="#1e1e1e" text-anchor="middle" style="white-space: pre;" direction="ltr" dominant-baseline="text-before-edge">Ask For </text><text x="42.43995666503906" y="25" font-family="Virgil, Segoe UI Emoji" font-size="20px" fill="#1e1e1e" text-anchor="middle" style="white-space: pre;" direction="ltr" dominant-baseline="text-before-edge">Help</text></g><g stroke-linecap="round" transform="translate(449 788.4126160144806) rotate(0 89.5 49)"><path d="M46.74 6.79 C56.79 2.84, 72.13 0.48, 85.19 -0.15 C98.24 -0.77, 113.27 0.32, 125.06 3.03 C136.85 5.74, 147.52 10.68, 155.92 16.11 C164.32 21.55, 171.81 28.77, 175.44 35.63 C179.07 42.5, 180.1 50.12, 177.7 57.3 C175.3 64.47, 168.79 72.89, 161.02 78.68 C153.24 84.46, 142.34 88.63, 131.06 91.99 C119.77 95.36, 105.99 98.4, 93.3 98.86 C80.61 99.32, 66.75 97.7, 54.93 94.76 C43.1 91.83, 31.05 86.76, 22.36 81.24 C13.67 75.72, 6.19 68.42, 2.8 61.66 C-0.59 54.89, -0.29 47.71, 2.02 40.65 C4.34 33.59, 8.58 25.2, 16.71 19.3 C24.84 13.41, 44.36 7.57, 50.82 5.29 C57.28 3.02, 54.78 4.95, 55.46 5.68 M71.68 2.31 C83.63 0.12, 98.14 -1.07, 110.49 0.37 C122.83 1.82, 135.75 6.52, 145.74 10.99 C155.74 15.46, 164.92 20.54, 170.45 27.19 C175.97 33.84, 178.87 43.57, 178.87 50.89 C178.88 58.21, 176.27 65.02, 170.46 71.13 C164.66 77.23, 154.22 83.09, 144.04 87.51 C133.86 91.93, 122.03 96.17, 109.36 97.66 C96.68 99.14, 80.75 98.21, 68.01 96.41 C55.27 94.6, 42.81 91.27, 32.93 86.82 C23.05 82.38, 14.36 76.22, 8.74 69.75 C3.12 63.29, -0.87 55.09, -0.77 48.04 C-0.67 40.99, 3.25 33.56, 9.33 27.45 C15.41 21.35, 25.59 15.7, 35.69 11.43 C45.79 7.16, 63.86 3.65, 69.93 1.85 C76.01 0.06, 71.83 0.06, 72.12 0.66" stroke="#1e1e1e" stroke-width="1" fill="none"></path></g><g transform="translate(486.79400595001493 824.7643837363397) rotate(0 51.91993713378906 12.5)"><text x="51.91993713378906" y="0" font-family="Virgil, Segoe UI Emoji" font-size="20px" fill="#1e1e1e" text-anchor="middle" style="white-space: pre;" direction="ltr" dominant-baseline="text-before-edge">Share Trip</text></g><g stroke-linecap="round"><g transform="translate(206.71951585673935 363.4126160144806) rotate(0 118.83032072019176 282.2655450209737)"><path d="M0.56 -1.03 C40.39 93.33, 198.78 471.18, 238.27 565.56 M-0.61 1.05 C39.22 95.11, 198.23 470.15, 237.8 563.83" stroke="#1e1e1e" stroke-width="1" fill="none"></path></g><g transform="translate(206.71951585673935 363.4126160144806) rotate(0 118.83032072019176 282.2655450209737)"><path d="M215.64 543.38 C223.37 547.2, 227.69 551.44, 237.3 563 M217.03 541.66 C223.76 548.75, 230.91 555.34, 237.92 563.49" stroke="#1e1e1e" stroke-width="1" fill="none"></path></g><g transform="translate(206.71951585673935 363.4126160144806) rotate(0 118.83032072019176 282.2655450209737)"><path d="M234.54 535.38 C237.73 541.19, 237.56 547.34, 237.3 563 M235.92 533.66 C236.36 543.53, 237.25 552.76, 237.92 563.49" stroke="#1e1e1e" stroke-width="1" fill="none"></path></g></g><mask></mask><g stroke-linecap="round"><g transform="translate(320.73980712890625 1077.899275626166) rotate(0 101.79220138472152 0.3141504364295997)"><path d="M0.97 -0.62 C34.68 -0.67, 167.75 -0.99, 201.46 -1.05 M0.02 1.66 C34.14 1.83, 169.77 0.42, 203.56 0.15" stroke="#1e1e1e" stroke-width="1" fill="none"></path></g><g transform="translate(320.73980712890625 1077.899275626166) rotate(0 101.79220138472152 0.3141504364295997)"><path d="M174.43 8.73 C181.08 8.98, 187.85 5.09, 201.65 1.45 M175.48 10.15 C184.33 8.07, 194.51 2.7, 202.62 -0.81" stroke="#1e1e1e" stroke-width="1" fill="none"></path></g><g transform="translate(320.73980712890625 1077.899275626166) rotate(0 101.79220138472152 0.3141504364295997)"><path d="M174.24 -11.79 C180.81 -6.71, 187.61 -5.75, 201.65 1.45 M175.3 -10.37 C184.41 -5.41, 194.65 -3.73, 202.62 -0.81" stroke="#1e1e1e" stroke-width="1" fill="none"></path></g></g><mask></mask><g stroke-linecap="round"><g transform="translate(707.3908466612004 844.7525263269557) rotate(0 -233.5519293562956 -239.03508298752058)"><path d="M-0.5 0.99 C-78.61 -78.45, -389.84 -397.34, -467.98 -477.08 M1.43 0.46 C-76.82 -79.32, -389.9 -399.62, -468.54 -479.06" stroke="#1e1e1e" stroke-width="1" fill="none"></path></g><g transform="translate(707.3908466612004 844.7525263269557) rotate(0 -233.5519293562956 -239.03508298752058)"><path d="M-439.81 -464.92 C-450.56 -471.84, -460.74 -476.62, -468.52 -477.61 M-442.2 -467.05 C-447.32 -469.57, -456.17 -472.6, -469.16 -478.89" stroke="#1e1e1e" stroke-width="1" fill="none"></path></g><g transform="translate(707.3908466612004 844.7525263269557) rotate(0 -233.5519293562956 -239.03508298752058)"><path d="M-454.45 -450.53 C-459.96 -462.49, -464.96 -472.36, -468.52 -477.61 M-456.84 -452.67 C-458.06 -458.86, -463.14 -465.6, -469.16 -478.89" stroke="#1e1e1e" stroke-width="1" fill="none"></path></g></g><mask></mask><g stroke-linecap="round"><g transform="translate(664.0241062160123 568.8777254002684) rotate(0 -193.31296236399268 -109.80933753969654)"><path d="M1.13 -0.13 C-63.38 -36.88, -322.08 -182.9, -386.73 -219.48 M0.26 -1.25 C-64.45 -37.95, -323.11 -182.11, -387.75 -218.38" stroke="#1e1e1e" stroke-width="1" fill="none"></path></g><g transform="translate(664.0241062160123 568.8777254002684) rotate(0 -193.31296236399268 -109.80933753969654)"><path d="M-358.37 -213.82 C-369.23 -215.13, -379.19 -216.49, -388.72 -217.16 M-358 -214.28 C-367.56 -214.52, -376.28 -215.57, -388.18 -219.25" stroke="#1e1e1e" stroke-width="1" fill="none"></path></g><g transform="translate(664.0241062160123 568.8777254002684) rotate(0 -193.31296236399268 -109.80933753969654)"><path d="M-368.38 -195.91 C-376.11 -203.17, -382.79 -210.39, -388.72 -217.16 M-368.02 -196.37 C-374.46 -202.46, -379.96 -209.26, -388.18 -219.25" stroke="#1e1e1e" stroke-width="1" fill="none"></path></g></g><mask></mask><g stroke-linecap="round"><g transform="translate(1429.1996163082638 1007.8362878805706) rotate(0 -229.69224827695098 12.281673151277062)"><path d="M1.08 1.08 C-75.52 5, -382.73 18.99, -459.51 22.51 M0.19 0.6 C-76.58 4.8, -383.7 20.18, -460.47 23.96" stroke="#1e1e1e" stroke-width="1" fill="none"></path></g><g transform="translate(1429.1996163082638 1007.8362878805706) rotate(0 -229.69224827695098 12.281673151277062)"><path d="M-431.02 12.3 C-441.76 15.99, -450.81 21.16, -459.41 23.57 M-433.04 12.1 C-443.07 16.3, -453.73 20.46, -461.44 24.32" stroke="#1e1e1e" stroke-width="1" fill="none"></path></g><g transform="translate(1429.1996163082638 1007.8362878805706) rotate(0 -229.69224827695098 12.281673151277062)"><path d="M-430 32.79 C-440.88 30.15, -450.25 28.96, -459.41 23.57 M-432.02 32.6 C-442.46 29.01, -453.51 25.39, -461.44 24.32" stroke="#1e1e1e" stroke-width="1" fill="none"></path></g></g><mask></mask><g stroke-linecap="round"><g transform="translate(1195.0493995440813 949.4440509955043) rotate(0 -119.70869237326917 36.527859591713764)"><path d="M0.04 0.29 C-39.69 12.51, -199.09 60.19, -238.88 72.28 M-1.4 -0.6 C-41.18 11.88, -199.86 61.16, -239.45 73.65" stroke="#1e1e1e" stroke-width="1" fill="none"></path></g><g transform="translate(1195.0493995440813 949.4440509955043) rotate(0 -119.70869237326917 36.527859591713764)"><path d="M-215.12 56.62 C-222.43 61.64, -227.58 63.54, -239.07 72.96 M-214.89 55.82 C-222.91 60.79, -229.02 65.65, -239.08 73.15" stroke="#1e1e1e" stroke-width="1" fill="none"></path></g><g transform="translate(1195.0493995440813 949.4440509955043) rotate(0 -119.70869237326917 36.527859591713764)"><path d="M-209 76.21 C-217.72 76.18, -224.45 73.04, -239.07 72.96 M-208.77 75.41 C-218.64 74.65, -226.53 73.82, -239.08 73.15" stroke="#1e1e1e" stroke-width="1" fill="none"></path></g></g><mask></mask><g stroke-linecap="round"><g transform="translate(222.99015362120917 367.4126160144806) rotate(0 146.9895488638461 206.97567336276876)"><path d="M-0.6 -0.15 C48.38 69.11, 245.48 345.97, 294.58 415.22 M1.29 -1.27 C50.15 67.68, 245.55 344.35, 294.26 413.47" stroke="#1e1e1e" stroke-width="1" fill="none"></path></g><g transform="translate(222.99015362120917 367.4126160144806) rotate(0 146.9895488638461 206.97567336276876)"><path d="M269.37 398.35 C279.64 403.67, 288.75 407.67, 294.93 413.78 M269.87 397.15 C277.91 403.07, 287.11 409.73, 293.77 413.23" stroke="#1e1e1e" stroke-width="1" fill="none"></path></g><g transform="translate(222.99015362120917 367.4126160144806) rotate(0 146.9895488638461 206.97567336276876)"><path d="M286.14 386.52 C290.32 396.02, 293.4 404.28, 294.93 413.78 M286.64 385.32 C288.27 395.77, 291.15 406.88, 293.77 413.23" stroke="#1e1e1e" stroke-width="1" fill="none"></path></g></g><mask></mask><g stroke-linecap="round" transform="translate(10 580.4126160144806) rotate(0 136 167.5)"><path d="M7.86 8.16 C7.86 8.16, 7.86 8.16, 7.86 8.16 M7.86 8.16 C7.86 8.16, 7.86 8.16, 7.86 8.16 M3.66 19.09 C8.28 14.8, 8.78 11.57, 18.1 2.48 M3.66 19.09 C7.96 13.73, 13.23 6.85, 18.1 2.48 M2.75 26.24 C9.89 15.46, 18.47 6.84, 24.4 1.33 M2.75 26.24 C8.14 19.82, 15.37 12.06, 24.4 1.33 M2.48 32.64 C10.41 22.7, 17.25 15.97, 30.7 0.18 M2.48 32.64 C8.58 26.72, 13.89 19.58, 30.7 0.18 M2.88 38.28 C11.81 30.38, 16.61 23.03, 34.37 2.05 M2.88 38.28 C13.08 28.25, 21.71 17.46, 34.37 2.05 M2.62 44.68 C13.41 32.86, 24.73 16.04, 39.36 2.41 M2.62 44.68 C11.92 33.66, 21.47 22.47, 39.36 2.41 M2.36 51.07 C12.82 39.94, 23.28 27.07, 45 2.02 M2.36 51.07 C12.38 37.61, 24.91 26.3, 45 2.02 M2.75 56.72 C15.98 42.29, 27.1 31.71, 49.99 2.38 M2.75 56.72 C19.13 39.31, 35.11 20.47, 49.99 2.38 M2.49 63.11 C19.69 41.56, 42.23 18.75, 55.63 1.98 M2.49 63.11 C14.89 49.12, 27.77 36.18, 55.63 1.98 M2.88 68.76 C26.76 43.2, 46.27 19.34, 60.62 2.34 M2.88 68.76 C20.65 48.92, 37.9 29.66, 60.62 2.34 M2.62 75.16 C17.95 56.6, 31.16 41.51, 66.26 1.95 M2.62 75.16 C23.9 52.37, 42.89 28.38, 66.26 1.95 M2.36 81.55 C23.2 57.76, 41.62 38.13, 71.25 2.31 M2.36 81.55 C28.38 50.64, 57.29 20.77, 71.25 2.31 M2.76 87.2 C25.83 64.06, 43.64 39, 76.89 1.91 M2.76 87.2 C28.84 55.33, 55.14 24.99, 76.89 1.91 M2.49 93.59 C31.37 61.76, 55.09 31.83, 81.88 2.27 M2.49 93.59 C25.25 68.9, 47.65 42.54, 81.88 2.27 M2.23 99.99 C25.21 73.32, 45.2 50.68, 87.52 1.88 M2.23 99.99 C25.4 70.43, 50.5 43.43, 87.52 1.88 M2.63 105.64 C26.2 79.44, 45.9 55.61, 92.51 2.24 M2.63 105.64 C23.85 81.99, 44.37 58.16, 92.51 2.24 M2.37 112.03 C28.38 81.56, 56.2 47.94, 98.15 1.85 M2.37 112.03 C34.28 74.64, 66.47 37.31, 98.15 1.85 M2.76 117.68 C33.43 84.71, 60.47 50.39, 103.14 2.21 M2.76 117.68 C31.61 83.62, 61.66 49.54, 103.14 2.21 M2.5 124.07 C24.33 98, 45.89 73.36, 108.78 1.81 M2.5 124.07 C29.38 92.63, 56.67 61.36, 108.78 1.81 M2.24 130.47 C26.25 101.66, 50.29 72.89, 113.77 2.17 M2.24 130.47 C41.64 87.19, 81.49 41.11, 113.77 2.17 M2.63 136.11 C30.45 106.22, 56.12 74.52, 119.41 1.78 M2.63 136.11 C37.35 97.68, 70.05 59.2, 119.41 1.78 M2.37 142.51 C31.03 109.5, 61.51 74.95, 124.4 2.14 M2.37 142.51 C34.86 105.35, 66.71 68.37, 124.4 2.14 M2.11 148.91 C39.88 104.01, 78.92 58.32, 130.04 1.74 M2.11 148.91 C47.33 95.6, 95.72 41.34, 130.04 1.74 M2.5 154.55 C30.75 123.17, 57.16 93.5, 135.03 2.1 M2.5 154.55 C42.96 108.55, 82.52 63.63, 135.03 2.1 M2.24 160.95 C43.66 111.95, 87.89 63.94, 140.67 1.71 M2.24 160.95 C51.24 103.82, 100.26 47.73, 140.67 1.71 M2.64 166.59 C59.93 103.26, 114.93 36.2, 145.66 2.07 M2.64 166.59 C51.46 109.25, 101.26 52.9, 145.66 2.07 M2.38 172.99 C45.6 121.78, 90.05 71.64, 150.65 2.43 M2.38 172.99 C62.8 105.95, 120.45 38.48, 150.65 2.43 M2.11 179.39 C55.59 114.95, 113.11 49.95, 156.29 2.03 M2.11 179.39 C43.99 131.49, 86.35 81.81, 156.29 2.03 M2.51 185.03 C43.38 139.58, 84.79 89.54, 161.28 2.39 M2.51 185.03 C57.74 120.41, 114.71 55.88, 161.28 2.39 M2.25 191.43 C50.1 135.3, 96.15 82.02, 166.92 2 M2.25 191.43 C61.01 120.3, 122.89 51.27, 166.92 2 M2.64 197.07 C60.02 134.97, 115.39 69.88, 171.91 2.36 M2.64 197.07 C68.41 121.16, 133.54 47.25, 171.91 2.36 M2.38 203.47 C38.19 164.14, 74.65 122.03, 177.55 1.96 M2.38 203.47 C58.79 139.34, 114.03 75.8, 177.55 1.96 M2.12 209.87 C70.36 129.62, 142.51 47.26, 182.54 2.32 M2.12 209.87 C64.2 137.74, 127.48 66.2, 182.54 2.32 M2.51 215.51 C73.59 131.06, 147.1 49.6, 188.18 1.93 M2.51 215.51 C41.84 171.77, 79.9 126.39, 188.18 1.93 M2.25 221.91 C52.77 164.92, 106.45 105.71, 193.17 2.29 M2.25 221.91 C41.65 176.78, 80.13 130.91, 193.17 2.29 M1.99 228.31 C75.17 141.61, 149.68 56.04, 198.81 1.9 M1.99 228.31 C67.8 152.48, 133.36 75.97, 198.81 1.9 M2.39 233.95 C69.5 155.16, 137.14 78, 203.8 2.26 M2.39 233.95 C51.07 177.35, 99.11 121.68, 203.8 2.26 M2.12 240.35 C75.15 158.54, 146.29 76.8, 209.44 1.86 M2.12 240.35 C80.07 148.53, 160.66 55.76, 209.44 1.86 M2.52 245.99 C72.92 168.31, 141.96 87.78, 214.43 2.22 M2.52 245.99 C48.07 195.37, 93.18 144.77, 214.43 2.22 M2.26 252.39 C67.77 177.25, 133.29 101.15, 220.07 1.83 M2.26 252.39 C58.72 185.37, 115.97 118.16, 220.07 1.83 M2 258.79 C71.13 178.72, 139.25 102.22, 225.06 2.19 M2 258.79 C90.08 157.14, 178 56.76, 225.06 2.19 M2.39 264.43 C76.9 178.06, 152.24 91.78, 230.7 1.79 M2.39 264.43 C64.86 192.83, 126.91 121.25, 230.7 1.79 M2.13 270.83 C66.44 194.36, 135.8 118.39, 235.69 2.15 M2.13 270.83 C88.45 172.1, 176.26 72.53, 235.69 2.15 M1.87 277.23 C83.55 184.84, 164.26 92.11, 241.33 1.76 M1.87 277.23 C75.16 192.65, 149.88 107.25, 241.33 1.76 M2.26 282.87 C58.39 214.73, 117.6 150.41, 246.32 2.12 M2.26 282.87 C57.59 219.54, 110.64 157.44, 246.32 2.12 M2 289.27 C71.05 205.99, 141.53 125.6, 251.3 2.48 M2 289.27 C73.29 207.35, 145.09 123.35, 251.3 2.48 M2.4 294.91 C69.25 218.72, 137.74 142.24, 255.63 3.59 M2.4 294.91 C86.03 198.51, 168.77 102.63, 255.63 3.59 M0.17 303.57 C102.15 189.42, 200.74 75.49, 259.97 4.71 M0.17 303.57 C84.51 209.56, 166.3 113.46, 259.97 4.71 M1.22 308.46 C60.94 237.76, 120.84 170.03, 262.98 7.33 M1.22 308.46 C98.06 193.35, 197.68 79.66, 262.98 7.33 M1.61 314.1 C78.95 227.31, 157.6 138.32, 265.35 10.71 M1.61 314.1 C82.62 220.61, 164.76 127.26, 265.35 10.71 M3.32 318.24 C93.7 215.83, 180.47 114.07, 268.37 13.33 M3.32 318.24 C98.41 208.78, 194.68 98.24, 268.37 13.33 M5.02 322.37 C87.28 229.97, 169.38 136.13, 270.07 17.47 M5.02 322.37 C107.74 205.97, 208.74 89.53, 270.07 17.47 M7.39 325.75 C96.08 224.63, 182.6 124.76, 273.09 20.09 M7.39 325.75 C107.74 211.16, 207.97 95.92, 273.09 20.09 M10.41 328.37 C111.58 210.2, 213.62 94.83, 273.49 25.74 M10.41 328.37 C77.05 250.74, 144.88 172.88, 273.49 25.74 M13.42 331 C92.66 240.32, 172.79 146.59, 272.57 32.89 M13.42 331 C67.14 266.66, 122.3 203.49, 272.57 32.89 M17.1 332.87 C98.56 238.84, 178.99 146.68, 272.96 38.53 M17.1 332.87 C82.57 258.77, 147.99 184.63, 272.96 38.53 M20.12 335.49 C102.01 239.94, 186 142.36, 272.7 44.93 M20.12 335.49 C114.77 226.11, 209.36 117.44, 272.7 44.93 M25.11 335.85 C110.53 237.02, 196.71 138.36, 272.44 51.33 M25.11 335.85 C100.96 250.15, 175.66 164.65, 272.44 51.33 M30.09 336.21 C119.76 229.96, 210.55 126.29, 272.83 56.97 M30.09 336.21 C92.61 262.25, 156.46 189.65, 272.83 56.97 M34.42 337.33 C123.11 236.74, 209.91 135.99, 272.57 63.37 M34.42 337.33 C111.52 247.9, 190.14 156.96, 272.57 63.37 M40.07 336.93 C127.89 235.37, 216.85 131.8, 272.97 69.01 M40.07 336.93 C130.21 235.89, 218.56 132.92, 272.97 69.01 M45.05 337.29 C115.8 255.62, 185.67 173.9, 272.71 75.41 M45.05 337.29 C106.76 267.64, 166.72 198.07, 272.71 75.41 M50.7 336.9 C104.53 274.78, 157.1 214.36, 272.44 81.81 M50.7 336.9 C128.32 249.68, 203.84 161.84, 272.44 81.81 M55.68 337.26 C136.25 245.17, 215.18 153.41, 272.84 87.45 M55.68 337.26 C111.78 273.86, 166.8 210.25, 272.84 87.45 M61.33 336.86 C141.36 246.13, 222.67 152.17, 272.58 93.85 M61.33 336.86 C116.25 272.67, 171.23 209.12, 272.58 93.85 M66.31 337.22 C141.19 250.74, 216.33 161.39, 272.97 99.49 M66.31 337.22 C113.34 283.89, 159.43 230.83, 272.97 99.49 M71.96 336.83 C151.61 250.17, 226.35 159.85, 272.71 105.89 M71.96 336.83 C142.13 255.67, 212.8 175.16, 272.71 105.89 M76.94 337.19 C151.07 249.65, 227.34 163.05, 272.45 112.29 M76.94 337.19 C141.19 263.21, 204.93 189.23, 272.45 112.29 M81.93 337.55 C150.58 254.9, 223.72 175.18, 272.84 117.93 M81.93 337.55 C144.34 267.84, 205.38 198.2, 272.84 117.93 M87.57 337.15 C149.98 264.57, 214.76 191.83, 272.58 124.33 M87.57 337.15 C142.65 274.07, 197.24 210.35, 272.58 124.33 M92.56 337.51 C133.07 289.89, 173.52 243.29, 272.98 129.97 M92.56 337.51 C127.73 295.6, 164.45 254.64, 272.98 129.97 M98.2 337.12 C138.17 293.26, 176.12 251.11, 272.72 136.37 M98.2 337.12 C148.55 278.71, 199.62 219.8, 272.72 136.37 M103.19 337.48 C164.14 268.92, 222.52 199.17, 272.45 142.77 M103.19 337.48 C156.74 275.45, 209.57 212.58, 272.45 142.77 M108.83 337.09 C146.41 292.47, 179.91 250.39, 272.85 148.41 M108.83 337.09 C151.09 288.03, 194.64 238.03, 272.85 148.41 M113.82 337.45 C167.37 277.39, 218.73 215.22, 272.59 154.81 M113.82 337.45 C159.05 283.43, 206.26 229.97, 272.59 154.81 M119.46 337.05 C152.96 295.88, 187.09 257.05, 272.98 160.45 M119.46 337.05 C173.26 275.35, 227.91 213.94, 272.98 160.45 M124.45 337.41 C166.54 292.77, 204.39 243.58, 272.72 166.85 M124.45 337.41 C162.91 293.25, 203.33 248.63, 272.72 166.85 M130.09 337.02 C181.86 277.83, 230.47 224.19, 272.46 173.24 M130.09 337.02 C176.43 282.71, 224.07 228.98, 272.46 173.24 M135.08 337.38 C169.43 299.75, 198.7 266.03, 272.85 178.89 M135.08 337.38 C169.89 295.33, 206.5 254.16, 272.85 178.89 M140.72 336.98 C185.64 286.3, 228.54 238.43, 272.59 185.29 M140.72 336.98 C185.45 284.73, 233.03 230.74, 272.59 185.29 M145.71 337.34 C175.63 305.81, 201.62 271.38, 272.99 190.93 M145.71 337.34 C174.95 306.13, 201.76 273.17, 272.99 190.93 M151.35 336.95 C198.42 283.96, 243.41 229.22, 272.73 197.33 M151.35 336.95 C198.32 282.39, 243.64 230.52, 272.73 197.33 M156.34 337.31 C202.01 286.14, 249.7 231.09, 272.46 203.72 M156.34 337.31 C199.46 284.1, 244.5 233.94, 272.46 203.72 M161.98 336.91 C204.31 286.58, 245.85 239.77, 272.86 209.37 M161.98 336.91 C204.55 286.84, 248.74 236.94, 272.86 209.37 M166.97 337.27 C194.6 307.51, 218.66 274.47, 272.6 215.76 M166.97 337.27 C198.94 302.48, 230.11 266.4, 272.6 215.76 M172.61 336.88 C211.84 293.31, 251.81 247.65, 272.99 221.41 M172.61 336.88 C205.01 297.56, 239.77 259.55, 272.99 221.41 M177.6 337.24 C202.39 311.93, 224.16 284.55, 272.73 227.81 M177.6 337.24 C216.57 293.38, 253.17 249.92, 272.73 227.81 M183.24 336.84 C217.8 297.75, 249.37 259.57, 272.47 234.2 M183.24 336.84 C201.52 315.56, 221.36 294.94, 272.47 234.2 M188.23 337.2 C217.06 303.3, 249.5 269.77, 272.86 239.85 M188.23 337.2 C208.91 313.32, 230.19 288.01, 272.86 239.85 M193.22 337.56 C219.34 305.89, 247.95 276.59, 272.6 246.24 M193.22 337.56 C223.05 304.83, 251.98 270.91, 272.6 246.24 M198.86 337.17 C224.05 309.89, 247.17 282.33, 273 251.89 M198.86 337.17 C219.4 311.21, 241.38 286.76, 273 251.89 M203.85 337.53 C225.23 312.84, 244.6 288.58, 272.74 258.29 M203.85 337.53 C216.79 321.07, 232.01 304.09, 272.74 258.29 M209.49 337.14 C227.15 316.79, 242.79 295.54, 272.47 264.68 M209.49 337.14 C226.7 315.7, 245.63 294.15, 272.47 264.68 M214.48 337.5 C234.91 312.32, 255.08 287.66, 272.87 270.33 M214.48 337.5 C231.64 317.53, 249.41 298.25, 272.87 270.33 M220.12 337.1 C232.68 323.47, 244.54 309.99, 272.61 276.72 M220.12 337.1 C235.19 317.88, 251.5 300.58, 272.61 276.72 M225.11 337.46 C235.56 323.63, 248.07 309.51, 273 282.37 M225.11 337.46 C235.36 324.32, 247.67 312.23, 273 282.37 M230.75 337.07 C242.62 321.83, 258.26 304.03, 272.74 288.76 M230.75 337.07 C241.88 323.22, 253.98 310.11, 272.74 288.76 M235.74 337.43 C248.61 324.2, 259.67 309.46, 272.48 295.16 M235.74 337.43 C250.73 320.98, 265.45 303.02, 272.48 295.16 M242.04 336.28 C250.63 323.23, 261.59 310.72, 272.87 300.81 M242.04 336.28 C251.27 326.72, 259.42 315.73, 272.87 300.81 M247.68 335.88 C253.98 327.22, 263.07 321.33, 274.58 304.94 M247.68 335.88 C257.77 323.49, 268.97 311.31, 274.58 304.94 M254.64 333.98 C260.94 324.93, 267.57 321.31, 273.66 312.09 M254.64 333.98 C260.8 326.07, 267.48 319.49, 273.66 312.09" stroke="#ffec99" stroke-width="0.5" fill="none"></path><path d="M32 0 M32 0 C97.2 -2.7, 159.63 -2.5, 240 0 M240 0 C263.22 -0.26, 273.11 11.64, 272 32 M272 32 C273.28 108.53, 272.38 182.87, 272 303 M272 303 C272.23 322.7, 261.19 333.67, 240 335 M240 335 C186.18 337.47, 133 337.66, 32 335 M32 335 C11.63 335.26, 1.12 322.57, 0 303 M0 303 C-2.49 215.66, -1.49 125.85, 0 32 M0 32 C-1.61 12.47, 10.67 1.25, 32 0" stroke="#1e1e1e" stroke-width="1.5" fill="none" stroke-dasharray="1.5 7"></path></g><g transform="translate(17.200164794921875 585.4126160144806) rotate(0 128.79983520507812 162.5)"><text x="128.79983520507812" y="0" font-family="Virgil, Segoe UI Emoji" font-size="20px" fill="#1e1e1e" text-anchor="middle" style="white-space: pre;" direction="ltr" dominant-baseline="text-before-edge">Access to trips through </text><text x="128.79983520507812" y="25" font-family="Virgil, Segoe UI Emoji" font-size="20px" fill="#1e1e1e" text-anchor="middle" style="white-space: pre;" direction="ltr" dominant-baseline="text-before-edge">the app to be considered </text><text x="128.79983520507812" y="50" font-family="Virgil, Segoe UI Emoji" font-size="20px" fill="#1e1e1e" text-anchor="middle" style="white-space: pre;" direction="ltr" dominant-baseline="text-before-edge">at a later stage. It </text><text x="128.79983520507812" y="75" font-family="Virgil, Segoe UI Emoji" font-size="20px" fill="#1e1e1e" text-anchor="middle" style="white-space: pre;" direction="ltr" dominant-baseline="text-before-edge">adds complexity and </text><text x="128.79983520507812" y="100" font-family="Virgil, Segoe UI Emoji" font-size="20px" fill="#1e1e1e" text-anchor="middle" style="white-space: pre;" direction="ltr" dominant-baseline="text-before-edge">raised questions to the </text><text x="128.79983520507812" y="125" font-family="Virgil, Segoe UI Emoji" font-size="20px" fill="#1e1e1e" text-anchor="middle" style="white-space: pre;" direction="ltr" dominant-baseline="text-before-edge">team, e.g. should viewers </text><text x="128.79983520507812" y="150" font-family="Virgil, Segoe UI Emoji" font-size="20px" fill="#1e1e1e" text-anchor="middle" style="white-space: pre;" direction="ltr" dominant-baseline="text-before-edge">register? Should a link </text><text x="128.79983520507812" y="175" font-family="Virgil, Segoe UI Emoji" font-size="20px" fill="#1e1e1e" text-anchor="middle" style="white-space: pre;" direction="ltr" dominant-baseline="text-before-edge">similar to dropbox suffice</text><text x="128.79983520507812" y="200" font-family="Virgil, Segoe UI Emoji" font-size="20px" fill="#1e1e1e" text-anchor="middle" style="white-space: pre;" direction="ltr" dominant-baseline="text-before-edge">etc.</text><text x="128.79983520507812" y="225" font-family="Virgil, Segoe UI Emoji" font-size="20px" fill="#1e1e1e" text-anchor="middle" style="white-space: pre;" direction="ltr" dominant-baseline="text-before-edge"> Sharing via social will </text><text x="128.79983520507812" y="250" font-family="Virgil, Segoe UI Emoji" font-size="20px" fill="#1e1e1e" text-anchor="middle" style="white-space: pre;" direction="ltr" dominant-baseline="text-before-edge">cover the need and </text><text x="128.79983520507812" y="275" font-family="Virgil, Segoe UI Emoji" font-size="20px" fill="#1e1e1e" text-anchor="middle" style="white-space: pre;" direction="ltr" dominant-baseline="text-before-edge">probably will generate </text><text x="128.79983520507812" y="300" font-family="Virgil, Segoe UI Emoji" font-size="20px" fill="#1e1e1e" text-anchor="middle" style="white-space: pre;" direction="ltr" dominant-baseline="text-before-edge">more impressions</text></g><g stroke-linecap="round" transform="translate(84 1112.4126160144806) rotate(0 136 65)"><path d="M7.86 8.16 C7.86 8.16, 7.86 8.16, 7.86 8.16 M7.86 8.16 C7.86 8.16, 7.86 8.16, 7.86 8.16 M3.66 19.09 C10.3 14.94, 12.87 8.88, 18.1 2.48 M3.66 19.09 C8.35 12.99, 14.13 5.92, 18.1 2.48 M2.75 26.24 C11.23 19.61, 15.49 12.14, 24.4 1.33 M2.75 26.24 C9.31 19.86, 15.48 11.85, 24.4 1.33 M2.48 32.64 C12.99 24.12, 18.68 15.18, 30.7 0.18 M2.48 32.64 C11.3 22.66, 21.3 11.11, 30.7 0.18 M2.88 38.28 C16.46 25.32, 28.71 9.19, 34.37 2.05 M2.88 38.28 C10.53 28.05, 19.33 19.35, 34.37 2.05 M2.62 44.68 C13.43 33.58, 21.73 23.68, 39.36 2.41 M2.62 44.68 C16.79 27.61, 32.11 12.16, 39.36 2.41 M2.36 51.07 C16.39 35.27, 27.32 21.96, 45 2.02 M2.36 51.07 C13.46 37.28, 25.96 22.31, 45 2.02 M2.75 56.72 C16.46 45.43, 27.96 31.34, 49.99 2.38 M2.75 56.72 C21.38 36.46, 39.11 15.9, 49.99 2.38 M2.49 63.11 C20.25 45.7, 36.01 26.31, 55.63 1.98 M2.49 63.11 C15.6 47.39, 30.89 30.99, 55.63 1.98 M2.88 68.76 C20.93 47.63, 37.49 29.04, 60.62 2.34 M2.88 68.76 C17.2 53.02, 30.35 36.89, 60.62 2.34 M2.62 75.16 C17.24 56.75, 31.36 40.87, 66.26 1.95 M2.62 75.16 C22.7 52.24, 42.94 28.83, 66.26 1.95 M2.36 81.55 C18.8 61.62, 37.85 44.6, 71.25 2.31 M2.36 81.55 C20.4 60.29, 39.1 40.37, 71.25 2.31 M2.76 87.2 C30.76 53.93, 58.77 22.69, 76.89 1.91 M2.76 87.2 C21.44 67.78, 38.51 45.72, 76.89 1.91 M2.49 93.59 C26.5 65.93, 51.04 37.35, 81.88 2.27 M2.49 93.59 C24.71 68.67, 47.22 41.55, 81.88 2.27 M2.89 99.24 C29.11 66.96, 60.24 32.26, 87.52 1.88 M2.89 99.24 C27.33 71.26, 50.86 44.49, 87.52 1.88 M1.97 106.39 C31.62 72.49, 59 39.01, 92.51 2.24 M1.97 106.39 C27.66 76.13, 54.44 46.1, 92.51 2.24 M3.02 111.28 C26.03 85.87, 44.57 60.35, 98.15 1.85 M3.02 111.28 C32.8 76.41, 63.51 40.68, 98.15 1.85 M4.73 115.41 C37.44 81.53, 65.08 46.13, 103.14 2.21 M4.73 115.41 C26.86 91.4, 48.23 65.88, 103.14 2.21 M6.44 119.55 C32.47 89.61, 62.34 55.87, 108.78 1.81 M6.44 119.55 C35.76 85.67, 63.64 52.44, 108.78 1.81 M9.45 122.17 C46.19 81.09, 80.89 41.22, 113.77 2.17 M9.45 122.17 C45.59 81.05, 80.97 39.9, 113.77 2.17 M12.47 124.79 C50.96 82.22, 88.33 36.01, 119.41 1.78 M12.47 124.79 C49.72 83.07, 87.25 38.38, 119.41 1.78 M14.84 128.17 C41.62 98.01, 68.96 71.36, 124.4 2.14 M14.84 128.17 C46.87 89.47, 78.47 53.09, 124.4 2.14 M19.17 129.29 C55.95 86.33, 94.2 45.56, 130.04 1.74 M19.17 129.29 C58.49 83.41, 96.24 39.59, 130.04 1.74 M23.5 130.4 C51.37 101.04, 75.67 71.2, 135.03 2.1 M23.5 130.4 C47.83 100.14, 75.43 68.67, 135.03 2.1 M27.17 132.27 C60.62 91.59, 95.69 54.27, 140.67 1.71 M27.17 132.27 C67.81 85.62, 106.07 41.98, 140.67 1.71 M33.47 131.12 C55.33 104.99, 80.47 78.88, 145.66 2.07 M33.47 131.12 C65.58 92.9, 99.4 55.64, 145.66 2.07 M38.46 131.48 C69.55 94.17, 103.81 56.04, 150.65 2.43 M38.46 131.48 C68.14 97.68, 98.73 63.23, 150.65 2.43 M44.1 131.09 C89.43 83.51, 128.9 34.67, 156.29 2.03 M44.1 131.09 C80.32 88.45, 119.03 44.17, 156.29 2.03 M49.09 131.45 C75.72 99.99, 103.36 70.46, 161.28 2.39 M49.09 131.45 C78.42 98.34, 108.13 63.84, 161.28 2.39 M54.73 131.05 C77.1 101.7, 102.61 75.12, 166.92 2 M54.73 131.05 C97.85 81.64, 141.91 32.84, 166.92 2 M59.72 131.41 C102.38 84.39, 143.37 39.75, 171.91 2.36 M59.72 131.41 C99.95 84.05, 142.09 37.35, 171.91 2.36 M65.36 131.02 C107.31 82.46, 149.61 33.51, 177.55 1.96 M65.36 131.02 C109.17 82.81, 151.74 33.71, 177.55 1.96 M70.35 131.38 C90.79 105.52, 115.11 80.4, 182.54 2.32 M70.35 131.38 C95.78 105.12, 119.98 77.24, 182.54 2.32 M75.99 130.98 C110.78 89.56, 147.39 48.44, 188.18 1.93 M75.99 130.98 C101.49 100.09, 129.43 68.51, 188.18 1.93 M80.98 131.35 C123.31 78.14, 168.7 29.19, 193.17 2.29 M80.98 131.35 C117.81 90.4, 156.08 47.22, 193.17 2.29 M86.62 130.95 C120.98 88.28, 160.29 46.38, 198.81 1.9 M86.62 130.95 C111.09 101.78, 136.89 73.37, 198.81 1.9 M91.61 131.31 C121.3 96.2, 153.77 59.39, 203.8 2.26 M91.61 131.31 C120.31 97.3, 151.07 65.56, 203.8 2.26 M97.25 130.92 C121.45 100.75, 148.17 71.86, 209.44 1.86 M97.25 130.92 C135.09 87.8, 171.48 45.71, 209.44 1.86 M102.24 131.28 C136.89 91.04, 168.48 53.36, 214.43 2.22 M102.24 131.28 C146.67 81.25, 190.77 28.27, 214.43 2.22 M107.88 130.88 C143.01 89.27, 181.46 47.54, 220.07 1.83 M107.88 130.88 C141.2 94.16, 173.76 56.7, 220.07 1.83 M112.87 131.24 C138.83 104.21, 159.42 75.58, 225.06 2.19 M112.87 131.24 C158.23 81.19, 203.49 29.06, 225.06 2.19 M118.51 130.85 C149.29 94.78, 182.37 57.79, 230.7 1.79 M118.51 130.85 C144.79 102.33, 169.84 73.19, 230.7 1.79 M123.5 131.21 C151.62 98.38, 179.37 68.7, 235.69 2.15 M123.5 131.21 C161.43 85.72, 201.72 40.63, 235.69 2.15 M128.49 131.57 C170.93 85.52, 210.05 38.14, 241.33 1.76 M128.49 131.57 C170.54 84.71, 210.87 36.78, 241.33 1.76 M134.13 131.17 C175.8 82.28, 217.88 33.78, 246.32 2.12 M134.13 131.17 C176.99 78.68, 222.53 27.87, 246.32 2.12 M139.12 131.53 C168.07 97.04, 199.24 63.55, 251.3 2.48 M139.12 131.53 C172.43 94.28, 206.07 55.98, 251.3 2.48 M144.76 131.14 C171.92 100.1, 196.85 71.99, 255.63 3.59 M144.76 131.14 C179.69 90.55, 216 49.37, 255.63 3.59 M149.75 131.5 C177.88 99.09, 204.28 66.32, 259.97 4.71 M149.75 131.5 C188.01 87.22, 227.77 42.3, 259.97 4.71 M155.39 131.1 C175.1 103.76, 197.97 79.13, 262.98 7.33 M155.39 131.1 C195.17 84.98, 234.22 40.19, 262.98 7.33 M160.38 131.46 C185.8 101.31, 208.68 76.49, 265.35 10.71 M160.38 131.46 C183.99 104.48, 207.37 79.03, 265.35 10.71 M166.02 131.07 C199.99 90.27, 233.75 53.98, 268.37 13.33 M166.02 131.07 C188.47 106.05, 207.79 81.7, 268.37 13.33 M171.01 131.43 C199.26 100.3, 226.98 70.58, 270.07 17.47 M171.01 131.43 C203.32 93.75, 237.48 55.02, 270.07 17.47 M176.65 131.03 C212.62 88.23, 250.62 45.18, 271.12 22.36 M176.65 131.03 C209.76 93.01, 243.66 53.98, 271.12 22.36 M181.64 131.39 C208.53 99.99, 233.22 70.99, 273.49 25.74 M181.64 131.39 C205.6 103.57, 229.92 76.89, 273.49 25.74 M187.28 131 C209.06 109.13, 227.61 87.13, 273.22 32.13 M187.28 131 C205.51 110.63, 224.97 88.08, 273.22 32.13 M192.27 131.36 C221.03 98.85, 248.17 66.12, 273.62 37.78 M192.27 131.36 C218 100.14, 245.51 70.36, 273.62 37.78 M197.91 130.97 C216.88 107.63, 236.26 85.96, 273.36 44.17 M197.91 130.97 C227.04 97.22, 256.83 63.92, 273.36 44.17 M202.9 131.33 C228.58 103.07, 254.56 73, 273.1 50.57 M202.9 131.33 C217.45 114.17, 230.46 98.65, 273.1 50.57 M208.54 130.93 C226.87 107.22, 250.99 83.94, 273.49 56.21 M208.54 130.93 C231.32 105.3, 253.99 78.63, 273.49 56.21 M213.53 131.29 C225.83 117.56, 240.37 100.33, 273.23 62.61 M213.53 131.29 C231.53 109.12, 250.81 89.77, 273.23 62.61 M219.17 130.9 C243.16 107.8, 263.65 82.13, 273.62 68.26 M219.17 130.9 C231.42 116.58, 243.1 104.11, 273.62 68.26 M224.16 131.26 C238.66 114.68, 250.02 103.48, 273.36 74.65 M224.16 131.26 C233.77 119.61, 243.41 109.15, 273.36 74.65 M229.8 130.86 C245.58 110.24, 264.49 92.36, 273.76 80.3 M229.8 130.86 C245.54 114.55, 260.97 96.14, 273.76 80.3 M234.79 131.22 C250.2 113.99, 263.33 99.16, 273.5 86.69 M234.79 131.22 C249.8 113.8, 265.34 95.23, 273.5 86.69 M240.43 130.83 C247.42 122.56, 255.67 113.89, 273.89 92.34 M240.43 130.83 C251.25 118.46, 262.37 103.73, 273.89 92.34 M246.07 130.43 C253.65 123.64, 258.17 116.96, 272.97 99.49 M246.07 130.43 C255.65 118.64, 265.57 109.61, 272.97 99.49 M250.4 131.55 C254.97 123.67, 261.59 118.55, 272.05 106.64 M250.4 131.55 C255.19 124.03, 262.47 117.09, 272.05 106.64" stroke="#ffec99" stroke-width="0.5" fill="none"></path><path d="M32 0 M32 0 C76.62 -1.94, 121 -0.84, 240 0 M240 0 C260.45 -0.8, 271.17 11.92, 272 32 M272 32 C272.13 53.02, 272.43 76.88, 272 98 M272 98 C270.62 120.96, 263.02 128.64, 240 130 M240 130 C166.11 129.87, 93.65 133.15, 32 130 M32 130 C11.95 131.28, 0.88 121.24, 0 98 M0 98 C-0.75 80.63, -1.38 68.15, 0 32 M0 32 C-0.38 8.67, 11.6 1.33, 32 0" stroke="#1e1e1e" stroke-width="1.5" fill="none" stroke-dasharray="1.5 7"></path></g><g transform="translate(90.10014343261719 1139.9126160144806) rotate(0 129.8998565673828 37.5)"><text x="129.8998565673828" y="0" font-family="Virgil, Segoe UI Emoji" font-size="20px" fill="#1e1e1e" text-anchor="middle" style="white-space: pre;" direction="ltr" dominant-baseline="text-before-edge">Monetization/Payment was</text><text x="129.8998565673828" y="25" font-family="Virgil, Segoe UI Emoji" font-size="20px" fill="#1e1e1e" text-anchor="middle" style="white-space: pre;" direction="ltr" dominant-baseline="text-before-edge">considered out of scope </text><text x="129.8998565673828" y="50" font-family="Virgil, Segoe UI Emoji" font-size="20px" fill="#1e1e1e" text-anchor="middle" style="white-space: pre;" direction="ltr" dominant-baseline="text-before-edge">at this stage</text></g><g stroke-linecap="round" transform="translate(1039 10) rotate(0 207.5 342.5)"><path d="M7.86 8.16 C7.86 8.16, 7.86 8.16, 7.86 8.16 M7.86 8.16 C7.86 8.16, 7.86 8.16, 7.86 8.16 M3.66 19.09 C7.42 12.9, 10.09 8.97, 18.1 2.48 M3.66 19.09 C7.95 13.55, 13.93 8.03, 18.1 2.48 M2.75 26.24 C10.53 20.09, 15.8 8.32, 24.4 1.33 M2.75 26.24 C9.05 19.36, 16.84 10.22, 24.4 1.33 M1.83 33.39 C11.17 22.35, 18.17 15.79, 30.7 0.18 M1.83 33.39 C11.56 23.12, 20.99 12.1, 30.7 0.18 M1.57 39.79 C9.75 29.41, 20.79 19.79, 34.37 2.05 M1.57 39.79 C10.05 28.41, 19.85 19.28, 34.37 2.05 M1.96 45.43 C12.38 31.63, 22.99 21.36, 39.36 2.41 M1.96 45.43 C14.14 31.97, 25.23 19.06, 39.36 2.41 M1.7 51.83 C13.74 35.17, 26.66 21.34, 45 2.02 M1.7 51.83 C10.77 40.53, 21.29 30.44, 45 2.02 M1.44 58.23 C19.42 38.56, 37.5 18.22, 49.99 2.38 M1.44 58.23 C15.65 41.21, 30.97 22.98, 49.99 2.38 M1.83 63.87 C24.08 39.83, 41.74 16.94, 55.63 1.98 M1.83 63.87 C17.03 46.43, 30.8 31.31, 55.63 1.98 M1.57 70.27 C15.33 57.73, 28.92 39.98, 60.62 2.34 M1.57 70.27 C22.43 46.35, 42.65 22.79, 60.62 2.34 M1.97 75.91 C22.06 54.11, 42.23 28.79, 66.26 1.95 M1.97 75.91 C21.85 53.14, 41.7 28.99, 66.26 1.95 M1.71 82.31 C26.27 53.06, 54.95 22.83, 71.25 2.31 M1.71 82.31 C24.94 56.15, 48.1 30.58, 71.25 2.31 M1.44 88.71 C19.77 66.65, 42.13 42.77, 76.89 1.91 M1.44 88.71 C29.25 55.6, 57.87 21.88, 76.89 1.91 M1.84 94.35 C27.25 66.19, 51.49 37.03, 81.88 2.27 M1.84 94.35 C31.59 60.85, 60.9 25.85, 81.88 2.27 M1.58 100.75 C17.74 80.51, 36.28 60.33, 87.52 1.88 M1.58 100.75 C22.74 73.61, 46.73 48.33, 87.52 1.88 M1.97 106.39 C36.75 65.4, 74.95 25.58, 92.51 2.24 M1.97 106.39 C25.51 79.12, 48.04 53.89, 92.51 2.24 M1.71 112.79 C33.62 73.84, 66.14 37.49, 98.15 1.85 M1.71 112.79 C30.13 79.15, 57.27 49, 98.15 1.85 M1.45 119.19 C26.73 89.57, 54.23 59.34, 103.14 2.21 M1.45 119.19 C22.59 94.36, 44.31 70.16, 103.14 2.21 M1.84 124.83 C28.21 93.45, 58.22 57.51, 108.78 1.81 M1.84 124.83 C38.41 84.39, 73.81 43.79, 108.78 1.81 M1.58 131.23 C34.98 93.38, 69.89 53.52, 113.77 2.17 M1.58 131.23 C37.78 89.74, 74.71 47.95, 113.77 2.17 M1.98 136.87 C45.43 86.78, 89.35 37.47, 119.41 1.78 M1.98 136.87 C27.48 107.6, 53.15 78.86, 119.41 1.78 M1.72 143.27 C51.65 89.21, 100.2 34.41, 124.4 2.14 M1.72 143.27 C39.47 99.29, 78.93 56.18, 124.4 2.14 M1.45 149.67 C34.36 110.26, 66.3 75.45, 130.04 1.74 M1.45 149.67 C41.52 103.15, 82.09 57.31, 130.04 1.74 M1.85 155.31 C41.77 111.99, 78.09 66.27, 135.03 2.1 M1.85 155.31 C43.84 106.93, 87.07 55.97, 135.03 2.1 M1.59 161.71 C46.49 112.95, 90.06 64.09, 140.67 1.71 M1.59 161.71 C48.97 107.96, 95.29 54.56, 140.67 1.71 M1.98 167.35 C45.15 117.15, 86.76 71.04, 145.66 2.07 M1.98 167.35 C60.6 102.3, 116.96 37.61, 145.66 2.07 M1.72 173.75 C55.76 111.46, 106.71 52.44, 150.65 2.43 M1.72 173.75 C53.15 112.85, 105.19 52.97, 150.65 2.43 M1.46 180.14 C56.82 116.89, 111.01 53.71, 156.29 2.03 M1.46 180.14 C62.86 112.53, 121.8 43.53, 156.29 2.03 M1.85 185.79 C63.96 115.27, 127.14 40.99, 161.28 2.39 M1.85 185.79 C60.87 117.71, 119.61 50.79, 161.28 2.39 M1.59 192.19 C66.03 118.17, 128.42 46.41, 166.92 2 M1.59 192.19 C67.72 114.66, 133.94 39.91, 166.92 2 M1.99 197.83 C42.32 152.64, 79.22 106.73, 171.91 2.36 M1.99 197.83 C60.65 130.3, 119.71 63.97, 171.91 2.36 M1.72 204.23 C66.93 131.32, 129.87 60.18, 177.55 1.96 M1.72 204.23 C70.93 124.3, 140.38 43.65, 177.55 1.96 M1.46 210.62 C54.12 150.28, 102.57 90.1, 182.54 2.32 M1.46 210.62 C71.86 129.68, 140.41 50.07, 182.54 2.32 M1.86 216.27 C67.57 136.86, 137.07 59.95, 188.18 1.93 M1.86 216.27 C68.88 138.16, 137.96 58.92, 188.18 1.93 M1.6 222.66 C72.47 139.64, 144.02 59.4, 193.17 2.29 M1.6 222.66 C65.74 148.76, 130.74 74.31, 193.17 2.29 M1.99 228.31 C42.08 182.48, 81.91 136.04, 198.81 1.9 M1.99 228.31 C77.11 142.34, 151.18 56.54, 198.81 1.9 M1.73 234.71 C63.21 163.63, 126.02 91.47, 203.8 2.26 M1.73 234.71 C44.1 185.55, 84.41 138.47, 203.8 2.26 M1.47 241.1 C80.85 154.35, 157.33 66.74, 209.44 1.86 M1.47 241.1 C66.5 165.44, 132.6 89.33, 209.44 1.86 M1.86 246.75 C69.68 167.38, 137.34 89.07, 214.43 2.22 M1.86 246.75 C69.76 166.2, 140.68 85.78, 214.43 2.22 M1.6 253.14 C58.65 186.87, 114.31 122.86, 220.07 1.83 M1.6 253.14 C73.08 170.3, 145.06 88.72, 220.07 1.83 M2 258.79 C53.4 200.07, 106.76 139.78, 225.06 2.19 M2 258.79 C49.21 207.8, 93.15 156.32, 225.06 2.19 M1.73 265.19 C87.66 164.73, 175.81 65.34, 230.7 1.79 M1.73 265.19 C46.8 211.23, 92.13 159.34, 230.7 1.79 M1.47 271.58 C65.4 196.02, 132.64 123.04, 235.69 2.15 M1.47 271.58 C63.56 200, 124.61 129.14, 235.69 2.15 M1.87 277.23 C80.72 184.78, 159.79 94.12, 241.33 1.76 M1.87 277.23 C90.04 174.87, 180.21 71.36, 241.33 1.76 M1.61 283.62 C73.92 203.28, 144.53 121.5, 246.32 2.12 M1.61 283.62 C76.19 200.99, 148.35 116.7, 246.32 2.12 M2 289.27 C57.04 222.67, 114.18 158.3, 251.96 1.72 M2 289.27 C84.09 195.1, 167.5 100.67, 251.96 1.72 M1.74 295.66 C77.91 207.85, 151.67 120.27, 256.95 2.08 M1.74 295.66 C63.82 224.62, 124.45 154.53, 256.95 2.08 M1.48 302.06 C73.46 219.57, 144.74 137.42, 262.59 1.69 M1.48 302.06 C53.33 241.23, 105.71 181.39, 262.59 1.69 M1.87 307.71 C92.04 205.53, 181.98 100.32, 267.58 2.05 M1.87 307.71 C97.18 198.12, 193.17 87.03, 267.58 2.05 M1.61 314.1 C109.78 188.12, 218.62 64.54, 272.56 2.41 M1.61 314.1 C98.84 201.54, 197.83 87.29, 272.56 2.41 M2.01 319.75 C75.59 236.37, 149.34 151.25, 278.21 2.01 M2.01 319.75 C83.34 223.48, 166.44 128.13, 278.21 2.01 M1.74 326.14 C62.49 256.72, 121.1 188.63, 283.19 2.37 M1.74 326.14 C69.82 245.94, 139.26 165.87, 283.19 2.37 M1.48 332.54 C93.36 227, 181.81 122.56, 288.84 1.98 M1.48 332.54 C63.6 260.42, 127.71 187.51, 288.84 1.98 M1.88 338.19 C69.67 262.35, 136.07 184.16, 293.82 2.34 M1.88 338.19 C94.03 231.45, 185.67 125.7, 293.82 2.34 M1.62 344.58 C102.18 230.79, 202.41 114.15, 299.47 1.94 M1.62 344.58 C74.92 260.61, 147.94 176.59, 299.47 1.94 M2.01 350.23 C88.61 250.5, 176.38 150.04, 304.45 2.3 M2.01 350.23 C91.09 248.28, 178.25 148.16, 304.45 2.3 M1.75 356.62 C119.2 222.79, 237.89 87.17, 310.1 1.91 M1.75 356.62 C77.38 270.36, 151.18 185.24, 310.1 1.91 M1.49 363.02 C98.7 252.24, 195.44 140.91, 315.08 2.27 M1.49 363.02 C106.35 242.66, 211.56 120.95, 315.08 2.27 M1.88 368.66 C99.26 255.89, 195.56 143.8, 320.73 1.88 M1.88 368.66 C72.07 288.69, 141.92 208.36, 320.73 1.88 M1.62 375.06 C107.09 253.54, 211.01 133.2, 325.71 2.24 M1.62 375.06 C87.54 274.66, 174.1 175.68, 325.71 2.24 M2.02 380.71 C122.75 242.77, 242.56 105.07, 331.36 1.84 M2.02 380.71 C114 251.99, 227.13 121.55, 331.36 1.84 M1.75 387.1 C89.76 285.66, 177.86 184.42, 336.34 2.2 M1.75 387.1 C114.81 254.87, 227.8 124.32, 336.34 2.2 M1.49 393.5 C78.17 307.38, 152.69 221.45, 341.99 1.81 M1.49 393.5 C111.48 268.54, 220.49 143.48, 341.99 1.81 M1.89 399.14 C129.45 251.6, 258.37 102.94, 346.97 2.17 M1.89 399.14 C92.47 294.94, 182.21 191.04, 346.97 2.17 M1.63 405.54 C121.53 267.43, 239.95 131.06, 352.62 1.77 M1.63 405.54 C73.68 322.95, 144.67 241.46, 352.62 1.77 M2.02 411.18 C140.36 253.47, 277.33 95.21, 357.6 2.13 M2.02 411.18 C137.88 255.58, 273.99 98.23, 357.6 2.13 M1.76 417.58 C139.31 257.98, 276.94 99.92, 363.25 1.74 M1.76 417.58 C144.18 254.57, 286.38 91.06, 363.25 1.74 M1.5 423.98 C127.65 278.6, 254.76 133.53, 368.23 2.1 M1.5 423.98 C113.28 294.93, 225.96 165.19, 368.23 2.1 M1.89 429.62 C83.79 335.95, 165.77 241.32, 373.88 1.7 M1.89 429.62 C91 326.93, 179.64 224.69, 373.88 1.7 M1.63 436.02 C77.51 347.64, 155.45 258.67, 378.86 2.06 M1.63 436.02 C105.04 316.56, 210.02 196.11, 378.86 2.06 M2.02 441.66 C126.25 298.86, 251.99 154.06, 384.51 1.67 M2.02 441.66 C91.39 337.35, 180.96 234.28, 384.51 1.67 M1.76 448.06 C83.01 357.78, 161.56 266.46, 389.49 2.03 M1.76 448.06 C153.66 275.65, 304.44 101.8, 389.49 2.03 M1.5 454.46 C150.94 282.6, 301.37 109.01, 393.83 3.14 M1.5 454.46 C90.62 354.12, 177.67 253.03, 393.83 3.14 M1.9 460.1 C124.43 320.5, 246.03 181.31, 398.81 3.5 M1.9 460.1 C154.04 286.21, 304.84 112.84, 398.81 3.5 M1.64 466.5 C106.61 342.98, 212.22 220.15, 403.14 4.62 M1.64 466.5 C160.75 284.34, 318.99 102.62, 403.14 4.62 M2.03 472.14 C145.8 305.44, 291.72 139.52, 405.51 8 M2.03 472.14 C98.49 361.41, 194.54 250.19, 405.51 8 M1.77 478.54 C106.68 361.49, 208.9 241.64, 408.52 10.62 M1.77 478.54 C115.76 347.58, 228.61 216.88, 408.52 10.62 M1.51 484.94 C135.42 330.63, 269.07 176.57, 411.54 13.25 M1.51 484.94 C85.03 391.19, 166.96 296.52, 411.54 13.25 M1.9 490.58 C96.06 380.54, 193.55 268.69, 413.25 17.38 M1.9 490.58 C151.29 317.92, 301.14 146.31, 413.25 17.38 M1.64 496.98 C115.09 369.12, 225.06 241.8, 415.61 20.76 M1.64 496.98 C142.61 334.38, 284.84 170.72, 415.61 20.76 M2.03 502.62 C124.7 359.28, 248.42 216.43, 416.66 25.65 M2.03 502.62 C117.97 370.25, 232.08 238.86, 416.66 25.65 M1.77 509.02 C144.73 342.07, 290.49 175.41, 415.75 32.8 M1.77 509.02 C166.97 320.11, 331.6 131.1, 415.75 32.8 M1.51 515.42 C142.84 355.1, 281.5 194.7, 416.14 38.44 M1.51 515.42 C162.8 330.4, 325.43 143.17, 416.14 38.44 M1.91 521.06 C100.44 405.76, 200.77 291.83, 415.88 44.84 M1.91 521.06 C141.03 360.45, 279.44 200.98, 415.88 44.84 M1.64 527.46 C101.28 408.79, 202.76 293.38, 415.62 51.24 M1.64 527.46 C98.45 416.81, 195.97 304.26, 415.62 51.24 M2.04 533.1 C129.45 383.91, 257.84 235.51, 416.01 56.88 M2.04 533.1 C156.96 352.67, 314.07 171.84, 416.01 56.88 M1.78 539.5 C134.42 388.15, 267.01 235.04, 415.75 63.28 M1.78 539.5 C113.96 408.28, 228.7 276.37, 415.75 63.28 M1.52 545.9 C99 431.83, 196.15 319.82, 416.15 68.92 M1.52 545.9 C165.44 357.1, 330.14 167.28, 416.15 68.92 M1.91 551.54 C111.99 425.49, 220.55 300.63, 415.88 75.32 M1.91 551.54 C137.39 394.79, 273.59 238.08, 415.88 75.32 M1.65 557.94 C166.36 369.22, 329.78 181.18, 415.62 81.72 M1.65 557.94 C127.71 411.75, 254.03 265.46, 415.62 81.72 M2.04 563.58 C160.91 381.92, 316.02 202.01, 416.02 87.36 M2.04 563.58 C152.01 391.66, 301.29 219.5, 416.02 87.36 M1.78 569.98 C111.81 443.27, 221.51 316.71, 415.76 93.76 M1.78 569.98 C111.04 444.43, 221.54 316.97, 415.76 93.76 M1.52 576.38 C158.02 397.06, 312.88 219.41, 415.49 100.16 M1.52 576.38 C118.77 442.7, 234.57 309.7, 415.49 100.16 M1.92 582.02 C100.77 470.2, 198.11 357.63, 415.89 105.8 M1.92 582.02 C120 446.63, 238.53 309.8, 415.89 105.8 M1.65 588.42 C150.93 416.22, 301.01 244.32, 415.63 112.2 M1.65 588.42 C144.57 423.16, 287.69 258.85, 415.63 112.2 M2.05 594.06 C162.69 408.09, 323.6 222.2, 416.02 117.84 M2.05 594.06 C94.89 488.47, 187.84 381.98, 416.02 117.84 M1.79 600.46 C107.24 479.13, 211.24 360.49, 415.76 124.24 M1.79 600.46 C151.7 429.59, 299.96 259.34, 415.76 124.24 M1.53 606.86 C134.44 456.71, 267.77 304.6, 415.5 130.64 M1.53 606.86 C157.58 424.93, 315.29 243.22, 415.5 130.64 M1.92 612.5 C152.77 439.24, 303.45 266.15, 415.89 136.28 M1.92 612.5 C113.44 482.61, 226.07 352.56, 415.89 136.28 M1.66 618.9 C132.72 469.46, 264.09 318.57, 415.63 142.68 M1.66 618.9 C129.61 473.5, 255.8 327.96, 415.63 142.68 M2.05 624.54 C92.37 522.89, 181.07 419.12, 416.03 148.32 M2.05 624.54 C160.87 441.71, 320.11 258.71, 416.03 148.32 M1.79 630.94 C158.36 450.88, 314.47 271.19, 415.77 154.72 M1.79 630.94 C163.96 443.35, 328.29 254.64, 415.77 154.72 M1.53 637.34 C142.55 477.9, 280.1 317.01, 415.5 161.12 M1.53 637.34 C143.55 476.23, 284.67 313.74, 415.5 161.12 M1.93 642.98 C88.14 545.18, 173.06 446.61, 415.9 166.76 M1.93 642.98 C124.99 504.34, 246.12 364.65, 415.9 166.76 M1.66 649.38 C104.01 532.68, 203.99 416.74, 415.64 173.16 M1.66 649.38 C138.36 490.26, 275.64 331.45, 415.64 173.16 M2.06 655.02 C169.06 464.1, 334.11 273.57, 416.03 178.8 M2.06 655.02 C124.45 517.63, 244.61 378.99, 416.03 178.8 M3.11 659.91 C116.79 532.68, 230.1 403.01, 415.77 185.2 M3.11 659.91 C124.91 518.58, 248.49 376.97, 415.77 185.2 M2.19 667.06 C112.09 539.5, 222.8 411.59, 415.51 191.59 M2.19 667.06 C135.77 512.24, 269.16 358.57, 415.51 191.59 M3.9 671.2 C151.23 503.02, 296.89 335.56, 415.9 197.24 M3.9 671.2 C137.86 518.62, 270.25 365.85, 415.9 197.24 M6.26 674.57 C94.69 573.03, 183.14 470.54, 415.64 203.64 M6.26 674.57 C159.72 499.04, 313.86 322.02, 415.64 203.64 M9.28 677.2 C101.69 573.33, 191.59 469.49, 416.04 209.28 M9.28 677.2 C104.56 566.66, 201.93 455.19, 416.04 209.28 M12.3 679.82 C158.96 511.2, 305.68 343.55, 415.78 215.68 M12.3 679.82 C125.48 550.08, 237.69 420.16, 415.78 215.68 M15.32 682.45 C103.98 581.17, 192.43 480.67, 415.51 222.07 M15.32 682.45 C106.91 579.12, 197.41 475.69, 415.51 222.07 M18.99 684.32 C143.69 538.7, 269.2 394.14, 415.91 227.72 M18.99 684.32 C141.35 544.02, 264.3 402.35, 415.91 227.72 M23.98 684.68 C135.94 557.67, 246.67 430.02, 415.65 234.12 M23.98 684.68 C107.51 589.04, 188.9 495.27, 415.65 234.12 M28.97 685.04 C182.25 507.54, 337.28 330.05, 416.04 239.76 M28.97 685.04 C180.22 509.2, 331.79 334.96, 416.04 239.76 M33.3 686.15 C171.51 528.74, 309.33 369.17, 415.78 246.16 M33.3 686.15 C133.92 569.26, 234.32 452.84, 415.78 246.16 M38.28 686.51 C124.65 585.02, 212.27 483.5, 415.52 252.55 M38.28 686.51 C151.75 557.15, 264.81 426.71, 415.52 252.55 M43.93 686.12 C117.71 600.1, 191.02 514.68, 415.91 258.2 M43.93 686.12 C119.68 599.16, 196.36 510.54, 415.91 258.2 M48.91 686.48 C171.65 544.38, 294.96 401.04, 415.65 264.59 M48.91 686.48 C141.01 582.41, 232.72 476.54, 415.65 264.59 M54.56 686.08 C183.26 538.86, 309.7 391.85, 416.05 270.24 M54.56 686.08 C129.81 599.64, 204.52 512.7, 416.05 270.24 M59.54 686.44 C183.15 543.6, 306.79 400.5, 415.78 276.64 M59.54 686.44 C170.85 561.44, 280.73 435.09, 415.78 276.64 M65.19 686.05 C194.81 537.09, 325.22 386.41, 415.52 283.03 M65.19 686.05 C196.6 532.69, 328.96 380, 415.52 283.03 M70.18 686.41 C205.63 530.71, 339.49 376, 415.92 288.68 M70.18 686.41 C202.2 533.92, 335.04 380.98, 415.92 288.68 M75.82 686.01 C149.62 601.13, 222.44 515.56, 415.66 295.07 M75.82 686.01 C204.33 536.97, 333.16 388.35, 415.66 295.07 M80.81 686.37 C178.94 572.61, 278.75 457.32, 416.05 300.72 M80.81 686.37 C160.44 594.48, 240.66 501.36, 416.05 300.72 M86.45 685.98 C167.64 592.79, 248.28 498.88, 415.79 307.12 M86.45 685.98 C159.1 603.02, 231.68 519.38, 415.79 307.12 M91.44 686.34 C158.79 608.54, 227.37 529.49, 415.53 313.51 M91.44 686.34 C182.68 580.44, 273.87 475.82, 415.53 313.51 M97.08 685.94 C170.55 603.42, 242.15 520.78, 415.92 319.16 M97.08 685.94 C178.06 594.68, 258.57 503, 415.92 319.16 M102.07 686.3 C216.29 552.89, 333.03 419.24, 415.66 325.55 M102.07 686.3 C214.29 556.69, 326.95 427.67, 415.66 325.55 M107.71 685.91 C206.75 571.42, 305.22 457.49, 416.06 331.2 M107.71 685.91 C225.57 551.45, 341.61 417.3, 416.06 331.2 M112.7 686.27 C210.31 577.74, 304.82 467.04, 415.79 337.59 M112.7 686.27 C225.19 557.34, 338.74 427.57, 415.79 337.59 M118.34 685.88 C208.94 582.85, 298.41 481.56, 415.53 343.99 M118.34 685.88 C190.78 603.58, 263.38 519.47, 415.53 343.99 M123.33 686.24 C209.22 588.25, 296.44 488.41, 415.93 349.64 M123.33 686.24 C202.86 595.5, 281.38 504.88, 415.93 349.64 M128.97 685.84 C227.04 574.57, 322.99 461, 415.67 356.03 M128.97 685.84 C199.13 604.68, 269.46 522.83, 415.67 356.03 M133.96 686.2 C208.92 602.13, 281 518.91, 416.06 361.68 M133.96 686.2 C203.09 609.24, 271.55 529.77, 416.06 361.68 M139.6 685.81 C199.91 617.87, 258.57 550.04, 415.8 368.07 M139.6 685.81 C229.37 580.85, 319.43 475.53, 415.8 368.07 M144.59 686.17 C215.75 604.87, 286.67 522, 415.54 374.47 M144.59 686.17 C234.18 583.41, 324.23 479.17, 415.54 374.47 M150.23 685.77 C229.06 592.33, 310.43 498.8, 415.93 380.11 M150.23 685.77 C251.13 571.43, 351.03 455.68, 415.93 380.11 M155.22 686.13 C219.82 608.64, 285.06 532.68, 415.67 386.51 M155.22 686.13 C212.99 618.77, 271.11 551.68, 415.67 386.51 M160.2 686.49 C258.63 571.98, 359.12 456.46, 416.07 392.16 M160.2 686.49 C218.49 618.77, 275.96 551.89, 416.07 392.16 M165.85 686.1 C240.23 599.03, 315.82 511.94, 415.8 398.55 M165.85 686.1 C229.06 611.94, 292.69 538.21, 415.8 398.55 M170.83 686.46 C235.39 614.4, 297.69 542.61, 415.54 404.95 M170.83 686.46 C234.91 611.51, 299.4 538.3, 415.54 404.95 M176.48 686.06 C262.88 585.37, 349.75 486.12, 415.94 410.59 M176.48 686.06 C227.32 629.72, 276.95 572.05, 415.94 410.59 M181.46 686.42 C250.82 607.42, 321.93 526.24, 415.68 416.99 M181.46 686.42 C231.07 629.36, 280.31 572.88, 415.68 416.99 M187.11 686.03 C256.63 607.24, 325.69 527.26, 416.07 422.64 M187.11 686.03 C255.54 606.1, 324.26 526.22, 416.07 422.64 M192.09 686.39 C258.78 608.98, 328.2 531.02, 415.81 429.03 M192.09 686.39 C270.54 595.99, 349.17 506.27, 415.81 429.03 M197.74 685.99 C259.15 614.97, 321.89 541.82, 415.55 435.43 M197.74 685.99 C245.11 631.37, 292.42 575.83, 415.55 435.43 M202.72 686.35 C257.47 620.58, 312.73 558.09, 415.94 441.07 M202.72 686.35 C267.93 610.3, 332.33 535.81, 415.94 441.07 M208.37 685.96 C290.59 590.71, 370.96 497.91, 415.68 447.47 M208.37 685.96 C266.54 620.81, 323.81 554.58, 415.68 447.47 M213.35 686.32 C289.73 597.41, 364.63 510.25, 416.08 453.11 M213.35 686.32 C263.24 630.12, 311.52 574.04, 416.08 453.11 M219 685.93 C296.93 598.05, 373.58 509.27, 415.81 459.51 M219 685.93 C267.85 629.11, 315.89 573.74, 415.81 459.51 M223.98 686.29 C272 632.26, 319.75 576.41, 415.55 465.91 M223.98 686.29 C277.45 628.01, 329.94 567.79, 415.55 465.91 M229.63 685.89 C298.68 605.8, 363.96 528.57, 415.95 471.55 M229.63 685.89 C293.79 612.3, 356.75 539.31, 415.95 471.55 M234.61 686.25 C285.62 625.73, 337.5 567.46, 415.69 477.95 M234.61 686.25 C282.84 629.03, 330.86 573.65, 415.69 477.95 M240.26 685.86 C291.26 627.85, 341.3 569.72, 416.08 483.59 M240.26 685.86 C279.19 639.48, 317.55 594.87, 416.08 483.59 M245.24 686.22 C294.48 629.47, 344.48 569.09, 415.82 489.99 M245.24 686.22 C288.05 638.34, 328.02 590.95, 415.82 489.99 M250.89 685.82 C292.35 636.02, 334.27 588.7, 415.56 496.39 M250.89 685.82 C283.09 647.63, 317.08 610.5, 415.56 496.39 M255.87 686.18 C298.23 634.22, 345.73 582.55, 415.95 502.03 M255.87 686.18 C309.52 622.78, 365.72 559.41, 415.95 502.03 M261.52 685.79 C297.09 644.56, 335.39 603.2, 415.69 508.43 M261.52 685.79 C297.33 644.74, 332.33 603.72, 415.69 508.43 M266.5 686.15 C304.58 642.15, 342.77 596.69, 416.09 514.07 M266.5 686.15 C309.22 638.44, 350.26 589.68, 416.09 514.07 M271.49 686.51 C319.64 632.14, 369.54 576.3, 415.82 520.47 M271.49 686.51 C316.72 634.22, 362.35 581.92, 415.82 520.47 M277.13 686.11 C309.75 646.34, 343.53 609.67, 415.56 526.87 M277.13 686.11 C320.5 637.39, 363.34 589.35, 415.56 526.87 M282.12 686.47 C328.13 633.38, 373.43 582.59, 415.96 532.51 M282.12 686.47 C321.72 638.47, 363.46 591.48, 415.96 532.51 M287.76 686.08 C320.98 644.5, 355.71 605.06, 415.7 538.91 M287.76 686.08 C316.7 653.29, 344.16 621.61, 415.7 538.91 M292.75 686.44 C338.16 634.64, 379.41 586.22, 416.09 544.55 M292.75 686.44 C329.22 643.92, 366.35 602.61, 416.09 544.55 M298.39 686.04 C337.98 639.08, 375.98 595.41, 415.83 550.95 M298.39 686.04 C340.43 638.35, 383.02 589.42, 415.83 550.95 M303.38 686.4 C344.87 640.54, 386.85 591.89, 415.57 557.35 M303.38 686.4 C328.61 655.52, 355.22 625.91, 415.57 557.35 M309.02 686.01 C340.72 651.13, 373.29 612.68, 415.96 562.99 M309.02 686.01 C332.11 660.11, 353.96 633.91, 415.96 562.99 M314.01 686.37 C341.54 652.25, 373.75 618.12, 415.7 569.39 M314.01 686.37 C346.55 650.68, 376.89 615.27, 415.7 569.39 M319.65 685.98 C353.92 649.43, 389.53 609.06, 416.09 575.03 M319.65 685.98 C340.78 659.85, 363.18 633.19, 416.09 575.03 M324.64 686.34 C353.16 651.65, 382.87 618.3, 415.83 581.43 M324.64 686.34 C356.08 650.24, 388.71 613.86, 415.83 581.43 M330.28 685.94 C362.36 649.92, 392.7 616.5, 415.57 587.83 M330.28 685.94 C364.67 646.31, 397.51 608.2, 415.57 587.83 M335.27 686.3 C367.22 651.55, 397.11 615.96, 415.97 593.47 M335.27 686.3 C355.23 663.36, 374.84 641.72, 415.97 593.47 M340.91 685.91 C367.55 655.2, 392.6 629.06, 415.71 599.87 M340.91 685.91 C359.76 665.06, 377.8 645.25, 415.71 599.87 M345.9 686.27 C364.1 665.88, 383.27 645.2, 416.1 605.51 M345.9 686.27 C368.95 660.88, 391.62 633.88, 416.1 605.51 M351.54 685.87 C371.6 658.87, 395.6 636.12, 415.84 611.91 M351.54 685.87 C366 667.57, 381.91 651.53, 415.84 611.91 M356.53 686.23 C373.58 664.51, 393.28 646.66, 415.58 618.31 M356.53 686.23 C379.56 660.86, 400.59 635.87, 415.58 618.31 M362.17 685.84 C382.08 663.02, 402.32 638.97, 415.97 623.95 M362.17 685.84 C373.81 673.2, 386.1 658.47, 415.97 623.95 M367.16 686.2 C380.99 669.4, 395.5 653.74, 415.71 630.35 M367.16 686.2 C376.3 673.74, 387.71 662.18, 415.71 630.35 M372.8 685.8 C389.62 670.06, 404.11 653.06, 416.1 635.99 M372.8 685.8 C388.97 667.86, 403.27 649.37, 416.1 635.99 M377.79 686.16 C392.69 667.45, 408.08 653.24, 415.84 642.39 M377.79 686.16 C388.55 673.59, 401.33 659.98, 415.84 642.39 M383.43 685.77 C390.01 677.46, 400.54 667.92, 415.58 648.79 M383.43 685.77 C394.04 672.89, 407.76 657.72, 415.58 648.79 M389.73 684.62 C395.25 677.63, 400.46 671.77, 415.98 654.43 M389.73 684.62 C399.57 673.48, 409.89 661.41, 415.98 654.43 M396.03 683.47 C403.47 673.89, 411.59 668.01, 415.06 661.58 M396.03 683.47 C402.49 676.58, 409.2 668.65, 415.06 661.58" stroke="#ffec99" stroke-width="0.5" fill="none"></path><path d="M32 0 M32 0 C119.77 0.89, 207.55 0.14, 383 0 M383 0 C402.41 -1.87, 415.55 11.99, 415 32 M415 32 C415.2 269.2, 415.54 505.01, 415 653 M415 653 C415.86 673.18, 405.31 683.73, 383 685 M383 685 C286.96 686.2, 193.06 687.46, 32 685 M32 685 C9.72 683.14, 1.57 674.04, 0 653 M0 653 C1.09 439.66, 1 224.88, 0 32 M0 32 C-1.01 11.38, 8.79 0.05, 32 0" stroke="#1e1e1e" stroke-width="1.5" fill="none" stroke-dasharray="1.5 7"></path></g><g transform="translate(1044.9602661132812 15) rotate(0 201.53973388671875 337.5)"><text x="201.53973388671875" y="0" font-family="Virgil, Segoe UI Emoji" font-size="20px" fill="#1e1e1e" text-anchor="middle" style="white-space: pre;" direction="ltr" dominant-baseline="text-before-edge">We considered the following alternatives:</text><text x="201.53973388671875" y="25" font-family="Virgil, Segoe UI Emoji" font-size="20px" fill="#1e1e1e" text-anchor="middle" style="white-space: pre;" direction="ltr" dominant-baseline="text-before-edge"></text><text x="201.53973388671875" y="50" font-family="Virgil, Segoe UI Emoji" font-size="20px" fill="#1e1e1e" text-anchor="middle" style="white-space: pre;" direction="ltr" dominant-baseline="text-before-edge">- Support only the "forward confirmation</text><text x="201.53973388671875" y="75" font-family="Virgil, Segoe UI Emoji" font-size="20px" fill="#1e1e1e" text-anchor="middle" style="white-space: pre;" direction="ltr" dominant-baseline="text-before-edge">email" use case (using a user-specific </text><text x="201.53973388671875" y="100" font-family="Virgil, Segoe UI Emoji" font-size="20px" fill="#1e1e1e" text-anchor="middle" style="white-space: pre;" direction="ltr" dominant-baseline="text-before-edge">email address), which would significantly </text><text x="201.53973388671875" y="125" font-family="Virgil, Segoe UI Emoji" font-size="20px" fill="#1e1e1e" text-anchor="middle" style="white-space: pre;" direction="ltr" dominant-baseline="text-before-edge">reduce the amount of processing </text><text x="201.53973388671875" y="150" font-family="Virgil, Segoe UI Emoji" font-size="20px" fill="#1e1e1e" text-anchor="middle" style="white-space: pre;" direction="ltr" dominant-baseline="text-before-edge">required but would put extra work to </text><text x="201.53973388671875" y="175" font-family="Virgil, Segoe UI Emoji" font-size="20px" fill="#1e1e1e" text-anchor="middle" style="white-space: pre;" direction="ltr" dominant-baseline="text-before-edge">the user (like tripit.com does)</text><text x="201.53973388671875" y="200" font-family="Virgil, Segoe UI Emoji" font-size="20px" fill="#1e1e1e" text-anchor="middle" style="white-space: pre;" direction="ltr" dominant-baseline="text-before-edge"></text><text x="201.53973388671875" y="225" font-family="Virgil, Segoe UI Emoji" font-size="20px" fill="#1e1e1e" text-anchor="middle" style="white-space: pre;" direction="ltr" dominant-baseline="text-before-edge">- Provide email addresses to users and </text><text x="201.53973388671875" y="250" font-family="Virgil, Segoe UI Emoji" font-size="20px" fill="#1e1e1e" text-anchor="middle" style="white-space: pre;" direction="ltr" dominant-baseline="text-before-edge">ask them to register those with their </text><text x="201.53973388671875" y="275" font-family="Virgil, Segoe UI Emoji" font-size="20px" fill="#1e1e1e" text-anchor="middle" style="white-space: pre;" direction="ltr" dominant-baseline="text-before-edge">travel agent, with the promise we will </text><text x="201.53973388671875" y="300" font-family="Virgil, Segoe UI Emoji" font-size="20px" fill="#1e1e1e" text-anchor="middle" style="white-space: pre;" direction="ltr" dominant-baseline="text-before-edge">forward all of them to their actual </text><text x="201.53973388671875" y="325" font-family="Virgil, Segoe UI Emoji" font-size="20px" fill="#1e1e1e" text-anchor="middle" style="white-space: pre;" direction="ltr" dominant-baseline="text-before-edge">email address. This option preserves </text><text x="201.53973388671875" y="350" font-family="Virgil, Segoe UI Emoji" font-size="20px" fill="#1e1e1e" text-anchor="middle" style="white-space: pre;" direction="ltr" dominant-baseline="text-before-edge">user privacy but reduces ease of use.</text><text x="201.53973388671875" y="375" font-family="Virgil, Segoe UI Emoji" font-size="20px" fill="#1e1e1e" text-anchor="middle" style="white-space: pre;" direction="ltr" dominant-baseline="text-before-edge"></text><text x="201.53973388671875" y="400" font-family="Virgil, Segoe UI Emoji" font-size="20px" fill="#1e1e1e" text-anchor="middle" style="white-space: pre;" direction="ltr" dominant-baseline="text-before-edge">Since the requirement specifically </text><text x="201.53973388671875" y="425" font-family="Virgil, Segoe UI Emoji" font-size="20px" fill="#1e1e1e" text-anchor="middle" style="white-space: pre;" direction="ltr" dominant-baseline="text-before-edge">required polling for travel related emails</text><text x="201.53973388671875" y="450" font-family="Virgil, Segoe UI Emoji" font-size="20px" fill="#1e1e1e" text-anchor="middle" style="white-space: pre;" direction="ltr" dominant-baseline="text-before-edge">we decided to support  both forward </text><text x="201.53973388671875" y="475" font-family="Virgil, Segoe UI Emoji" font-size="20px" fill="#1e1e1e" text-anchor="middle" style="white-space: pre;" direction="ltr" dominant-baseline="text-before-edge">confirmation email and give access to </text><text x="201.53973388671875" y="500" font-family="Virgil, Segoe UI Emoji" font-size="20px" fill="#1e1e1e" text-anchor="middle" style="white-space: pre;" direction="ltr" dominant-baseline="text-before-edge">their email (which however increases </text><text x="201.53973388671875" y="525" font-family="Virgil, Segoe UI Emoji" font-size="20px" fill="#1e1e1e" text-anchor="middle" style="white-space: pre;" direction="ltr" dominant-baseline="text-before-edge">complexity and might raise privacy </text><text x="201.53973388671875" y="550" font-family="Virgil, Segoe UI Emoji" font-size="20px" fill="#1e1e1e" text-anchor="middle" style="white-space: pre;" direction="ltr" dominant-baseline="text-before-edge">concerns).</text><text x="201.53973388671875" y="575" font-family="Virgil, Segoe UI Emoji" font-size="20px" fill="#1e1e1e" text-anchor="middle" style="white-space: pre;" direction="ltr" dominant-baseline="text-before-edge"></text><text x="201.53973388671875" y="600" font-family="Virgil, Segoe UI Emoji" font-size="20px" fill="#1e1e1e" text-anchor="middle" style="white-space: pre;" direction="ltr" dominant-baseline="text-before-edge">We should ask the business team to </text><text x="201.53973388671875" y="625" font-family="Virgil, Segoe UI Emoji" font-size="20px" fill="#1e1e1e" text-anchor="middle" style="white-space: pre;" direction="ltr" dominant-baseline="text-before-edge">make the final decision based on the </text><text x="201.53973388671875" y="650" font-family="Virgil, Segoe UI Emoji" font-size="20px" fill="#1e1e1e" text-anchor="middle" style="white-space: pre;" direction="ltr" dominant-baseline="text-before-edge">trade offs described above).</text></g><g stroke-linecap="round"><g transform="translate(882.4901665901143 300.60242850636996) rotate(0 69.44731668134534 -94.12469080580688)"><path d="M0.83 0.9 C23.76 -30.45, 115.1 -157.26, 138.06 -189.15" stroke="#1e1e1e" stroke-width="1.5" fill="none" stroke-dasharray="1.5 7"></path></g></g><mask></mask></svg>